<ttFont>
    <TTGlyph name=".notdef" xMin="0" yMin="0" xMax="500" yMax="700">
      <contour>
        <pt x="0" y="700" on="1"/>
        <pt x="500" y="700" on="1"/>
        <pt x="500" y="0" on="1"/>
        <pt x="0" y="0" on="1"/>
      </contour>
      <contour>
        <pt x="80" y="650" on="1"/>
        <pt x="250" y="395" on="1"/>
        <pt x="420" y="650" on="1"/>
      </contour>
      <contour>
        <pt x="50" y="605" on="1"/>
        <pt x="50" y="95" on="1"/>
        <pt x="220" y="350" on="1"/>
      </contour>
      <contour>
        <pt x="280" y="350" on="1"/>
        <pt x="450" y="95" on="1"/>
        <pt x="450" y="605" on="1"/>
      </contour>
      <contour>
        <pt x="80" y="50" on="1"/>
        <pt x="420" y="50" on="1"/>
        <pt x="250" y="305" on="1"/>
      </contour>
    </TTGlyph>
    <TTGlyph name="A" xMin="-41" yMin="0" xMax="613" yMax="686">
      <contour>
        <pt x="159" y="183" on="1"/>
        <pt x="59" y="0" on="1"/>
        <pt x="-41" y="0" on="1"/>
        <pt x="345" y="686" on="1"/>
        <pt x="468" y="686" on="1"/>
        <pt x="613" y="0" on="1"/>
        <pt x="513" y="0" on="1"/>
        <pt x="477" y="183" on="1"/>
      </contour>
      <contour>
        <pt x="460" y="266" on="1"/>
        <pt x="394" y="604" on="1"/>
        <pt x="389" y="604" on="1"/>
        <pt x="204" y="266" on="1"/>
      </contour>
    </TTGlyph>
    <TTGlyph name="AE" xMin="-61" yMin="0" xMax="1000" yMax="686">
      <contour>
        <pt x="494" y="183" on="1"/>
        <pt x="163" y="183" on="1"/>
        <pt x="41" y="0" on="1"/>
        <pt x="-61" y="0" on="1"/>
        <pt x="405" y="686" on="1"/>
        <pt x="1000" y="686" on="1"/>
        <pt x="985" y="603" on="1"/>
        <pt x="540" y="603" on="1"/>
        <pt x="562" y="392" on="1"/>
        <pt x="904" y="392" on="1"/>
        <pt x="890" y="309" on="1"/>
        <pt x="572" y="309" on="1"/>
        <pt x="595" y="83" on="1"/>
        <pt x="900" y="83" on="1"/>
        <pt x="885" y="0" on="1"/>
        <pt x="513" y="0" on="1"/>
      </contour>
      <contour>
        <pt x="446" y="603" on="1"/>
        <pt x="219" y="266" on="1"/>
        <pt x="486" y="266" on="1"/>
        <pt x="451" y="603" on="1"/>
      </contour>
    </TTGlyph>
    <TTGlyph name="AEacute" xMin="-61" yMin="0" xMax="1000" yMax="868">
      <component glyphName="AE" x="0" y="0" flags="0x0"/>
      <component glyphName="acute" x="480" y="145" flags="0x0"/>
    </TTGlyph>
    <TTGlyph name="Aacute" xMin="-41" yMin="0" xMax="613" yMax="868">
      <component glyphName="A" x="0" y="0" flags="0x0"/>
      <component glyphName="acute" x="314" y="145" flags="0x0"/>
    </TTGlyph>
    <TTGlyph name="Abreve" xMin="-41" yMin="0" xMax="613" yMax="868">
      <component glyphName="A" x="0" y="0" flags="0x0"/>
      <component glyphName="breve" x="258" y="145" flags="0x0"/>
    </TTGlyph>
    <TTGlyph name="Acircumflex" xMin="-41" yMin="0" xMax="613" yMax="868">
      <component glyphName="A" x="0" y="0" flags="0x0"/>
      <component glyphName="circumflex" x="261" y="145" flags="0x0"/>
    </TTGlyph>
    <TTGlyph name="Adieresis" xMin="-41" yMin="0" xMax="613" yMax="868">
      <component glyphName="A" x="0" y="0" flags="0x0"/>
      <component glyphName="dieresis" x="269" y="145" flags="0x0"/>
    </TTGlyph>
    <TTGlyph name="Agrave" xMin="-41" yMin="0" xMax="613" yMax="868">
      <component glyphName="A" x="0" y="0" flags="0x0"/>
      <component glyphName="grave" x="212" y="145" flags="0x0"/>
    </TTGlyph>
    <TTGlyph name="Amacron" xMin="-41" yMin="0" xMax="613" yMax="835">
      <contour>
        <pt x="270" y="835" on="1"/>
        <pt x="575" y="835" on="1"/>
        <pt x="562" y="763" on="1"/>
        <pt x="257" y="763" on="1"/>
      </contour>
      <contour>
        <pt x="159" y="183" on="1"/>
        <pt x="59" y="0" on="1"/>
        <pt x="-41" y="0" on="1"/>
        <pt x="345" y="686" on="1"/>
        <pt x="468" y="686" on="1"/>
        <pt x="613" y="0" on="1"/>
        <pt x="513" y="0" on="1"/>
        <pt x="477" y="183" on="1"/>
      </contour>
      <contour>
        <pt x="460" y="266" on="1"/>
        <pt x="394" y="604" on="1"/>
        <pt x="389" y="604" on="1"/>
        <pt x="204" y="266" on="1"/>
      </contour>
    </TTGlyph>
    <TTGlyph name="Aogonek" xMin="-41" yMin="-182" xMax="613" yMax="686">
      <contour>
        <pt x="550" y="-182" on="0"/>
        <pt x="511" y="-182" on="1"/>
        <pt x="481" y="-182" on="0"/>
        <pt x="438" y="-146" on="0"/>
        <pt x="438" y="-108" on="1"/>
        <pt x="438" y="-44" on="0"/>
        <pt x="513" y="0" on="1"/>
        <pt x="477" y="183" on="1"/>
        <pt x="159" y="183" on="1"/>
        <pt x="59" y="0" on="1"/>
        <pt x="-41" y="0" on="1"/>
        <pt x="345" y="686" on="1"/>
        <pt x="468" y="686" on="1"/>
        <pt x="613" y="0" on="1"/>
        <pt x="588" y="0" on="1"/>
        <pt x="560" y="-15" on="0"/>
        <pt x="523" y="-54" on="0"/>
        <pt x="523" y="-76" on="1"/>
        <pt x="523" y="-94" on="0"/>
        <pt x="541" y="-117" on="0"/>
        <pt x="560" y="-117" on="1"/>
        <pt x="592" y="-117" on="1"/>
        <pt x="583" y="-168" on="1"/>
      </contour>
      <contour>
        <pt x="460" y="266" on="1"/>
        <pt x="394" y="604" on="1"/>
        <pt x="389" y="604" on="1"/>
        <pt x="204" y="266" on="1"/>
      </contour>
    </TTGlyph>
    <TTGlyph name="Aring" xMin="-41" yMin="0" xMax="613" yMax="903">
      <component glyphName="A" x="0" y="0" flags="0x0"/>
      <component glyphName="ring" x="262" y="145" flags="0x0"/>
    </TTGlyph>
    <TTGlyph name="Aringacute" xMin="-41" yMin="0" xMax="613" yMax="993">
      <contour>
        <pt x="504" y="993" on="1"/>
        <pt x="605" y="993" on="1"/>
        <pt x="606" y="990" on="1"/>
        <pt x="482" y="861" on="1"/>
        <pt x="396" y="861" on="1"/>
      </contour>
      <contour>
        <pt x="338" y="673" on="1"/>
        <pt x="318" y="693" on="0"/>
        <pt x="318" y="726" on="1"/>
        <pt x="318" y="776" on="0"/>
        <pt x="377" y="839" on="0"/>
        <pt x="429" y="839" on="1"/>
        <pt x="465" y="839" on="0"/>
        <pt x="513" y="793" on="0"/>
        <pt x="513" y="759" on="1"/>
        <pt x="513" y="729" on="0"/>
        <pt x="492" y="682" on="0"/>
        <pt x="472" y="668" on="1"/>
        <pt x="613" y="0" on="1"/>
        <pt x="513" y="0" on="1"/>
        <pt x="477" y="183" on="1"/>
        <pt x="159" y="183" on="1"/>
        <pt x="59" y="0" on="1"/>
        <pt x="-41" y="0" on="1"/>
      </contour>
      <contour>
        <pt x="435" y="692" on="0"/>
        <pt x="467" y="727" on="0"/>
        <pt x="467" y="752" on="1"/>
        <pt x="467" y="770" on="0"/>
        <pt x="443" y="794" on="0"/>
        <pt x="423" y="794" on="1"/>
        <pt x="396" y="794" on="0"/>
        <pt x="364" y="758" on="0"/>
        <pt x="364" y="733" on="1"/>
        <pt x="364" y="715" on="0"/>
        <pt x="387" y="692" on="0"/>
        <pt x="408" y="692" on="1"/>
      </contour>
      <contour>
        <pt x="460" y="266" on="1"/>
        <pt x="394" y="604" on="1"/>
        <pt x="389" y="604" on="1"/>
        <pt x="204" y="266" on="1"/>
      </contour>
    </TTGlyph>
    <TTGlyph name="Atilde" xMin="-41" yMin="0" xMax="613" yMax="868">
      <component glyphName="A" x="0" y="0" flags="0x0"/>
      <component glyphName="tilde" x="268" y="145" flags="0x0"/>
    </TTGlyph>
    <TTGlyph name="B" xMin="18" yMin="0" xMax="632" yMax="686">
      <contour>
        <pt x="139" y="686" on="1"/>
        <pt x="438" y="686" on="1"/>
        <pt x="529" y="686" on="0"/>
        <pt x="632" y="611" on="0"/>
        <pt x="632" y="540" on="1"/>
        <pt x="632" y="475" on="0"/>
        <pt x="550" y="377" on="0"/>
        <pt x="489" y="360" on="1"/>
        <pt x="489" y="356" on="1"/>
        <pt x="538" y="343" on="0"/>
        <pt x="595" y="271" on="0"/>
        <pt x="595" y="213" on="1"/>
        <pt x="595" y="105" on="0"/>
        <pt x="466" y="0" on="0"/>
        <pt x="369" y="0" on="1"/>
        <pt x="18" y="0" on="1"/>
      </contour>
      <contour>
        <pt x="182" y="393" on="1"/>
        <pt x="396" y="393" on="1"/>
        <pt x="459" y="393" on="0"/>
        <pt x="538" y="462" on="0"/>
        <pt x="538" y="516" on="1"/>
        <pt x="538" y="562" on="0"/>
        <pt x="487" y="603" on="0"/>
        <pt x="439" y="603" on="1"/>
        <pt x="219" y="603" on="1"/>
      </contour>
      <contour>
        <pt x="128" y="83" on="1"/>
        <pt x="362" y="83" on="1"/>
        <pt x="499" y="83" on="0"/>
        <pt x="499" y="215" on="1"/>
        <pt x="499" y="310" on="0"/>
        <pt x="395" y="310" on="1"/>
        <pt x="168" y="310" on="1"/>
      </contour>
    </TTGlyph>
    <TTGlyph name="C" xMin="37" yMin="-12" xMax="697" yMax="698">
      <contour>
        <pt x="636" y="118" on="0"/>
        <pt x="459" y="-12" on="0"/>
        <pt x="328" y="-12" on="1"/>
        <pt x="37" y="-12" on="0"/>
        <pt x="37" y="250" on="1"/>
        <pt x="37" y="384" on="0"/>
        <pt x="132" y="586" on="0"/>
        <pt x="310" y="698" on="0"/>
        <pt x="433" y="698" on="1"/>
        <pt x="555" y="698" on="0"/>
        <pt x="697" y="594" on="0"/>
        <pt x="697" y="495" on="1"/>
        <pt x="697" y="471" on="0"/>
        <pt x="692" y="438" on="1"/>
        <pt x="595" y="438" on="1"/>
        <pt x="599" y="468" on="0"/>
        <pt x="599" y="480" on="1"/>
        <pt x="599" y="548" on="0"/>
        <pt x="515" y="617" on="0"/>
        <pt x="439" y="617" on="1"/>
        <pt x="343" y="617" on="0"/>
        <pt x="206" y="528" on="0"/>
        <pt x="135" y="366" on="0"/>
        <pt x="135" y="258" on="1"/>
        <pt x="135" y="159" on="0"/>
        <pt x="227" y="69" on="0"/>
        <pt x="322" y="69" on="1"/>
        <pt x="421" y="69" on="0"/>
        <pt x="549" y="159" on="0"/>
        <pt x="565" y="246" on="1"/>
        <pt x="658" y="246" on="1"/>
      </contour>
    </TTGlyph>
    <TTGlyph name="Cacute" xMin="37" yMin="-12" xMax="697" yMax="868">
      <component glyphName="C" x="0" y="0" flags="0x0"/>
      <component glyphName="acute" x="341" y="145" flags="0x0"/>
    </TTGlyph>
    <TTGlyph name="Cacute.loclPLK" xMin="37" yMin="-12" xMax="697" yMax="868">
      <component glyphName="C" x="0" y="0" flags="0x0"/>
      <component glyphName="acute.loclPLK" x="234" y="145" flags="0x0"/>
    </TTGlyph>
    <TTGlyph name="Ccaron" xMin="37" yMin="-12" xMax="697" yMax="868">
      <component glyphName="C" x="0" y="0" flags="0x0"/>
      <component glyphName="caron" x="293" y="145" flags="0x0"/>
    </TTGlyph>
    <TTGlyph name="Ccedilla" xMin="37" yMin="-182" xMax="697" yMax="698">
      <contour>
        <pt x="283" y="-10" on="1"/>
        <pt x="37" y="8" on="0"/>
        <pt x="37" y="250" on="1"/>
        <pt x="37" y="384" on="0"/>
        <pt x="132" y="586" on="0"/>
        <pt x="310" y="698" on="0"/>
        <pt x="433" y="698" on="1"/>
        <pt x="555" y="698" on="0"/>
        <pt x="697" y="594" on="0"/>
        <pt x="697" y="495" on="1"/>
        <pt x="697" y="471" on="0"/>
        <pt x="692" y="438" on="1"/>
        <pt x="595" y="438" on="1"/>
        <pt x="599" y="468" on="0"/>
        <pt x="599" y="480" on="1"/>
        <pt x="599" y="548" on="0"/>
        <pt x="515" y="617" on="0"/>
        <pt x="439" y="617" on="1"/>
        <pt x="343" y="617" on="0"/>
        <pt x="206" y="528" on="0"/>
        <pt x="135" y="366" on="0"/>
        <pt x="135" y="258" on="1"/>
        <pt x="135" y="159" on="0"/>
        <pt x="227" y="69" on="0"/>
        <pt x="322" y="69" on="1"/>
        <pt x="421" y="69" on="0"/>
        <pt x="549" y="159" on="0"/>
        <pt x="565" y="246" on="1"/>
        <pt x="658" y="246" on="1"/>
        <pt x="637" y="122" on="0"/>
        <pt x="468" y="-8" on="0"/>
        <pt x="344" y="-12" on="1"/>
        <pt x="336" y="-36" on="1"/>
        <pt x="372" y="-36" on="0"/>
        <pt x="418" y="-65" on="0"/>
        <pt x="418" y="-94" on="1"/>
        <pt x="418" y="-182" on="0"/>
        <pt x="294" y="-182" on="1"/>
        <pt x="236" y="-182" on="0"/>
        <pt x="191" y="-174" on="1"/>
        <pt x="200" y="-125" on="1"/>
        <pt x="300" y="-125" on="1"/>
        <pt x="322" y="-125" on="0"/>
        <pt x="345" y="-112" on="0"/>
        <pt x="345" y="-95" on="1"/>
        <pt x="345" y="-86" on="0"/>
        <pt x="329" y="-77" on="0"/>
        <pt x="310" y="-77" on="1"/>
        <pt x="259" y="-77" on="1"/>
      </contour>
    </TTGlyph>
    <TTGlyph name="Ccircumflex" xMin="37" yMin="-12" xMax="697" yMax="868">
      <component glyphName="C" x="0" y="0" flags="0x0"/>
      <component glyphName="circumflex" x="288" y="145" flags="0x0"/>
    </TTGlyph>
    <TTGlyph name="Cdotaccent" xMin="37" yMin="-12" xMax="697" yMax="868">
      <component glyphName="C" x="0" y="0" flags="0x0"/>
      <component glyphName="dotaccent" x="296" y="145" flags="0x0"/>
    </TTGlyph>
    <TTGlyph name="D" xMin="18" yMin="0" xMax="684" yMax="686">
      <contour>
        <pt x="139" y="686" on="1"/>
        <pt x="373" y="686" on="1"/>
        <pt x="524" y="686" on="0"/>
        <pt x="684" y="552" on="0"/>
        <pt x="684" y="414" on="1"/>
        <pt x="684" y="285" on="0"/>
        <pt x="586" y="98" on="0"/>
        <pt x="408" y="0" on="0"/>
        <pt x="292" y="0" on="1"/>
        <pt x="18" y="0" on="1"/>
      </contour>
      <contour>
        <pt x="376" y="83" on="0"/>
        <pt x="511" y="157" on="0"/>
        <pt x="586" y="301" on="0"/>
        <pt x="586" y="402" on="1"/>
        <pt x="586" y="508" on="0"/>
        <pt x="479" y="603" on="0"/>
        <pt x="378" y="603" on="1"/>
        <pt x="219" y="603" on="1"/>
        <pt x="128" y="83" on="1"/>
        <pt x="287" y="83" on="1"/>
      </contour>
    </TTGlyph>
    <TTGlyph name="Dcaron" xMin="18" yMin="0" xMax="684" yMax="868">
      <component glyphName="D" x="0" y="0" flags="0x0"/>
      <component glyphName="caron" x="283" y="145" flags="0x0"/>
    </TTGlyph>
    <TTGlyph name="Dcroat" xMin="1" yMin="0" xMax="684" yMax="686">
      <contour>
        <pt x="75" y="324" on="1"/>
        <pt x="1" y="324" on="1"/>
        <pt x="12" y="387" on="1"/>
        <pt x="86" y="387" on="1"/>
        <pt x="139" y="686" on="1"/>
        <pt x="373" y="686" on="1"/>
        <pt x="524" y="686" on="0"/>
        <pt x="684" y="552" on="0"/>
        <pt x="684" y="414" on="1"/>
        <pt x="684" y="285" on="0"/>
        <pt x="586" y="98" on="0"/>
        <pt x="408" y="0" on="0"/>
        <pt x="292" y="0" on="1"/>
        <pt x="18" y="0" on="1"/>
      </contour>
      <contour>
        <pt x="376" y="83" on="0"/>
        <pt x="511" y="157" on="0"/>
        <pt x="586" y="301" on="0"/>
        <pt x="586" y="402" on="1"/>
        <pt x="586" y="508" on="0"/>
        <pt x="479" y="603" on="0"/>
        <pt x="378" y="603" on="1"/>
        <pt x="219" y="603" on="1"/>
        <pt x="181" y="387" on="1"/>
        <pt x="354" y="387" on="1"/>
        <pt x="343" y="324" on="1"/>
        <pt x="170" y="324" on="1"/>
        <pt x="128" y="83" on="1"/>
        <pt x="287" y="83" on="1"/>
      </contour>
    </TTGlyph>
    <TTGlyph name="Delta" xMin="-41" yMin="0" xMax="613" yMax="686">
      <contour>
        <pt x="345" y="686" on="1"/>
        <pt x="468" y="686" on="1"/>
        <pt x="613" y="0" on="1"/>
        <pt x="-41" y="0" on="1"/>
      </contour>
      <contour>
        <pt x="496" y="83" on="1"/>
        <pt x="394" y="604" on="1"/>
        <pt x="389" y="604" on="1"/>
        <pt x="104" y="83" on="1"/>
      </contour>
    </TTGlyph>
    <TTGlyph name="E" xMin="18" yMin="0" xMax="667" yMax="686">
      <contour>
        <pt x="139" y="686" on="1"/>
        <pt x="667" y="686" on="1"/>
        <pt x="652" y="603" on="1"/>
        <pt x="219" y="603" on="1"/>
        <pt x="182" y="392" on="1"/>
        <pt x="571" y="392" on="1"/>
        <pt x="557" y="309" on="1"/>
        <pt x="168" y="309" on="1"/>
        <pt x="128" y="83" on="1"/>
        <pt x="567" y="83" on="1"/>
        <pt x="552" y="0" on="1"/>
        <pt x="18" y="0" on="1"/>
      </contour>
    </TTGlyph>
    <TTGlyph name="Eacute" xMin="18" yMin="0" xMax="667" yMax="868">
      <component glyphName="E" x="0" y="0" flags="0x0"/>
      <component glyphName="acute" x="314" y="145" flags="0x0"/>
    </TTGlyph>
    <TTGlyph name="Ebreve" xMin="18" yMin="0" xMax="667" yMax="868">
      <component glyphName="E" x="0" y="0" flags="0x0"/>
      <component glyphName="breve" x="258" y="145" flags="0x0"/>
    </TTGlyph>
    <TTGlyph name="Ecaron" xMin="18" yMin="0" xMax="667" yMax="868">
      <component glyphName="E" x="0" y="0" flags="0x0"/>
      <component glyphName="caron" x="266" y="145" flags="0x0"/>
    </TTGlyph>
    <TTGlyph name="Ecircumflex" xMin="18" yMin="0" xMax="667" yMax="868">
      <component glyphName="E" x="0" y="0" flags="0x0"/>
      <component glyphName="circumflex" x="261" y="145" flags="0x0"/>
    </TTGlyph>
    <TTGlyph name="Edieresis" xMin="18" yMin="0" xMax="667" yMax="868">
      <component glyphName="E" x="0" y="0" flags="0x0"/>
      <component glyphName="dieresis" x="269" y="145" flags="0x0"/>
    </TTGlyph>
    <TTGlyph name="Edotaccent" xMin="18" yMin="0" xMax="667" yMax="868">
      <component glyphName="E" x="0" y="0" flags="0x0"/>
      <component glyphName="dotaccent" x="269" y="145" flags="0x0"/>
    </TTGlyph>
    <TTGlyph name="Egrave" xMin="18" yMin="0" xMax="667" yMax="868">
      <component glyphName="E" x="0" y="0" flags="0x0"/>
      <component glyphName="grave" x="212" y="145" flags="0x0"/>
    </TTGlyph>
    <TTGlyph name="Emacron" xMin="18" yMin="0" xMax="667" yMax="835">
      <contour>
        <pt x="281" y="835" on="1"/>
        <pt x="586" y="835" on="1"/>
        <pt x="573" y="763" on="1"/>
        <pt x="268" y="763" on="1"/>
      </contour>
      <contour>
        <pt x="139" y="686" on="1"/>
        <pt x="667" y="686" on="1"/>
        <pt x="652" y="603" on="1"/>
        <pt x="219" y="603" on="1"/>
        <pt x="182" y="392" on="1"/>
        <pt x="571" y="392" on="1"/>
        <pt x="557" y="309" on="1"/>
        <pt x="168" y="309" on="1"/>
        <pt x="128" y="83" on="1"/>
        <pt x="567" y="83" on="1"/>
        <pt x="552" y="0" on="1"/>
        <pt x="18" y="0" on="1"/>
      </contour>
    </TTGlyph>
    <TTGlyph name="Eng" xMin="18" yMin="-182" xMax="704" yMax="686">
      <contour>
        <pt x="429" y="-113" on="1"/>
        <pt x="475" y="-113" on="0"/>
        <pt x="483" y="-65" on="1"/>
        <pt x="496" y="10" on="1"/>
        <pt x="205" y="532" on="1"/>
        <pt x="200" y="531" on="1"/>
        <pt x="107" y="0" on="1"/>
        <pt x="18" y="0" on="1"/>
        <pt x="139" y="686" on="1"/>
        <pt x="224" y="686" on="1"/>
        <pt x="519" y="163" on="1"/>
        <pt x="523" y="164" on="1"/>
        <pt x="615" y="686" on="1"/>
        <pt x="704" y="686" on="1"/>
        <pt x="572" y="-61" on="1"/>
        <pt x="562" y="-116" on="0"/>
        <pt x="506" y="-182" on="0"/>
        <pt x="442" y="-182" on="1"/>
        <pt x="407" y="-182" on="0"/>
        <pt x="375" y="-170" on="1"/>
        <pt x="385" y="-113" on="1"/>
      </contour>
    </TTGlyph>
    <TTGlyph name="Eogonek" xMin="18" yMin="-182" xMax="667" yMax="686">
      <contour>
        <pt x="487" y="-182" on="0"/>
        <pt x="459" y="-182" on="1"/>
        <pt x="423" y="-182" on="0"/>
        <pt x="371" y="-146" on="0"/>
        <pt x="371" y="-108" on="1"/>
        <pt x="371" y="-70" on="0"/>
        <pt x="411" y="-20" on="0"/>
        <pt x="451" y="0" on="1"/>
        <pt x="18" y="0" on="1"/>
        <pt x="139" y="686" on="1"/>
        <pt x="667" y="686" on="1"/>
        <pt x="652" y="603" on="1"/>
        <pt x="219" y="603" on="1"/>
        <pt x="182" y="392" on="1"/>
        <pt x="571" y="392" on="1"/>
        <pt x="557" y="309" on="1"/>
        <pt x="168" y="309" on="1"/>
        <pt x="128" y="83" on="1"/>
        <pt x="567" y="83" on="1"/>
        <pt x="552" y="0" on="1"/>
        <pt x="511" y="-14" on="0"/>
        <pt x="455" y="-57" on="0"/>
        <pt x="455" y="-82" on="1"/>
        <pt x="455" y="-97" on="0"/>
        <pt x="478" y="-117" on="0"/>
        <pt x="500" y="-117" on="1"/>
        <pt x="532" y="-117" on="1"/>
        <pt x="523" y="-168" on="1"/>
      </contour>
    </TTGlyph>
    <TTGlyph name="Eth" xMin="1" yMin="0" xMax="684" yMax="686">
      <contour>
        <pt x="75" y="324" on="1"/>
        <pt x="1" y="324" on="1"/>
        <pt x="12" y="387" on="1"/>
        <pt x="86" y="387" on="1"/>
        <pt x="139" y="686" on="1"/>
        <pt x="373" y="686" on="1"/>
        <pt x="524" y="686" on="0"/>
        <pt x="684" y="552" on="0"/>
        <pt x="684" y="414" on="1"/>
        <pt x="684" y="285" on="0"/>
        <pt x="586" y="98" on="0"/>
        <pt x="408" y="0" on="0"/>
        <pt x="292" y="0" on="1"/>
        <pt x="18" y="0" on="1"/>
      </contour>
      <contour>
        <pt x="376" y="83" on="0"/>
        <pt x="511" y="157" on="0"/>
        <pt x="586" y="301" on="0"/>
        <pt x="586" y="402" on="1"/>
        <pt x="586" y="508" on="0"/>
        <pt x="479" y="603" on="0"/>
        <pt x="378" y="603" on="1"/>
        <pt x="219" y="603" on="1"/>
        <pt x="181" y="387" on="1"/>
        <pt x="354" y="387" on="1"/>
        <pt x="343" y="324" on="1"/>
        <pt x="170" y="324" on="1"/>
        <pt x="128" y="83" on="1"/>
        <pt x="287" y="83" on="1"/>
      </contour>
    </TTGlyph>
    <TTGlyph name="Euro" xMin="1" yMin="-12" xMax="581" yMax="698">
      <contour>
        <pt x="81" y="308" on="1"/>
        <pt x="87" y="343" on="1"/>
        <pt x="91" y="364" on="0"/>
        <pt x="94" y="378" on="1"/>
        <pt x="25" y="378" on="1"/>
        <pt x="36" y="443" on="1"/>
        <pt x="113" y="443" on="1"/>
        <pt x="161" y="572" on="0"/>
        <pt x="365" y="698" on="0"/>
        <pt x="491" y="698" on="1"/>
        <pt x="541" y="698" on="0"/>
        <pt x="581" y="688" on="1"/>
        <pt x="569" y="617" on="1"/>
        <pt x="535" y="625" on="0"/>
        <pt x="502" y="625" on="1"/>
        <pt x="412" y="625" on="0"/>
        <pt x="248" y="539" on="0"/>
        <pt x="210" y="443" on="1"/>
        <pt x="467" y="443" on="1"/>
        <pt x="456" y="378" on="1"/>
        <pt x="188" y="378" on="1"/>
        <pt x="185" y="367" on="0"/>
        <pt x="181" y="343" on="1"/>
        <pt x="178" y="332" on="0"/>
        <pt x="176" y="314" on="0"/>
        <pt x="175" y="308" on="1"/>
        <pt x="443" y="308" on="1"/>
        <pt x="432" y="243" on="1"/>
        <pt x="174" y="243" on="1"/>
        <pt x="179" y="146" on="0"/>
        <pt x="306" y="61" on="0"/>
        <pt x="393" y="61" on="1"/>
        <pt x="430" y="61" on="0"/>
        <pt x="472" y="69" on="1"/>
        <pt x="460" y="-2" on="1"/>
        <pt x="413" y="-12" on="0"/>
        <pt x="376" y="-12" on="1"/>
        <pt x="246" y="-12" on="0"/>
        <pt x="82" y="112" on="0"/>
        <pt x="78" y="243" on="1"/>
        <pt x="1" y="243" on="1"/>
        <pt x="12" y="308" on="1"/>
      </contour>
    </TTGlyph>
    <TTGlyph name="F" xMin="18" yMin="0" xMax="625" yMax="686">
      <contour>
        <pt x="113" y="0" on="1"/>
        <pt x="18" y="0" on="1"/>
        <pt x="139" y="686" on="1"/>
        <pt x="625" y="686" on="1"/>
        <pt x="610" y="603" on="1"/>
        <pt x="219" y="603" on="1"/>
        <pt x="181" y="385" on="1"/>
        <pt x="536" y="385" on="1"/>
        <pt x="521" y="302" on="1"/>
        <pt x="166" y="302" on="1"/>
      </contour>
    </TTGlyph>
    <TTGlyph name="G" xMin="37" yMin="-12" xMax="730" yMax="698">
      <contour>
        <pt x="574" y="84" on="1"/>
        <pt x="481" y="-12" on="0"/>
        <pt x="322" y="-12" on="1"/>
        <pt x="183" y="-12" on="0"/>
        <pt x="37" y="124" on="0"/>
        <pt x="37" y="252" on="1"/>
        <pt x="37" y="387" on="0"/>
        <pt x="135" y="588" on="0"/>
        <pt x="319" y="698" on="0"/>
        <pt x="445" y="698" on="1"/>
        <pt x="576" y="698" on="0"/>
        <pt x="730" y="597" on="0"/>
        <pt x="730" y="500" on="1"/>
        <pt x="730" y="475" on="0"/>
        <pt x="726" y="452" on="1"/>
        <pt x="629" y="452" on="1"/>
        <pt x="632" y="470" on="0"/>
        <pt x="632" y="485" on="1"/>
        <pt x="632" y="551" on="0"/>
        <pt x="536" y="617" on="0"/>
        <pt x="451" y="617" on="1"/>
        <pt x="352" y="617" on="0"/>
        <pt x="211" y="531" on="0"/>
        <pt x="136" y="371" on="0"/>
        <pt x="136" y="261" on="1"/>
        <pt x="136" y="160" on="0"/>
        <pt x="232" y="69" on="0"/>
        <pt x="328" y="69" on="1"/>
        <pt x="406" y="69" on="0"/>
        <pt x="524" y="122" on="0"/>
        <pt x="592" y="211" on="0"/>
        <pt x="598" y="264" on="1"/>
        <pt x="599" y="274" on="1"/>
        <pt x="357" y="274" on="1"/>
        <pt x="372" y="357" on="1"/>
        <pt x="709" y="357" on="1"/>
        <pt x="646" y="0" on="1"/>
        <pt x="574" y="0" on="1"/>
      </contour>
    </TTGlyph>
    <TTGlyph name="G_tilde.loclGUA" xMin="37" yMin="-12" xMax="730" yMax="868">
      <component glyphName="G" x="0" y="0" flags="0x0"/>
      <component glyphName="tilde" x="323" y="145" flags="0x0"/>
    </TTGlyph>
    <TTGlyph name="Gbreve" xMin="37" yMin="-12" xMax="730" yMax="868">
      <component glyphName="G" x="0" y="0" flags="0x0"/>
      <component glyphName="breve" x="313" y="145" flags="0x0"/>
    </TTGlyph>
    <TTGlyph name="Gcaron" xMin="37" yMin="-12" xMax="730" yMax="868">
      <component glyphName="G" x="0" y="0" flags="0x0"/>
      <component glyphName="caron" x="321" y="145" flags="0x0"/>
    </TTGlyph>
    <TTGlyph name="Gcircumflex" xMin="37" yMin="-12" xMax="730" yMax="868">
      <component glyphName="G" x="0" y="0" flags="0x0"/>
      <component glyphName="circumflex" x="316" y="145" flags="0x0"/>
    </TTGlyph>
    <TTGlyph name="Gcommaaccent" xMin="37" yMin="-230" xMax="730" yMax="698">
      <component glyphName="G" x="0" y="0" flags="0x0"/>
      <component glyphName="uni0326" x="430" y="0" flags="0x0"/>
    </TTGlyph>
    <TTGlyph name="Gdotaccent" xMin="37" yMin="-12" xMax="730" yMax="868">
      <component glyphName="G" x="0" y="0" flags="0x0"/>
      <component glyphName="dotaccent" x="324" y="145" flags="0x0"/>
    </TTGlyph>
    <TTGlyph name="H" xMin="18" yMin="0" xMax="703" yMax="686">
      <contour>
        <pt x="542" y="309" on="1"/>
        <pt x="168" y="309" on="1"/>
        <pt x="113" y="0" on="1"/>
        <pt x="18" y="0" on="1"/>
        <pt x="139" y="686" on="1"/>
        <pt x="234" y="686" on="1"/>
        <pt x="182" y="392" on="1"/>
        <pt x="556" y="392" on="1"/>
        <pt x="608" y="686" on="1"/>
        <pt x="703" y="686" on="1"/>
        <pt x="582" y="0" on="1"/>
        <pt x="487" y="0" on="1"/>
      </contour>
    </TTGlyph>
    <TTGlyph name="Hbar" xMin="18" yMin="0" xMax="757" yMax="686">
      <contour>
        <pt x="542" y="309" on="1"/>
        <pt x="168" y="309" on="1"/>
        <pt x="113" y="0" on="1"/>
        <pt x="18" y="0" on="1"/>
        <pt x="111" y="526" on="1"/>
        <pt x="41" y="526" on="1"/>
        <pt x="53" y="598" on="1"/>
        <pt x="123" y="598" on="1"/>
        <pt x="139" y="686" on="1"/>
        <pt x="234" y="686" on="1"/>
        <pt x="218" y="598" on="1"/>
        <pt x="592" y="598" on="1"/>
        <pt x="608" y="686" on="1"/>
        <pt x="703" y="686" on="1"/>
        <pt x="687" y="598" on="1"/>
        <pt x="757" y="598" on="1"/>
        <pt x="745" y="526" on="1"/>
        <pt x="675" y="526" on="1"/>
        <pt x="582" y="0" on="1"/>
        <pt x="487" y="0" on="1"/>
      </contour>
      <contour>
        <pt x="206" y="526" on="1"/>
        <pt x="182" y="392" on="1"/>
        <pt x="556" y="392" on="1"/>
        <pt x="580" y="526" on="1"/>
      </contour>
    </TTGlyph>
    <TTGlyph name="Hcircumflex" xMin="18" yMin="0" xMax="703" yMax="868">
      <component glyphName="H" x="0" y="0" flags="0x0"/>
      <component glyphName="circumflex" x="288" y="145" flags="0x0"/>
    </TTGlyph>
    <TTGlyph name="I" xMin="31" yMin="0" xMax="247" yMax="686">
      <contour>
        <pt x="152" y="686" on="1"/>
        <pt x="247" y="686" on="1"/>
        <pt x="126" y="0" on="1"/>
        <pt x="31" y="0" on="1"/>
      </contour>
    </TTGlyph>
    <TTGlyph name="IJ" xMin="31" yMin="-12" xMax="761" yMax="686">
      <component glyphName="I" x="0" y="0" flags="0x0"/>
      <component glyphName="J" x="278" y="0" flags="0x0"/>
    </TTGlyph>
    <TTGlyph name="Iacute" xMin="31" yMin="0" xMax="375" yMax="868">
      <component glyphName="I" x="0" y="0" flags="0x0"/>
      <component glyphName="acute" x="102" y="145" flags="0x0"/>
    </TTGlyph>
    <TTGlyph name="Iacute_J.loclNLD" xMin="31" yMin="-12" xMax="761" yMax="868">
      <component glyphName="I" x="0" y="0" flags="0x0"/>
      <component glyphName="acute" x="102" y="145" flags="0x0"/>
      <component glyphName="J" x="278" y="0" flags="0x0"/>
      <component glyphName="acute" x="616" y="145" flags="0x0"/>
    </TTGlyph>
    <TTGlyph name="Ibreve" xMin="31" yMin="0" xMax="368" yMax="868">
      <component glyphName="I" x="0" y="0" flags="0x0"/>
      <component glyphName="breve" x="46" y="145" flags="0x0"/>
    </TTGlyph>
    <TTGlyph name="Icircumflex" xMin="31" yMin="0" xMax="351" yMax="868">
      <component glyphName="I" x="0" y="0" flags="0x0"/>
      <component glyphName="circumflex" x="49" y="145" flags="0x0"/>
    </TTGlyph>
    <TTGlyph name="Idieresis" xMin="31" yMin="0" xMax="369" yMax="868">
      <component glyphName="I" x="0" y="0" flags="0x0"/>
      <component glyphName="dieresis" x="57" y="145" flags="0x0"/>
    </TTGlyph>
    <TTGlyph name="Idotaccent" xMin="31" yMin="0" xMax="275" yMax="868">
      <component glyphName="I" x="0" y="0" flags="0x0"/>
      <component glyphName="dotaccent" x="57" y="145" flags="0x0"/>
    </TTGlyph>
    <TTGlyph name="Igrave" xMin="31" yMin="0" xMax="247" yMax="868">
      <component glyphName="I" x="0" y="0" flags="0x0"/>
      <component glyphName="grave" x="0" y="145" flags="0x0"/>
    </TTGlyph>
    <TTGlyph name="Imacron" xMin="31" yMin="0" xMax="365" yMax="835">
      <contour>
        <pt x="61" y="835" on="1"/>
        <pt x="365" y="835" on="1"/>
        <pt x="352" y="763" on="1"/>
        <pt x="48" y="763" on="1"/>
      </contour>
      <contour>
        <pt x="152" y="686" on="1"/>
        <pt x="247" y="686" on="1"/>
        <pt x="126" y="0" on="1"/>
        <pt x="31" y="0" on="1"/>
      </contour>
    </TTGlyph>
    <TTGlyph name="Iogonek" xMin="-28" yMin="-182" xMax="247" yMax="686">
      <contour>
        <pt x="87" y="-182" on="0"/>
        <pt x="53" y="-182" on="1"/>
        <pt x="18" y="-182" on="0"/>
        <pt x="-28" y="-144" on="0"/>
        <pt x="-28" y="-102" on="1"/>
        <pt x="-28" y="-68" on="0"/>
        <pt x="3" y="-15" on="0"/>
        <pt x="31" y="0" on="1"/>
        <pt x="152" y="686" on="1"/>
        <pt x="247" y="686" on="1"/>
        <pt x="126" y="0" on="1"/>
        <pt x="87" y="-12" on="0"/>
        <pt x="54" y="-53" on="0"/>
        <pt x="54" y="-74" on="1"/>
        <pt x="54" y="-93" on="0"/>
        <pt x="79" y="-117" on="0"/>
        <pt x="106" y="-117" on="1"/>
        <pt x="130" y="-117" on="1"/>
        <pt x="121" y="-168" on="1"/>
      </contour>
    </TTGlyph>
    <TTGlyph name="Itilde" xMin="31" yMin="0" xMax="395" yMax="868">
      <component glyphName="I" x="0" y="0" flags="0x0"/>
      <component glyphName="tilde" x="56" y="145" flags="0x0"/>
    </TTGlyph>
    <TTGlyph name="J" xMin="-3" yMin="-12" xMax="483" yMax="686">
      <contour>
        <pt x="483" y="686" on="1"/>
        <pt x="397" y="199" on="1"/>
        <pt x="377" y="89" on="0"/>
        <pt x="266" y="-12" on="0"/>
        <pt x="173" y="-12" on="1"/>
        <pt x="87" y="-12" on="0"/>
        <pt x="-3" y="62" on="0"/>
        <pt x="-3" y="135" on="1"/>
        <pt x="-3" y="171" on="0"/>
        <pt x="6" y="208" on="1"/>
        <pt x="101" y="208" on="1"/>
        <pt x="92" y="172" on="0"/>
        <pt x="92" y="148" on="1"/>
        <pt x="92" y="109" on="0"/>
        <pt x="130" y="69" on="0"/>
        <pt x="167" y="69" on="1"/>
        <pt x="223" y="69" on="0"/>
        <pt x="289" y="127" on="0"/>
        <pt x="301" y="194" on="1"/>
        <pt x="388" y="686" on="1"/>
      </contour>
    </TTGlyph>
    <TTGlyph name="Jcircumflex" xMin="-3" yMin="-12" xMax="587" yMax="868">
      <component glyphName="J" x="0" y="0" flags="0x0"/>
      <component glyphName="circumflex" x="285" y="145" flags="0x0"/>
    </TTGlyph>
    <TTGlyph name="K" xMin="18" yMin="0" xMax="715" yMax="686">
      <contour>
        <pt x="147" y="195" on="1"/>
        <pt x="113" y="0" on="1"/>
        <pt x="18" y="0" on="1"/>
        <pt x="139" y="686" on="1"/>
        <pt x="234" y="686" on="1"/>
        <pt x="167" y="308" on="1"/>
        <pt x="591" y="686" on="1"/>
        <pt x="715" y="686" on="1"/>
        <pt x="407" y="411" on="1"/>
        <pt x="603" y="0" on="1"/>
        <pt x="498" y="0" on="1"/>
        <pt x="333" y="346" on="1"/>
      </contour>
    </TTGlyph>
    <TTGlyph name="Kcommaaccent" xMin="18" yMin="-230" xMax="715" yMax="686">
      <component glyphName="K" x="0" y="0" flags="0x0"/>
      <component glyphName="uni0326" x="375" y="0" flags="0x0"/>
    </TTGlyph>
    <TTGlyph name="L" xMin="18" yMin="0" xMax="497" yMax="686">
      <contour>
        <pt x="139" y="686" on="1"/>
        <pt x="234" y="686" on="1"/>
        <pt x="128" y="83" on="1"/>
        <pt x="497" y="83" on="1"/>
        <pt x="482" y="0" on="1"/>
        <pt x="18" y="0" on="1"/>
      </contour>
    </TTGlyph>
    <TTGlyph name="Lacute" xMin="18" yMin="0" xMax="497" yMax="868">
      <component glyphName="L" x="0" y="0" flags="0x0"/>
      <component glyphName="acute" x="89" y="145" flags="0x0"/>
    </TTGlyph>
    <TTGlyph name="Lcaron" xMin="18" yMin="0" xMax="497" yMax="686">
      <contour>
        <pt x="139" y="686" on="1"/>
        <pt x="234" y="686" on="1"/>
        <pt x="128" y="83" on="1"/>
        <pt x="497" y="83" on="1"/>
        <pt x="482" y="0" on="1"/>
        <pt x="18" y="0" on="1"/>
      </contour>
      <contour>
        <pt x="383" y="595" on="1"/>
        <pt x="351" y="595" on="1"/>
        <pt x="367" y="686" on="1"/>
        <pt x="452" y="686" on="1"/>
        <pt x="437" y="602" on="1"/>
        <pt x="376" y="490" on="1"/>
        <pt x="330" y="490" on="1"/>
      </contour>
    </TTGlyph>
    <TTGlyph name="Lcommaaccent" xMin="18" yMin="-230" xMax="497" yMax="686">
      <component glyphName="L" x="0" y="0" flags="0x0"/>
      <component glyphName="uni0326" x="337" y="0" flags="0x0"/>
    </TTGlyph>
    <TTGlyph name="Ldot" xMin="18" yMin="0" xMax="497" yMax="686">
      <component glyphName="L" x="0" y="0" flags="0x0"/>
      <component glyphName="periodcentered" x="200" y="115" flags="0x0"/>
    </TTGlyph>
    <TTGlyph name="Lslash" xMin="0" yMin="0" xMax="497" yMax="686">
      <contour>
        <pt x="82" y="265" on="1"/>
        <pt x="0" y="216" on="1"/>
        <pt x="14" y="297" on="1"/>
        <pt x="96" y="346" on="1"/>
        <pt x="156" y="686" on="1"/>
        <pt x="251" y="686" on="1"/>
        <pt x="202" y="409" on="1"/>
        <pt x="389" y="520" on="1"/>
        <pt x="374" y="438" on="1"/>
        <pt x="188" y="327" on="1"/>
        <pt x="145" y="83" on="1"/>
        <pt x="497" y="83" on="1"/>
        <pt x="482" y="0" on="1"/>
        <pt x="35" y="0" on="1"/>
      </contour>
    </TTGlyph>
    <TTGlyph name="M" xMin="18" yMin="0" xMax="815" yMax="686">
      <contour>
        <pt x="679" y="453" on="1"/>
        <pt x="703" y="581" on="1"/>
        <pt x="696" y="581" on="1"/>
        <pt x="694" y="574" on="0"/>
        <pt x="677" y="531" on="0"/>
        <pt x="668" y="515" on="1"/>
        <pt x="392" y="0" on="1"/>
        <pt x="312" y="0" on="1"/>
        <pt x="219" y="515" on="1"/>
        <pt x="217" y="529" on="0"/>
        <pt x="213" y="574" on="0"/>
        <pt x="213" y="581" on="1"/>
        <pt x="207" y="581" on="1"/>
        <pt x="205" y="565" on="0"/>
        <pt x="192" y="485" on="0"/>
        <pt x="187" y="453" on="1"/>
        <pt x="107" y="0" on="1"/>
        <pt x="18" y="0" on="1"/>
        <pt x="139" y="686" on="1"/>
        <pt x="278" y="686" on="1"/>
        <pt x="363" y="218" on="1"/>
        <pt x="368" y="192" on="0"/>
        <pt x="372" y="125" on="0"/>
        <pt x="372" y="115" on="1"/>
        <pt x="376" y="115" on="1"/>
        <pt x="380" y="126" on="0"/>
        <pt x="408" y="196" on="0"/>
        <pt x="420" y="218" on="1"/>
        <pt x="668" y="686" on="1"/>
        <pt x="815" y="686" on="1"/>
        <pt x="694" y="0" on="1"/>
        <pt x="599" y="0" on="1"/>
      </contour>
    </TTGlyph>
    <TTGlyph name="N" xMin="18" yMin="0" xMax="704" yMax="686">
      <contour>
        <pt x="205" y="532" on="1"/>
        <pt x="200" y="531" on="1"/>
        <pt x="107" y="0" on="1"/>
        <pt x="18" y="0" on="1"/>
        <pt x="139" y="686" on="1"/>
        <pt x="224" y="686" on="1"/>
        <pt x="519" y="163" on="1"/>
        <pt x="523" y="164" on="1"/>
        <pt x="615" y="686" on="1"/>
        <pt x="704" y="686" on="1"/>
        <pt x="583" y="0" on="1"/>
        <pt x="502" y="0" on="1"/>
      </contour>
    </TTGlyph>
    <TTGlyph name="Nacute" xMin="18" yMin="0" xMax="704" yMax="868">
      <component glyphName="N" x="0" y="0" flags="0x0"/>
      <component glyphName="acute" x="341" y="145" flags="0x0"/>
    </TTGlyph>
    <TTGlyph name="Nacute.loclPLK" xMin="18" yMin="0" xMax="704" yMax="868">
      <component glyphName="N" x="0" y="0" flags="0x0"/>
      <component glyphName="acute.loclPLK" x="234" y="145" flags="0x0"/>
    </TTGlyph>
    <TTGlyph name="Ncaron" xMin="18" yMin="0" xMax="704" yMax="868">
      <component glyphName="N" x="0" y="0" flags="0x0"/>
      <component glyphName="caron" x="293" y="145" flags="0x0"/>
    </TTGlyph>
    <TTGlyph name="Ncommaaccent" xMin="18" yMin="-230" xMax="704" yMax="686">
      <component glyphName="N" x="0" y="0" flags="0x0"/>
      <component glyphName="uni0326" x="402" y="0" flags="0x0"/>
    </TTGlyph>
    <TTGlyph name="Ntilde" xMin="18" yMin="0" xMax="704" yMax="868">
      <component glyphName="N" x="0" y="0" flags="0x0"/>
      <component glyphName="tilde" x="295" y="145" flags="0x0"/>
    </TTGlyph>
    <TTGlyph name="O" xMin="37" yMin="-11" xMax="740" yMax="699">
      <contour>
        <pt x="194" y="-11" on="0"/>
        <pt x="37" y="130" on="0"/>
        <pt x="37" y="256" on="1"/>
        <pt x="37" y="306" on="0"/>
        <pt x="46" y="352" on="1"/>
        <pt x="75" y="521" on="0"/>
        <pt x="279" y="699" on="0"/>
        <pt x="444" y="699" on="1"/>
        <pt x="584" y="698" on="0"/>
        <pt x="740" y="558" on="0"/>
        <pt x="740" y="434" on="1"/>
        <pt x="740" y="385" on="0"/>
        <pt x="731" y="338" on="1"/>
        <pt x="702" y="168" on="0"/>
        <pt x="498" y="-11" on="0"/>
        <pt x="334" y="-11" on="1"/>
      </contour>
      <contour>
        <pt x="461" y="71" on="0"/>
        <pt x="610" y="210" on="0"/>
        <pt x="635" y="352" on="1"/>
        <pt x="642" y="388" on="0"/>
        <pt x="642" y="434" on="1"/>
        <pt x="642" y="521" on="0"/>
        <pt x="537" y="618" on="0"/>
        <pt x="444" y="618" on="1"/>
        <pt x="316" y="618" on="0"/>
        <pt x="167" y="480" on="0"/>
        <pt x="142" y="338" on="1"/>
        <pt x="135" y="302" on="0"/>
        <pt x="135" y="256" on="1"/>
        <pt x="135" y="169" on="0"/>
        <pt x="240" y="71" on="0"/>
        <pt x="334" y="71" on="1"/>
      </contour>
    </TTGlyph>
    <TTGlyph name="OE" xMin="38" yMin="-12" xMax="1000" yMax="698">
      <contour>
        <pt x="461" y="76" on="1"/>
        <pt x="383" y="-12" on="0"/>
        <pt x="270" y="-12" on="1"/>
        <pt x="158" y="-12" on="0"/>
        <pt x="38" y="109" on="0"/>
        <pt x="38" y="229" on="1"/>
        <pt x="38" y="277" on="0"/>
        <pt x="49" y="343" on="1"/>
        <pt x="79" y="519" on="0"/>
        <pt x="248" y="698" on="0"/>
        <pt x="375" y="698" on="1"/>
        <pt x="500" y="698" on="0"/>
        <pt x="556" y="610" on="1"/>
        <pt x="569" y="686" on="1"/>
        <pt x="1000" y="686" on="1"/>
        <pt x="986" y="606" on="1"/>
        <pt x="650" y="606" on="1"/>
        <pt x="612" y="391" on="1"/>
        <pt x="893" y="391" on="1"/>
        <pt x="879" y="311" on="1"/>
        <pt x="598" y="311" on="1"/>
        <pt x="557" y="80" on="1"/>
        <pt x="900" y="80" on="1"/>
        <pt x="886" y="0" on="1"/>
        <pt x="448" y="0" on="1"/>
      </contour>
      <contour>
        <pt x="371" y="69" on="0"/>
        <pt x="483" y="198" on="0"/>
        <pt x="509" y="343" on="1"/>
        <pt x="520" y="409" on="0"/>
        <pt x="520" y="452" on="1"/>
        <pt x="520" y="541" on="0"/>
        <pt x="446" y="617" on="0"/>
        <pt x="375" y="617" on="1"/>
        <pt x="284" y="617" on="0"/>
        <pt x="172" y="487" on="0"/>
        <pt x="147" y="343" on="1"/>
        <pt x="136" y="277" on="0"/>
        <pt x="136" y="234" on="1"/>
        <pt x="136" y="147" on="0"/>
        <pt x="211" y="69" on="0"/>
        <pt x="287" y="69" on="1"/>
      </contour>
    </TTGlyph>
    <TTGlyph name="Oacute" xMin="37" yMin="-11" xMax="740" yMax="868">
      <component glyphName="O" x="0" y="0" flags="0x0"/>
      <component glyphName="acute" x="339" y="145" flags="0x0"/>
    </TTGlyph>
    <TTGlyph name="Oacute.loclPLK" xMin="37" yMin="-11" xMax="740" yMax="868">
      <component glyphName="O" x="0" y="0" flags="0x0"/>
      <component glyphName="acute.loclPLK" x="232" y="145" flags="0x0"/>
    </TTGlyph>
    <TTGlyph name="Obreve" xMin="37" yMin="-11" xMax="740" yMax="868">
      <component glyphName="O" x="0" y="0" flags="0x0"/>
      <component glyphName="breve" x="283" y="145" flags="0x0"/>
    </TTGlyph>
    <TTGlyph name="Ocircumflex" xMin="37" yMin="-11" xMax="740" yMax="868">
      <component glyphName="O" x="0" y="0" flags="0x0"/>
      <component glyphName="circumflex" x="286" y="145" flags="0x0"/>
    </TTGlyph>
    <TTGlyph name="Odieresis" xMin="37" yMin="-11" xMax="740" yMax="868">
      <component glyphName="O" x="0" y="0" flags="0x0"/>
      <component glyphName="dieresis" x="294" y="145" flags="0x0"/>
    </TTGlyph>
    <TTGlyph name="Ograve" xMin="37" yMin="-11" xMax="740" yMax="868">
      <component glyphName="O" x="0" y="0" flags="0x0"/>
      <component glyphName="grave" x="237" y="145" flags="0x0"/>
    </TTGlyph>
    <TTGlyph name="Ohorn" xMin="37" yMin="-11" xMax="833" yMax="828">
      <contour>
        <pt x="833" y="828" on="1"/>
        <pt x="824" y="774" on="1"/>
        <pt x="804" y="641" on="0"/>
        <pt x="692" y="595" on="1"/>
        <pt x="740" y="530" on="0"/>
        <pt x="740" y="434" on="1"/>
        <pt x="740" y="385" on="0"/>
        <pt x="731" y="338" on="1"/>
        <pt x="702" y="168" on="0"/>
        <pt x="498" y="-11" on="0"/>
        <pt x="334" y="-11" on="1"/>
        <pt x="194" y="-11" on="0"/>
        <pt x="37" y="130" on="0"/>
        <pt x="37" y="256" on="1"/>
        <pt x="37" y="306" on="0"/>
        <pt x="46" y="352" on="1"/>
        <pt x="75" y="521" on="0"/>
        <pt x="279" y="699" on="0"/>
        <pt x="444" y="699" on="1"/>
        <pt x="572" y="699" on="0"/>
        <pt x="650" y="638" on="1"/>
        <pt x="723" y="658" on="0"/>
        <pt x="748" y="720" on="1"/>
        <pt x="704" y="720" on="1"/>
        <pt x="723" y="828" on="1"/>
      </contour>
      <contour>
        <pt x="642" y="388" on="0"/>
        <pt x="642" y="434" on="1"/>
        <pt x="642" y="521" on="0"/>
        <pt x="537" y="618" on="0"/>
        <pt x="444" y="618" on="1"/>
        <pt x="316" y="618" on="0"/>
        <pt x="167" y="480" on="0"/>
        <pt x="142" y="338" on="1"/>
        <pt x="135" y="302" on="0"/>
        <pt x="135" y="256" on="1"/>
        <pt x="135" y="169" on="0"/>
        <pt x="240" y="71" on="0"/>
        <pt x="334" y="71" on="1"/>
        <pt x="461" y="71" on="0"/>
        <pt x="610" y="210" on="0"/>
        <pt x="635" y="352" on="1"/>
      </contour>
    </TTGlyph>
    <TTGlyph name="Ohungarumlaut" xMin="37" yMin="-11" xMax="740" yMax="868">
      <component glyphName="O" x="0" y="0" flags="0x0"/>
      <component glyphName="hungarumlaut" x="319" y="145" flags="0x0"/>
    </TTGlyph>
    <TTGlyph name="Omacron" xMin="37" yMin="-11" xMax="740" yMax="835">
      <contour>
        <pt x="325" y="835" on="1"/>
        <pt x="630" y="835" on="1"/>
        <pt x="617" y="763" on="1"/>
        <pt x="312" y="763" on="1"/>
      </contour>
      <contour>
        <pt x="194" y="-11" on="0"/>
        <pt x="37" y="130" on="0"/>
        <pt x="37" y="256" on="1"/>
        <pt x="37" y="306" on="0"/>
        <pt x="46" y="352" on="1"/>
        <pt x="75" y="521" on="0"/>
        <pt x="279" y="699" on="0"/>
        <pt x="444" y="699" on="1"/>
        <pt x="584" y="698" on="0"/>
        <pt x="740" y="558" on="0"/>
        <pt x="740" y="434" on="1"/>
        <pt x="740" y="385" on="0"/>
        <pt x="731" y="338" on="1"/>
        <pt x="702" y="168" on="0"/>
        <pt x="498" y="-11" on="0"/>
        <pt x="334" y="-11" on="1"/>
      </contour>
      <contour>
        <pt x="461" y="71" on="0"/>
        <pt x="610" y="210" on="0"/>
        <pt x="635" y="352" on="1"/>
        <pt x="642" y="388" on="0"/>
        <pt x="642" y="434" on="1"/>
        <pt x="642" y="521" on="0"/>
        <pt x="537" y="618" on="0"/>
        <pt x="444" y="618" on="1"/>
        <pt x="316" y="618" on="0"/>
        <pt x="167" y="480" on="0"/>
        <pt x="142" y="338" on="1"/>
        <pt x="135" y="302" on="0"/>
        <pt x="135" y="256" on="1"/>
        <pt x="135" y="169" on="0"/>
        <pt x="240" y="71" on="0"/>
        <pt x="334" y="71" on="1"/>
      </contour>
    </TTGlyph>
    <TTGlyph name="Omega" xMin="-24" yMin="0" xMax="708" yMax="698">
      <contour>
        <pt x="353" y="71" on="1"/>
        <pt x="423" y="85" on="0"/>
        <pt x="519" y="139" on="0"/>
        <pt x="585" y="250" on="0"/>
        <pt x="601" y="343" on="1"/>
        <pt x="610" y="394" on="0"/>
        <pt x="610" y="434" on="1"/>
        <pt x="610" y="530" on="0"/>
        <pt x="515" y="617" on="0"/>
        <pt x="426" y="617" on="1"/>
        <pt x="313" y="617" on="0"/>
        <pt x="170" y="488" on="0"/>
        <pt x="143" y="343" on="1"/>
        <pt x="134" y="292" on="0"/>
        <pt x="134" y="253" on="1"/>
        <pt x="134" y="168" on="0"/>
        <pt x="214" y="87" on="0"/>
        <pt x="294" y="71" on="1"/>
        <pt x="282" y="0" on="1"/>
        <pt x="-24" y="0" on="1"/>
        <pt x="-9" y="84" on="1"/>
        <pt x="30" y="84" on="1"/>
        <pt x="39" y="84" on="0"/>
        <pt x="73" y="82" on="1"/>
        <pt x="103" y="80" on="0"/>
        <pt x="125" y="80" on="1"/>
        <pt x="39" y="151" on="0"/>
        <pt x="39" y="272" on="1"/>
        <pt x="39" y="306" on="0"/>
        <pt x="45" y="343" on="1"/>
        <pt x="75" y="518" on="0"/>
        <pt x="274" y="698" on="0"/>
        <pt x="425" y="698" on="1"/>
        <pt x="561" y="698" on="0"/>
        <pt x="708" y="568" on="0"/>
        <pt x="708" y="441" on="1"/>
        <pt x="708" y="320" on="0"/>
        <pt x="615" y="137" on="0"/>
        <pt x="530" y="80" on="1"/>
        <pt x="542" y="80" on="0"/>
        <pt x="564" y="82" on="1"/>
        <pt x="602" y="84" on="0"/>
        <pt x="624" y="84" on="1"/>
        <pt x="664" y="84" on="1"/>
        <pt x="649" y="0" on="1"/>
        <pt x="341" y="0" on="1"/>
      </contour>
    </TTGlyph>
    <TTGlyph name="Oslash" xMin="8" yMin="-49" xMax="771" yMax="735">
      <contour>
        <pt x="105" y="63" on="1"/>
        <pt x="38" y="128" on="0"/>
        <pt x="38" y="248" on="1"/>
        <pt x="38" y="383" on="0"/>
        <pt x="139" y="587" on="0"/>
        <pt x="322" y="698" on="0"/>
        <pt x="441" y="698" on="1"/>
        <pt x="551" y="698" on="0"/>
        <pt x="621" y="659" on="1"/>
        <pt x="687" y="735" on="1"/>
        <pt x="771" y="735" on="1"/>
        <pt x="673" y="622" on="1"/>
        <pt x="740" y="555" on="0"/>
        <pt x="740" y="436" on="1"/>
        <pt x="740" y="301" on="0"/>
        <pt x="638" y="98" on="0"/>
        <pt x="455" y="-12" on="0"/>
        <pt x="336" y="-12" on="1"/>
        <pt x="226" y="-12" on="0"/>
        <pt x="156" y="25" on="1"/>
        <pt x="92" y="-49" on="1"/>
        <pt x="8" y="-49" on="1"/>
      </contour>
      <contour>
        <pt x="137" y="179" on="0"/>
        <pt x="168" y="136" on="1"/>
        <pt x="563" y="592" on="1"/>
        <pt x="517" y="617" on="0"/>
        <pt x="447" y="617" on="1"/>
        <pt x="355" y="617" on="0"/>
        <pt x="214" y="530" on="0"/>
        <pt x="137" y="368" on="0"/>
        <pt x="137" y="258" on="1"/>
      </contour>
      <contour>
        <pt x="422" y="69" on="0"/>
        <pt x="563" y="155" on="0"/>
        <pt x="642" y="316" on="0"/>
        <pt x="642" y="426" on="1"/>
        <pt x="642" y="503" on="0"/>
        <pt x="610" y="549" on="1"/>
        <pt x="215" y="93" on="1"/>
        <pt x="259" y="69" on="0"/>
        <pt x="330" y="69" on="1"/>
      </contour>
    </TTGlyph>
    <TTGlyph name="Oslashacute" xMin="8" yMin="-49" xMax="771" yMax="869">
      <contour>
        <pt x="490" y="869" on="1"/>
        <pt x="590" y="869" on="1"/>
        <pt x="591" y="866" on="1"/>
        <pt x="460" y="737" on="1"/>
        <pt x="381" y="737" on="1"/>
      </contour>
      <contour>
        <pt x="105" y="63" on="1"/>
        <pt x="38" y="128" on="0"/>
        <pt x="38" y="248" on="1"/>
        <pt x="38" y="383" on="0"/>
        <pt x="139" y="587" on="0"/>
        <pt x="322" y="698" on="0"/>
        <pt x="441" y="698" on="1"/>
        <pt x="551" y="698" on="0"/>
        <pt x="621" y="659" on="1"/>
        <pt x="687" y="735" on="1"/>
        <pt x="771" y="735" on="1"/>
        <pt x="673" y="622" on="1"/>
        <pt x="740" y="555" on="0"/>
        <pt x="740" y="436" on="1"/>
        <pt x="740" y="301" on="0"/>
        <pt x="638" y="98" on="0"/>
        <pt x="455" y="-12" on="0"/>
        <pt x="336" y="-12" on="1"/>
        <pt x="226" y="-12" on="0"/>
        <pt x="156" y="25" on="1"/>
        <pt x="92" y="-49" on="1"/>
        <pt x="8" y="-49" on="1"/>
      </contour>
      <contour>
        <pt x="137" y="179" on="0"/>
        <pt x="168" y="136" on="1"/>
        <pt x="563" y="592" on="1"/>
        <pt x="517" y="617" on="0"/>
        <pt x="447" y="617" on="1"/>
        <pt x="355" y="617" on="0"/>
        <pt x="214" y="530" on="0"/>
        <pt x="137" y="368" on="0"/>
        <pt x="137" y="258" on="1"/>
      </contour>
      <contour>
        <pt x="422" y="69" on="0"/>
        <pt x="563" y="155" on="0"/>
        <pt x="642" y="316" on="0"/>
        <pt x="642" y="426" on="1"/>
        <pt x="642" y="503" on="0"/>
        <pt x="610" y="549" on="1"/>
        <pt x="215" y="93" on="1"/>
        <pt x="259" y="69" on="0"/>
        <pt x="330" y="69" on="1"/>
      </contour>
    </TTGlyph>
    <TTGlyph name="Otilde" xMin="37" yMin="-11" xMax="740" yMax="868">
      <component glyphName="O" x="0" y="0" flags="0x0"/>
      <component glyphName="tilde" x="293" y="145" flags="0x0"/>
    </TTGlyph>
    <TTGlyph name="P" xMin="18" yMin="0" xMax="653" yMax="686">
      <contour>
        <pt x="139" y="686" on="1"/>
        <pt x="463" y="686" on="1"/>
        <pt x="557" y="686" on="0"/>
        <pt x="653" y="590" on="0"/>
        <pt x="653" y="506" on="1"/>
        <pt x="653" y="436" on="0"/>
        <pt x="589" y="325" on="0"/>
        <pt x="477" y="263" on="0"/>
        <pt x="408" y="263" on="1"/>
        <pt x="159" y="263" on="1"/>
        <pt x="113" y="0" on="1"/>
        <pt x="18" y="0" on="1"/>
      </contour>
      <contour>
        <pt x="471" y="346" on="0"/>
        <pt x="556" y="430" on="0"/>
        <pt x="556" y="499" on="1"/>
        <pt x="556" y="549" on="0"/>
        <pt x="504" y="603" on="0"/>
        <pt x="453" y="603" on="1"/>
        <pt x="219" y="603" on="1"/>
        <pt x="174" y="346" on="1"/>
        <pt x="408" y="346" on="1"/>
      </contour>
    </TTGlyph>
    <TTGlyph name="Q" xMin="38" yMin="-130" xMax="740" yMax="698">
      <contour>
        <pt x="192" y="-12" on="0"/>
        <pt x="38" y="119" on="0"/>
        <pt x="38" y="248" on="1"/>
        <pt x="38" y="383" on="0"/>
        <pt x="139" y="587" on="0"/>
        <pt x="322" y="698" on="0"/>
        <pt x="441" y="698" on="1"/>
        <pt x="585" y="698" on="0"/>
        <pt x="740" y="566" on="0"/>
        <pt x="740" y="436" on="1"/>
        <pt x="740" y="279" on="0"/>
        <pt x="603" y="56" on="0"/>
        <pt x="484" y="13" on="1"/>
        <pt x="607" y="-130" on="1"/>
        <pt x="486" y="-130" on="1"/>
        <pt x="386" y="-9" on="1"/>
        <pt x="362" y="-12" on="0"/>
        <pt x="336" y="-12" on="1"/>
      </contour>
      <contour>
        <pt x="422" y="69" on="0"/>
        <pt x="563" y="155" on="0"/>
        <pt x="642" y="316" on="0"/>
        <pt x="642" y="426" on="1"/>
        <pt x="642" y="526" on="0"/>
        <pt x="542" y="617" on="0"/>
        <pt x="447" y="617" on="1"/>
        <pt x="355" y="617" on="0"/>
        <pt x="214" y="530" on="0"/>
        <pt x="137" y="368" on="0"/>
        <pt x="137" y="258" on="1"/>
        <pt x="137" y="160" on="0"/>
        <pt x="236" y="69" on="0"/>
        <pt x="330" y="69" on="1"/>
      </contour>
    </TTGlyph>
    <TTGlyph name="R" xMin="18" yMin="0" xMax="679" yMax="686">
      <contour>
        <pt x="139" y="686" on="1"/>
        <pt x="486" y="686" on="1"/>
        <pt x="581" y="686" on="0"/>
        <pt x="679" y="593" on="0"/>
        <pt x="679" y="513" on="1"/>
        <pt x="679" y="435" on="0"/>
        <pt x="588" y="317" on="0"/>
        <pt x="515" y="295" on="1"/>
        <pt x="620" y="0" on="1"/>
        <pt x="518" y="0" on="1"/>
        <pt x="419" y="283" on="1"/>
        <pt x="163" y="283" on="1"/>
        <pt x="113" y="0" on="1"/>
        <pt x="18" y="0" on="1"/>
      </contour>
      <contour>
        <pt x="497" y="366" on="0"/>
        <pt x="581" y="443" on="0"/>
        <pt x="581" y="508" on="1"/>
        <pt x="581" y="554" on="0"/>
        <pt x="528" y="603" on="0"/>
        <pt x="476" y="603" on="1"/>
        <pt x="219" y="603" on="1"/>
        <pt x="178" y="366" on="1"/>
        <pt x="435" y="366" on="1"/>
      </contour>
    </TTGlyph>
    <TTGlyph name="Racute" xMin="18" yMin="0" xMax="679" yMax="868">
      <component glyphName="R" x="0" y="0" flags="0x0"/>
      <component glyphName="acute" x="341" y="145" flags="0x0"/>
    </TTGlyph>
    <TTGlyph name="Rcaron" xMin="18" yMin="0" xMax="679" yMax="868">
      <component glyphName="R" x="0" y="0" flags="0x0"/>
      <component glyphName="caron" x="293" y="145" flags="0x0"/>
    </TTGlyph>
    <TTGlyph name="Rcommaaccent" xMin="18" yMin="-230" xMax="679" yMax="686">
      <component glyphName="R" x="0" y="0" flags="0x0"/>
      <component glyphName="uni0326" x="402" y="0" flags="0x0"/>
    </TTGlyph>
    <TTGlyph name="S" xMin="19" yMin="-12" xMax="627" yMax="698">
      <contour>
        <pt x="533" y="508" on="0"/>
        <pt x="533" y="524" on="1"/>
        <pt x="533" y="568" on="0"/>
        <pt x="452" y="617" on="0"/>
        <pt x="384" y="617" on="1"/>
        <pt x="300" y="617" on="0"/>
        <pt x="192" y="563" on="0"/>
        <pt x="192" y="511" on="1"/>
        <pt x="192" y="480" on="0"/>
        <pt x="237" y="438" on="0"/>
        <pt x="305" y="412" on="0"/>
        <pt x="363" y="396" on="1"/>
        <pt x="437" y="375" on="0"/>
        <pt x="528" y="337" on="0"/>
        <pt x="593" y="266" on="0"/>
        <pt x="593" y="209" on="1"/>
        <pt x="593" y="133" on="0"/>
        <pt x="508" y="34" on="0"/>
        <pt x="370" y="-12" on="0"/>
        <pt x="289" y="-12" on="1"/>
        <pt x="167" y="-12" on="0"/>
        <pt x="19" y="68" on="0"/>
        <pt x="19" y="155" on="1"/>
        <pt x="19" y="190" on="0"/>
        <pt x="27" y="214" on="1"/>
        <pt x="121" y="214" on="1"/>
        <pt x="113" y="187" on="0"/>
        <pt x="113" y="171" on="1"/>
        <pt x="113" y="121" on="0"/>
        <pt x="202" y="69" on="0"/>
        <pt x="278" y="69" on="1"/>
        <pt x="377" y="69" on="0"/>
        <pt x="493" y="135" on="0"/>
        <pt x="493" y="195" on="1"/>
        <pt x="493" y="228" on="0"/>
        <pt x="447" y="272" on="0"/>
        <pt x="378" y="299" on="0"/>
        <pt x="319" y="316" on="1"/>
        <pt x="247" y="336" on="0"/>
        <pt x="156" y="374" on="0"/>
        <pt x="93" y="444" on="0"/>
        <pt x="93" y="500" on="1"/>
        <pt x="93" y="565" on="0"/>
        <pt x="172" y="654" on="0"/>
        <pt x="301" y="698" on="0"/>
        <pt x="375" y="698" on="1"/>
        <pt x="490" y="698" on="0"/>
        <pt x="627" y="621" on="0"/>
        <pt x="627" y="542" on="1"/>
        <pt x="627" y="518" on="0"/>
        <pt x="622" y="493" on="1"/>
        <pt x="529" y="493" on="1"/>
      </contour>
    </TTGlyph>
    <TTGlyph name="Sacute" xMin="19" yMin="-12" xMax="627" yMax="868">
      <component glyphName="S" x="0" y="0" flags="0x0"/>
      <component glyphName="acute" x="314" y="145" flags="0x0"/>
    </TTGlyph>
    <TTGlyph name="Sacute.loclPLK" xMin="19" yMin="-12" xMax="627" yMax="868">
      <component glyphName="S" x="0" y="0" flags="0x0"/>
      <component glyphName="acute.loclPLK" x="207" y="145" flags="0x0"/>
    </TTGlyph>
    <TTGlyph name="Scaron" xMin="19" yMin="-12" xMax="627" yMax="868">
      <component glyphName="S" x="0" y="0" flags="0x0"/>
      <component glyphName="caron" x="266" y="145" flags="0x0"/>
    </TTGlyph>
    <TTGlyph name="Scedilla" xMin="19" yMin="-182" xMax="627" yMax="698">
      <contour>
        <pt x="252" y="-11" on="1"/>
        <pt x="145" y="-5" on="0"/>
        <pt x="19" y="75" on="0"/>
        <pt x="19" y="155" on="1"/>
        <pt x="19" y="190" on="0"/>
        <pt x="27" y="214" on="1"/>
        <pt x="121" y="214" on="1"/>
        <pt x="113" y="187" on="0"/>
        <pt x="113" y="171" on="1"/>
        <pt x="113" y="121" on="0"/>
        <pt x="202" y="69" on="0"/>
        <pt x="278" y="69" on="1"/>
        <pt x="377" y="69" on="0"/>
        <pt x="493" y="135" on="0"/>
        <pt x="493" y="195" on="1"/>
        <pt x="493" y="228" on="0"/>
        <pt x="447" y="272" on="0"/>
        <pt x="378" y="299" on="0"/>
        <pt x="319" y="316" on="1"/>
        <pt x="247" y="336" on="0"/>
        <pt x="156" y="374" on="0"/>
        <pt x="93" y="444" on="0"/>
        <pt x="93" y="500" on="1"/>
        <pt x="93" y="565" on="0"/>
        <pt x="172" y="654" on="0"/>
        <pt x="301" y="698" on="0"/>
        <pt x="375" y="698" on="1"/>
        <pt x="490" y="698" on="0"/>
        <pt x="627" y="621" on="0"/>
        <pt x="627" y="542" on="1"/>
        <pt x="627" y="518" on="0"/>
        <pt x="622" y="493" on="1"/>
        <pt x="529" y="493" on="1"/>
        <pt x="533" y="508" on="0"/>
        <pt x="533" y="524" on="1"/>
        <pt x="533" y="568" on="0"/>
        <pt x="452" y="617" on="0"/>
        <pt x="384" y="617" on="1"/>
        <pt x="300" y="617" on="0"/>
        <pt x="192" y="563" on="0"/>
        <pt x="192" y="511" on="1"/>
        <pt x="192" y="480" on="0"/>
        <pt x="237" y="438" on="0"/>
        <pt x="305" y="412" on="0"/>
        <pt x="363" y="396" on="1"/>
        <pt x="437" y="375" on="0"/>
        <pt x="528" y="337" on="0"/>
        <pt x="593" y="266" on="0"/>
        <pt x="593" y="209" on="1"/>
        <pt x="593" y="103" on="0"/>
        <pt x="433" y="-6" on="0"/>
        <pt x="314" y="-11" on="1"/>
        <pt x="305" y="-36" on="1"/>
        <pt x="341" y="-36" on="0"/>
        <pt x="387" y="-65" on="0"/>
        <pt x="387" y="-94" on="1"/>
        <pt x="387" y="-182" on="0"/>
        <pt x="263" y="-182" on="1"/>
        <pt x="205" y="-182" on="0"/>
        <pt x="160" y="-174" on="1"/>
        <pt x="169" y="-125" on="1"/>
        <pt x="269" y="-125" on="1"/>
        <pt x="291" y="-125" on="0"/>
        <pt x="314" y="-112" on="0"/>
        <pt x="314" y="-95" on="1"/>
        <pt x="314" y="-86" on="0"/>
        <pt x="298" y="-77" on="0"/>
        <pt x="279" y="-77" on="1"/>
        <pt x="228" y="-77" on="1"/>
      </contour>
    </TTGlyph>
    <TTGlyph name="Scircumflex" xMin="19" yMin="-12" xMax="627" yMax="868">
      <component glyphName="S" x="0" y="0" flags="0x0"/>
      <component glyphName="circumflex" x="261" y="145" flags="0x0"/>
    </TTGlyph>
    <TTGlyph name="Scommaaccent" xMin="19" yMin="-230" xMax="627" yMax="698">
      <component glyphName="S" x="0" y="0" flags="0x0"/>
      <component glyphName="uni0326" x="375" y="0" flags="0x0"/>
    </TTGlyph>
    <TTGlyph name="T" xMin="67" yMin="0" xMax="649" yMax="686">
      <contour>
        <pt x="303" y="603" on="1"/>
        <pt x="67" y="603" on="1"/>
        <pt x="82" y="686" on="1"/>
        <pt x="649" y="686" on="1"/>
        <pt x="634" y="603" on="1"/>
        <pt x="398" y="603" on="1"/>
        <pt x="292" y="0" on="1"/>
        <pt x="197" y="0" on="1"/>
      </contour>
    </TTGlyph>
    <TTGlyph name="Tbar" xMin="67" yMin="0" xMax="649" yMax="686">
      <contour>
        <pt x="264" y="381" on="1"/>
        <pt x="159" y="381" on="1"/>
        <pt x="172" y="453" on="1"/>
        <pt x="277" y="453" on="1"/>
        <pt x="303" y="603" on="1"/>
        <pt x="67" y="603" on="1"/>
        <pt x="82" y="686" on="1"/>
        <pt x="649" y="686" on="1"/>
        <pt x="634" y="603" on="1"/>
        <pt x="398" y="603" on="1"/>
        <pt x="372" y="453" on="1"/>
        <pt x="477" y="453" on="1"/>
        <pt x="464" y="381" on="1"/>
        <pt x="359" y="381" on="1"/>
        <pt x="292" y="0" on="1"/>
        <pt x="197" y="0" on="1"/>
      </contour>
    </TTGlyph>
    <TTGlyph name="Tcaron" xMin="67" yMin="0" xMax="649" yMax="868">
      <component glyphName="T" x="0" y="0" flags="0x0"/>
      <component glyphName="caron" x="218" y="145" flags="0x0"/>
    </TTGlyph>
    <TTGlyph name="Thorn" xMin="18" yMin="0" xMax="632" yMax="686">
      <contour>
        <pt x="139" y="686" on="1"/>
        <pt x="234" y="686" on="1"/>
        <pt x="213" y="567" on="1"/>
        <pt x="442" y="567" on="1"/>
        <pt x="536" y="567" on="0"/>
        <pt x="632" y="471" on="0"/>
        <pt x="632" y="387" on="1"/>
        <pt x="632" y="317" on="0"/>
        <pt x="568" y="206" on="0"/>
        <pt x="456" y="144" on="0"/>
        <pt x="387" y="144" on="1"/>
        <pt x="138" y="144" on="1"/>
        <pt x="113" y="0" on="1"/>
        <pt x="18" y="0" on="1"/>
      </contour>
      <contour>
        <pt x="153" y="227" on="1"/>
        <pt x="387" y="227" on="1"/>
        <pt x="450" y="227" on="0"/>
        <pt x="535" y="311" on="0"/>
        <pt x="535" y="380" on="1"/>
        <pt x="535" y="430" on="0"/>
        <pt x="483" y="484" on="0"/>
        <pt x="432" y="484" on="1"/>
        <pt x="198" y="484" on="1"/>
      </contour>
    </TTGlyph>
    <TTGlyph name="U" xMin="60" yMin="-12" xMax="704" yMax="686">
      <contour>
        <pt x="704" y="686" on="1"/>
        <pt x="628" y="253" on="1"/>
        <pt x="581" y="-12" on="0"/>
        <pt x="318" y="-12" on="1"/>
        <pt x="194" y="-12" on="0"/>
        <pt x="60" y="96" on="0"/>
        <pt x="60" y="198" on="1"/>
        <pt x="60" y="228" on="0"/>
        <pt x="66" y="261" on="1"/>
        <pt x="140" y="686" on="1"/>
        <pt x="235" y="686" on="1"/>
        <pt x="160" y="256" on="1"/>
        <pt x="155" y="226" on="0"/>
        <pt x="155" y="207" on="1"/>
        <pt x="155" y="139" on="0"/>
        <pt x="238" y="69" on="0"/>
        <pt x="315" y="69" on="1"/>
        <pt x="404" y="69" on="0"/>
        <pt x="516" y="160" on="0"/>
        <pt x="532" y="248" on="1"/>
        <pt x="609" y="686" on="1"/>
      </contour>
    </TTGlyph>
    <TTGlyph name="Uacute" xMin="60" yMin="-12" xMax="704" yMax="868">
      <component glyphName="U" x="0" y="0" flags="0x0"/>
      <component glyphName="acute" x="341" y="145" flags="0x0"/>
    </TTGlyph>
    <TTGlyph name="Ubreve" xMin="60" yMin="-12" xMax="704" yMax="868">
      <component glyphName="U" x="0" y="0" flags="0x0"/>
      <component glyphName="breve" x="285" y="145" flags="0x0"/>
    </TTGlyph>
    <TTGlyph name="Ucircumflex" xMin="60" yMin="-12" xMax="704" yMax="868">
      <component glyphName="U" x="0" y="0" flags="0x0"/>
      <component glyphName="circumflex" x="288" y="145" flags="0x0"/>
    </TTGlyph>
    <TTGlyph name="Udieresis" xMin="60" yMin="-12" xMax="704" yMax="868">
      <component glyphName="U" x="0" y="0" flags="0x0"/>
      <component glyphName="dieresis" x="296" y="145" flags="0x0"/>
    </TTGlyph>
    <TTGlyph name="Ugrave" xMin="60" yMin="-12" xMax="704" yMax="868">
      <component glyphName="U" x="0" y="0" flags="0x0"/>
      <component glyphName="grave" x="239" y="145" flags="0x0"/>
    </TTGlyph>
    <TTGlyph name="Uhorn" xMin="60" yMin="-12" xMax="837" yMax="868">
      <contour>
        <pt x="837" y="868" on="1"/>
        <pt x="828" y="814" on="1"/>
        <pt x="808" y="680" on="0"/>
        <pt x="695" y="634" on="1"/>
        <pt x="628" y="253" on="1"/>
        <pt x="581" y="-12" on="0"/>
        <pt x="318" y="-12" on="1"/>
        <pt x="194" y="-12" on="0"/>
        <pt x="60" y="96" on="0"/>
        <pt x="60" y="198" on="1"/>
        <pt x="60" y="228" on="0"/>
        <pt x="66" y="261" on="1"/>
        <pt x="140" y="686" on="1"/>
        <pt x="235" y="686" on="1"/>
        <pt x="160" y="256" on="1"/>
        <pt x="155" y="226" on="0"/>
        <pt x="155" y="207" on="1"/>
        <pt x="155" y="139" on="0"/>
        <pt x="238" y="69" on="0"/>
        <pt x="315" y="69" on="1"/>
        <pt x="404" y="69" on="0"/>
        <pt x="516" y="160" on="0"/>
        <pt x="532" y="248" on="1"/>
        <pt x="609" y="686" on="1"/>
        <pt x="678" y="686" on="1"/>
        <pt x="732" y="707" on="0"/>
        <pt x="752" y="760" on="1"/>
        <pt x="708" y="760" on="1"/>
        <pt x="727" y="868" on="1"/>
      </contour>
    </TTGlyph>
    <TTGlyph name="Uhungarumlaut" xMin="60" yMin="-12" xMax="704" yMax="868">
      <component glyphName="U" x="0" y="0" flags="0x0"/>
      <component glyphName="hungarumlaut" x="321" y="145" flags="0x0"/>
    </TTGlyph>
    <TTGlyph name="Umacron" xMin="60" yMin="-12" xMax="704" yMax="835">
      <contour>
        <pt x="290" y="835" on="1"/>
        <pt x="595" y="835" on="1"/>
        <pt x="582" y="763" on="1"/>
        <pt x="277" y="763" on="1"/>
      </contour>
      <contour>
        <pt x="704" y="686" on="1"/>
        <pt x="628" y="253" on="1"/>
        <pt x="581" y="-12" on="0"/>
        <pt x="318" y="-12" on="1"/>
        <pt x="194" y="-12" on="0"/>
        <pt x="60" y="96" on="0"/>
        <pt x="60" y="198" on="1"/>
        <pt x="60" y="228" on="0"/>
        <pt x="66" y="261" on="1"/>
        <pt x="140" y="686" on="1"/>
        <pt x="235" y="686" on="1"/>
        <pt x="160" y="256" on="1"/>
        <pt x="155" y="226" on="0"/>
        <pt x="155" y="207" on="1"/>
        <pt x="155" y="139" on="0"/>
        <pt x="238" y="69" on="0"/>
        <pt x="315" y="69" on="1"/>
        <pt x="404" y="69" on="0"/>
        <pt x="516" y="160" on="0"/>
        <pt x="532" y="248" on="1"/>
        <pt x="609" y="686" on="1"/>
      </contour>
    </TTGlyph>
    <TTGlyph name="Uogonek" xMin="60" yMin="-182" xMax="704" yMax="686">
      <contour>
        <pt x="358" y="-182" on="0"/>
        <pt x="330" y="-182" on="1"/>
        <pt x="294" y="-182" on="0"/>
        <pt x="242" y="-147" on="0"/>
        <pt x="242" y="-108" on="1"/>
        <pt x="242" y="-55" on="0"/>
        <pt x="290" y="-11" on="1"/>
        <pt x="178" y="-5" on="0"/>
        <pt x="60" y="102" on="0"/>
        <pt x="60" y="198" on="1"/>
        <pt x="60" y="228" on="0"/>
        <pt x="66" y="261" on="1"/>
        <pt x="140" y="686" on="1"/>
        <pt x="235" y="686" on="1"/>
        <pt x="160" y="256" on="1"/>
        <pt x="155" y="226" on="0"/>
        <pt x="155" y="207" on="1"/>
        <pt x="155" y="139" on="0"/>
        <pt x="238" y="69" on="0"/>
        <pt x="315" y="69" on="1"/>
        <pt x="404" y="69" on="0"/>
        <pt x="516" y="160" on="0"/>
        <pt x="532" y="248" on="1"/>
        <pt x="609" y="686" on="1"/>
        <pt x="704" y="686" on="1"/>
        <pt x="628" y="253" on="1"/>
        <pt x="585" y="9" on="0"/>
        <pt x="358" y="-10" on="1"/>
        <pt x="344" y="-24" on="0"/>
        <pt x="327" y="-58" on="0"/>
        <pt x="327" y="-76" on="1"/>
        <pt x="327" y="-94" on="0"/>
        <pt x="348" y="-117" on="0"/>
        <pt x="371" y="-117" on="1"/>
        <pt x="403" y="-117" on="1"/>
        <pt x="394" y="-168" on="1"/>
      </contour>
    </TTGlyph>
    <TTGlyph name="Uring" xMin="60" yMin="-12" xMax="704" yMax="903">
      <component glyphName="U" x="0" y="0" flags="0x0"/>
      <component glyphName="ring" x="289" y="145" flags="0x0"/>
    </TTGlyph>
    <TTGlyph name="Utilde" xMin="60" yMin="-12" xMax="704" yMax="868">
      <component glyphName="U" x="0" y="0" flags="0x0"/>
      <component glyphName="tilde" x="295" y="145" flags="0x0"/>
    </TTGlyph>
    <TTGlyph name="V" xMin="76" yMin="0" xMax="711" yMax="686">
      <contour>
        <pt x="76" y="686" on="1"/>
        <pt x="176" y="686" on="1"/>
        <pt x="287" y="95" on="1"/>
        <pt x="292" y="95" on="1"/>
        <pt x="610" y="686" on="1"/>
        <pt x="711" y="686" on="1"/>
        <pt x="335" y="0" on="1"/>
        <pt x="210" y="0" on="1"/>
      </contour>
    </TTGlyph>
    <TTGlyph name="W" xMin="71" yMin="0" xMax="993" yMax="686">
      <contour>
        <pt x="520" y="481" on="1"/>
        <pt x="518" y="517" on="0"/>
        <pt x="517" y="582" on="0"/>
        <pt x="517" y="593" on="1"/>
        <pt x="512" y="593" on="1"/>
        <pt x="508" y="581" on="0"/>
        <pt x="485" y="514" on="0"/>
        <pt x="472" y="481" on="1"/>
        <pt x="279" y="0" on="1"/>
        <pt x="148" y="0" on="1"/>
        <pt x="71" y="686" on="1"/>
        <pt x="167" y="686" on="1"/>
        <pt x="220" y="202" on="1"/>
        <pt x="223" y="175" on="0"/>
        <pt x="226" y="110" on="0"/>
        <pt x="227" y="97" on="1"/>
        <pt x="232" y="97" on="1"/>
        <pt x="237" y="111" on="0"/>
        <pt x="262" y="180" on="0"/>
        <pt x="271" y="202" on="1"/>
        <pt x="462" y="686" on="1"/>
        <pt x="602" y="686" on="1"/>
        <pt x="627" y="202" on="1"/>
        <pt x="628" y="172" on="0"/>
        <pt x="629" y="109" on="0"/>
        <pt x="629" y="97" on="1"/>
        <pt x="634" y="97" on="1"/>
        <pt x="680" y="202" on="1"/>
        <pt x="898" y="686" on="1"/>
        <pt x="993" y="686" on="1"/>
        <pt x="674" y="0" on="1"/>
        <pt x="543" y="0" on="1"/>
      </contour>
    </TTGlyph>
    <TTGlyph name="Wacute" xMin="71" yMin="0" xMax="993" yMax="868">
      <component glyphName="W" x="0" y="0" flags="0x0"/>
      <component glyphName="acute" x="452" y="145" flags="0x0"/>
    </TTGlyph>
    <TTGlyph name="Wcircumflex" xMin="71" yMin="0" xMax="993" yMax="868">
      <component glyphName="W" x="0" y="0" flags="0x0"/>
      <component glyphName="circumflex" x="399" y="145" flags="0x0"/>
    </TTGlyph>
    <TTGlyph name="Wdieresis" xMin="71" yMin="0" xMax="993" yMax="868">
      <component glyphName="W" x="0" y="0" flags="0x0"/>
      <component glyphName="dieresis" x="407" y="145" flags="0x0"/>
    </TTGlyph>
    <TTGlyph name="Wgrave" xMin="71" yMin="0" xMax="993" yMax="868">
      <component glyphName="W" x="0" y="0" flags="0x0"/>
      <component glyphName="grave" x="350" y="145" flags="0x0"/>
    </TTGlyph>
    <TTGlyph name="X" xMin="-55" yMin="0" xMax="695" yMax="686">
      <contour>
        <pt x="325" y="286" on="1"/>
        <pt x="61" y="0" on="1"/>
        <pt x="-55" y="0" on="1"/>
        <pt x="278" y="362" on="1"/>
        <pt x="89" y="686" on="1"/>
        <pt x="200" y="686" on="1"/>
        <pt x="348" y="433" on="1"/>
        <pt x="384" y="472" on="0"/>
        <pt x="542" y="646" on="0"/>
        <pt x="578" y="686" on="1"/>
        <pt x="695" y="686" on="1"/>
        <pt x="648" y="634" on="0"/>
        <pt x="439" y="408" on="0"/>
        <pt x="392" y="357" on="1"/>
        <pt x="601" y="0" on="1"/>
        <pt x="490" y="0" on="1"/>
      </contour>
    </TTGlyph>
    <TTGlyph name="Y" xMin="76" yMin="0" xMax="712" yMax="686">
      <contour>
        <pt x="276" y="284" on="1"/>
        <pt x="76" y="686" on="1"/>
        <pt x="180" y="686" on="1"/>
        <pt x="336" y="369" on="1"/>
        <pt x="341" y="369" on="1"/>
        <pt x="603" y="686" on="1"/>
        <pt x="712" y="686" on="1"/>
        <pt x="371" y="284" on="1"/>
        <pt x="321" y="0" on="1"/>
        <pt x="226" y="0" on="1"/>
      </contour>
    </TTGlyph>
    <TTGlyph name="Y.loclGUA" xMin="45" yMin="-12" xMax="650" yMax="686">
      <contour>
        <pt x="409" y="188" on="0"/>
        <pt x="272" y="188" on="1"/>
        <pt x="182" y="188" on="0"/>
        <pt x="86" y="268" on="0"/>
        <pt x="86" y="352" on="1"/>
        <pt x="86" y="380" on="0"/>
        <pt x="92" y="413" on="1"/>
        <pt x="141" y="686" on="1"/>
        <pt x="236" y="686" on="1"/>
        <pt x="187" y="408" on="1"/>
        <pt x="183" y="389" on="0"/>
        <pt x="183" y="370" on="1"/>
        <pt x="183" y="320" on="0"/>
        <pt x="243" y="269" on="0"/>
        <pt x="301" y="269" on="1"/>
        <pt x="385" y="269" on="0"/>
        <pt x="499" y="372" on="0"/>
        <pt x="516" y="468" on="1"/>
        <pt x="555" y="686" on="1"/>
        <pt x="650" y="686" on="1"/>
        <pt x="607" y="443" on="1"/>
        <pt x="571" y="243" on="1"/>
        <pt x="548" y="109" on="0"/>
        <pt x="400" y="-12" on="0"/>
        <pt x="272" y="-12" on="1"/>
        <pt x="167" y="-12" on="0"/>
        <pt x="45" y="73" on="0"/>
        <pt x="45" y="158" on="1"/>
        <pt x="45" y="168" on="1"/>
        <pt x="143" y="168" on="1"/>
        <pt x="143" y="117" on="0"/>
        <pt x="210" y="69" on="0"/>
        <pt x="282" y="69" on="1"/>
        <pt x="363" y="69" on="0"/>
        <pt x="461" y="151" on="0"/>
        <pt x="476" y="238" on="1"/>
        <pt x="484" y="283" on="1"/>
        <pt x="478" y="283" on="1"/>
      </contour>
    </TTGlyph>
    <TTGlyph name="Yacute" xMin="76" yMin="0" xMax="712" yMax="868">
      <component glyphName="Y" x="0" y="0" flags="0x0"/>
      <component glyphName="acute" x="314" y="145" flags="0x0"/>
    </TTGlyph>
    <TTGlyph name="Yacute.loclGUA" xMin="45" yMin="-12" xMax="650" yMax="868">
      <component glyphName="Y.loclGUA" x="0" y="0" flags="0x0"/>
      <component glyphName="acute" x="314" y="145" flags="0x0"/>
    </TTGlyph>
    <TTGlyph name="Ycircumflex" xMin="76" yMin="0" xMax="712" yMax="868">
      <component glyphName="Y" x="0" y="0" flags="0x0"/>
      <component glyphName="circumflex" x="261" y="145" flags="0x0"/>
    </TTGlyph>
    <TTGlyph name="Ycircumflex.loclGUA" xMin="45" yMin="-12" xMax="650" yMax="868">
      <component glyphName="Y.loclGUA" x="0" y="0" flags="0x0"/>
      <component glyphName="circumflex" x="261" y="145" flags="0x0"/>
    </TTGlyph>
    <TTGlyph name="Ydieresis" xMin="76" yMin="0" xMax="712" yMax="868">
      <component glyphName="Y" x="0" y="0" flags="0x0"/>
      <component glyphName="dieresis" x="269" y="145" flags="0x0"/>
    </TTGlyph>
    <TTGlyph name="Ydieresis.loclGUA" xMin="45" yMin="-12" xMax="650" yMax="868">
      <component glyphName="Y.loclGUA" x="0" y="0" flags="0x0"/>
      <component glyphName="dieresis" x="269" y="145" flags="0x0"/>
    </TTGlyph>
    <TTGlyph name="Ygrave" xMin="76" yMin="0" xMax="712" yMax="868">
      <component glyphName="Y" x="0" y="0" flags="0x0"/>
      <component glyphName="grave" x="212" y="145" flags="0x0"/>
    </TTGlyph>
    <TTGlyph name="Ygrave.loclGUA" xMin="45" yMin="-12" xMax="650" yMax="868">
      <component glyphName="Y.loclGUA" x="0" y="0" flags="0x0"/>
      <component glyphName="grave" x="212" y="145" flags="0x0"/>
    </TTGlyph>
    <TTGlyph name="Z" xMin="-37" yMin="0" xMax="640" yMax="686">
      <contour>
        <pt x="-28" y="49" on="1"/>
        <pt x="475" y="603" on="1"/>
        <pt x="94" y="603" on="1"/>
        <pt x="109" y="686" on="1"/>
        <pt x="640" y="686" on="1"/>
        <pt x="631" y="637" on="1"/>
        <pt x="126" y="83" on="1"/>
        <pt x="543" y="83" on="1"/>
        <pt x="528" y="0" on="1"/>
        <pt x="-37" y="0" on="1"/>
      </contour>
    </TTGlyph>
    <TTGlyph name="Zacute" xMin="-37" yMin="0" xMax="640" yMax="868">
      <component glyphName="Z" x="0" y="0" flags="0x0"/>
      <component glyphName="acute" x="286" y="145" flags="0x0"/>
    </TTGlyph>
    <TTGlyph name="Zacute.loclPLK" xMin="-37" yMin="0" xMax="640" yMax="868">
      <component glyphName="Z" x="0" y="0" flags="0x0"/>
      <component glyphName="acute.loclPLK" x="179" y="145" flags="0x0"/>
    </TTGlyph>
    <TTGlyph name="Zcaron" xMin="-37" yMin="0" xMax="640" yMax="868">
      <component glyphName="Z" x="0" y="0" flags="0x0"/>
      <component glyphName="caron" x="238" y="145" flags="0x0"/>
    </TTGlyph>
    <TTGlyph name="Zdotaccent" xMin="-37" yMin="0" xMax="640" yMax="868">
      <component glyphName="Z" x="0" y="0" flags="0x0"/>
      <component glyphName="dotaccent" x="241" y="145" flags="0x0"/>
    </TTGlyph>
    <TTGlyph name="a" xMin="21" yMin="-12" xMax="519" yMax="538">
      <contour>
        <pt x="507" y="460" on="0"/>
        <pt x="440" y="97" on="0"/>
        <pt x="440" y="88" on="1"/>
        <pt x="440" y="61" on="0"/>
        <pt x="470" y="61" on="1"/>
        <pt x="510" y="61" on="1"/>
        <pt x="500" y="4" on="1"/>
        <pt x="490" y="-2" on="0"/>
        <pt x="455" y="-12" on="0"/>
        <pt x="434" y="-12" on="1"/>
        <pt x="400" y="-12" on="0"/>
        <pt x="361" y="23" on="0"/>
        <pt x="361" y="59" on="1"/>
        <pt x="361" y="65" on="0"/>
        <pt x="363" y="83" on="1"/>
        <pt x="357" y="83" on="1"/>
        <pt x="330" y="37" on="0"/>
        <pt x="238" y="-12" on="0"/>
        <pt x="186" y="-12" on="1"/>
        <pt x="109" y="-12" on="0"/>
        <pt x="21" y="85" on="0"/>
        <pt x="21" y="179" on="1"/>
        <pt x="21" y="286" on="0"/>
        <pt x="87" y="449" on="0"/>
        <pt x="202" y="538" on="0"/>
        <pt x="273" y="538" on="1"/>
        <pt x="328" y="538" on="0"/>
        <pt x="396" y="504" on="0"/>
        <pt x="415" y="466" on="1"/>
        <pt x="421" y="466" on="1"/>
        <pt x="452" y="526" on="1"/>
        <pt x="519" y="526" on="1"/>
      </contour>
      <contour>
        <pt x="271" y="61" on="0"/>
        <pt x="354" y="151" on="0"/>
        <pt x="392" y="280" on="0"/>
        <pt x="392" y="341" on="1"/>
        <pt x="392" y="403" on="0"/>
        <pt x="341" y="465" on="0"/>
        <pt x="285" y="465" on="1"/>
        <pt x="230" y="465" on="0"/>
        <pt x="152" y="389" on="0"/>
        <pt x="113" y="261" on="0"/>
        <pt x="113" y="184" on="1"/>
        <pt x="113" y="61" on="0"/>
        <pt x="208" y="61" on="1"/>
      </contour>
    </TTGlyph>
    <TTGlyph name="aacute" xMin="21" yMin="-12" xMax="519" yMax="723">
      <component glyphName="a" x="0" y="0" flags="0x0"/>
      <component glyphName="acute" x="210" y="0" flags="0x0"/>
    </TTGlyph>
    <TTGlyph name="abreve" xMin="21" yMin="-12" xMax="519" yMax="723">
      <component glyphName="a" x="0" y="0" flags="0x0"/>
      <component glyphName="breve" x="154" y="0" flags="0x0"/>
    </TTGlyph>
    <TTGlyph name="acircumflex" xMin="21" yMin="-12" xMax="519" yMax="723">
      <component glyphName="a" x="0" y="0" flags="0x0"/>
      <component glyphName="circumflex" x="157" y="0" flags="0x0"/>
    </TTGlyph>
    <TTGlyph name="acute" xMin="63" yMin="591" xMax="273" yMax="723">
      <contour>
        <pt x="171" y="723" on="1"/>
        <pt x="272" y="723" on="1"/>
        <pt x="273" y="720" on="1"/>
        <pt x="149" y="591" on="1"/>
        <pt x="63" y="591" on="1"/>
      </contour>
    </TTGlyph>
    <TTGlyph name="acute.loclPLK" xMin="164" yMin="591" xMax="307" yMax="723">
      <contour>
        <pt x="210" y="723" on="1"/>
        <pt x="306" y="723" on="1"/>
        <pt x="307" y="720" on="1"/>
        <pt x="239" y="591" on="1"/>
        <pt x="164" y="591" on="1"/>
      </contour>
    </TTGlyph>
    <TTGlyph name="adieresis" xMin="21" yMin="-12" xMax="519" yMax="723">
      <component glyphName="a" x="0" y="0" flags="0x0"/>
      <component glyphName="dieresis" x="165" y="0" flags="0x0"/>
    </TTGlyph>
    <TTGlyph name="ae" xMin="-5" yMin="-12" xMax="847" yMax="538">
      <contour>
        <pt x="437" y="-12" on="0"/>
        <pt x="390" y="81" on="1"/>
        <pt x="346" y="33" on="0"/>
        <pt x="231" y="-12" on="0"/>
        <pt x="166" y="-12" on="1"/>
        <pt x="96" y="-12" on="0"/>
        <pt x="-5" y="42" on="0"/>
        <pt x="-5" y="116" on="1"/>
        <pt x="-5" y="228" on="0"/>
        <pt x="203" y="312" on="0"/>
        <pt x="381" y="312" on="1"/>
        <pt x="391" y="370" on="1"/>
        <pt x="393" y="388" on="0"/>
        <pt x="393" y="395" on="1"/>
        <pt x="393" y="429" on="0"/>
        <pt x="344" y="465" on="0"/>
        <pt x="286" y="465" on="1"/>
        <pt x="222" y="465" on="0"/>
        <pt x="159" y="418" on="0"/>
        <pt x="152" y="382" on="1"/>
        <pt x="150" y="370" on="1"/>
        <pt x="65" y="370" on="1"/>
        <pt x="65" y="423" on="0"/>
        <pt x="128" y="499" on="0"/>
        <pt x="233" y="538" on="0"/>
        <pt x="297" y="538" on="1"/>
        <pt x="421" y="538" on="0"/>
        <pt x="463" y="471" on="1"/>
        <pt x="533" y="538" on="0"/>
        <pt x="646" y="538" on="1"/>
        <pt x="743" y="538" on="0"/>
        <pt x="847" y="446" on="0"/>
        <pt x="847" y="357" on="1"/>
        <pt x="847" y="326" on="0"/>
        <pt x="839" y="283" on="1"/>
        <pt x="831" y="239" on="1"/>
        <pt x="460" y="239" on="1"/>
        <pt x="457" y="225" on="0"/>
        <pt x="457" y="201" on="1"/>
        <pt x="457" y="130" on="0"/>
        <pt x="523" y="61" on="0"/>
        <pt x="592" y="61" on="1"/>
        <pt x="647" y="61" on="0"/>
        <pt x="726" y="119" on="0"/>
        <pt x="735" y="179" on="1"/>
        <pt x="821" y="179" on="1"/>
        <pt x="807" y="87" on="0"/>
        <pt x="681" y="-12" on="0"/>
        <pt x="594" y="-12" on="1"/>
      </contour>
      <contour>
        <pt x="758" y="326" on="0"/>
        <pt x="758" y="351" on="1"/>
        <pt x="758" y="465" on="0"/>
        <pt x="643" y="465" on="1"/>
        <pt x="577" y="465" on="0"/>
        <pt x="490" y="386" on="0"/>
        <pt x="473" y="312" on="1"/>
        <pt x="754" y="312" on="1"/>
      </contour>
      <contour>
        <pt x="229" y="239" on="0"/>
        <pt x="89" y="190" on="0"/>
        <pt x="89" y="121" on="1"/>
        <pt x="89" y="89" on="0"/>
        <pt x="136" y="61" on="0"/>
        <pt x="182" y="61" on="1"/>
        <pt x="220" y="61" on="0"/>
        <pt x="298" y="94" on="0"/>
        <pt x="355" y="158" on="0"/>
        <pt x="362" y="201" on="1"/>
        <pt x="368" y="239" on="1"/>
      </contour>
    </TTGlyph>
    <TTGlyph name="aeacute" xMin="-5" yMin="-12" xMax="847" yMax="723">
      <component glyphName="ae" x="0" y="0" flags="0x0"/>
      <component glyphName="acute" x="396" y="0" flags="0x0"/>
    </TTGlyph>
    <TTGlyph name="agrave" xMin="21" yMin="-12" xMax="519" yMax="723">
      <component glyphName="a" x="0" y="0" flags="0x0"/>
      <component glyphName="grave" x="108" y="0" flags="0x0"/>
    </TTGlyph>
    <TTGlyph name="amacron" xMin="21" yMin="-12" xMax="519" yMax="711">
      <contour>
        <pt x="195" y="711" on="1"/>
        <pt x="500" y="711" on="1"/>
        <pt x="487" y="639" on="1"/>
        <pt x="182" y="639" on="1"/>
      </contour>
      <contour>
        <pt x="507" y="460" on="0"/>
        <pt x="440" y="97" on="0"/>
        <pt x="440" y="88" on="1"/>
        <pt x="440" y="61" on="0"/>
        <pt x="470" y="61" on="1"/>
        <pt x="510" y="61" on="1"/>
        <pt x="500" y="4" on="1"/>
        <pt x="490" y="-2" on="0"/>
        <pt x="455" y="-12" on="0"/>
        <pt x="434" y="-12" on="1"/>
        <pt x="400" y="-12" on="0"/>
        <pt x="361" y="23" on="0"/>
        <pt x="361" y="59" on="1"/>
        <pt x="361" y="65" on="0"/>
        <pt x="363" y="83" on="1"/>
        <pt x="357" y="83" on="1"/>
        <pt x="330" y="37" on="0"/>
        <pt x="238" y="-12" on="0"/>
        <pt x="186" y="-12" on="1"/>
        <pt x="109" y="-12" on="0"/>
        <pt x="21" y="85" on="0"/>
        <pt x="21" y="179" on="1"/>
        <pt x="21" y="286" on="0"/>
        <pt x="87" y="449" on="0"/>
        <pt x="202" y="538" on="0"/>
        <pt x="273" y="538" on="1"/>
        <pt x="328" y="538" on="0"/>
        <pt x="396" y="504" on="0"/>
        <pt x="415" y="466" on="1"/>
        <pt x="421" y="466" on="1"/>
        <pt x="452" y="526" on="1"/>
        <pt x="519" y="526" on="1"/>
      </contour>
      <contour>
        <pt x="271" y="61" on="0"/>
        <pt x="354" y="151" on="0"/>
        <pt x="392" y="280" on="0"/>
        <pt x="392" y="341" on="1"/>
        <pt x="392" y="403" on="0"/>
        <pt x="341" y="465" on="0"/>
        <pt x="285" y="465" on="1"/>
        <pt x="230" y="465" on="0"/>
        <pt x="152" y="389" on="0"/>
        <pt x="113" y="261" on="0"/>
        <pt x="113" y="184" on="1"/>
        <pt x="113" y="61" on="0"/>
        <pt x="208" y="61" on="1"/>
      </contour>
    </TTGlyph>
    <TTGlyph name="ampersand" xMin="11" yMin="-12" xMax="655" yMax="698">
      <contour>
        <pt x="536" y="194" on="1"/>
        <pt x="518" y="94" on="0"/>
        <pt x="372" y="-12" on="0"/>
        <pt x="248" y="-12" on="1"/>
        <pt x="140" y="-12" on="0"/>
        <pt x="11" y="80" on="0"/>
        <pt x="11" y="160" on="1"/>
        <pt x="11" y="233" on="0"/>
        <pt x="102" y="335" on="0"/>
        <pt x="166" y="352" on="1"/>
        <pt x="167" y="356" on="1"/>
        <pt x="128" y="376" on="0"/>
        <pt x="84" y="435" on="0"/>
        <pt x="84" y="478" on="1"/>
        <pt x="84" y="547" on="0"/>
        <pt x="158" y="646" on="0"/>
        <pt x="284" y="698" on="0"/>
        <pt x="363" y="698" on="1"/>
        <pt x="468" y="698" on="0"/>
        <pt x="595" y="612" on="0"/>
        <pt x="595" y="540" on="1"/>
        <pt x="595" y="520" on="0"/>
        <pt x="589" y="492" on="1"/>
        <pt x="501" y="492" on="1"/>
        <pt x="504" y="509" on="0"/>
        <pt x="504" y="525" on="1"/>
        <pt x="504" y="574" on="0"/>
        <pt x="429" y="623" on="0"/>
        <pt x="364" y="623" on="1"/>
        <pt x="285" y="623" on="0"/>
        <pt x="174" y="553" on="0"/>
        <pt x="174" y="482" on="1"/>
        <pt x="174" y="435" on="0"/>
        <pt x="244" y="385" on="0"/>
        <pt x="299" y="385" on="1"/>
        <pt x="360" y="385" on="1"/>
        <pt x="347" y="312" on="1"/>
        <pt x="288" y="312" on="1"/>
        <pt x="211" y="312" on="0"/>
        <pt x="104" y="248" on="0"/>
        <pt x="104" y="172" on="1"/>
        <pt x="104" y="116" on="0"/>
        <pt x="183" y="63" on="0"/>
        <pt x="254" y="63" on="1"/>
        <pt x="425" y="63" on="0"/>
        <pt x="448" y="191" on="1"/>
        <pt x="482" y="385" on="1"/>
        <pt x="655" y="385" on="1"/>
        <pt x="642" y="311" on="1"/>
        <pt x="557" y="311" on="1"/>
      </contour>
    </TTGlyph>
    <TTGlyph name="aogonek" xMin="21" yMin="-182" xMax="519" yMax="538">
      <contour>
        <pt x="429" y="-182" on="0"/>
        <pt x="401" y="-182" on="1"/>
        <pt x="365" y="-182" on="0"/>
        <pt x="313" y="-147" on="0"/>
        <pt x="313" y="-108" on="1"/>
        <pt x="313" y="-73" on="0"/>
        <pt x="353" y="-24" on="0"/>
        <pt x="390" y="-4" on="1"/>
        <pt x="356" y="11" on="0"/>
        <pt x="356" y="59" on="1"/>
        <pt x="356" y="65" on="0"/>
        <pt x="358" y="83" on="1"/>
        <pt x="352" y="83" on="1"/>
        <pt x="326" y="37" on="0"/>
        <pt x="236" y="-12" on="0"/>
        <pt x="186" y="-12" on="1"/>
        <pt x="109" y="-12" on="0"/>
        <pt x="21" y="85" on="0"/>
        <pt x="21" y="179" on="1"/>
        <pt x="21" y="286" on="0"/>
        <pt x="87" y="449" on="0"/>
        <pt x="202" y="538" on="0"/>
        <pt x="273" y="538" on="1"/>
        <pt x="328" y="538" on="0"/>
        <pt x="396" y="504" on="0"/>
        <pt x="415" y="466" on="1"/>
        <pt x="421" y="466" on="1"/>
        <pt x="452" y="526" on="1"/>
        <pt x="519" y="526" on="1"/>
        <pt x="506" y="460" on="0"/>
        <pt x="435" y="97" on="0"/>
        <pt x="435" y="88" on="1"/>
        <pt x="435" y="61" on="0"/>
        <pt x="465" y="61" on="1"/>
        <pt x="505" y="61" on="1"/>
        <pt x="495" y="4" on="1"/>
        <pt x="456" y="-8" on="0"/>
        <pt x="398" y="-44" on="0"/>
        <pt x="398" y="-76" on="1"/>
        <pt x="398" y="-95" on="0"/>
        <pt x="417" y="-117" on="0"/>
        <pt x="442" y="-117" on="1"/>
        <pt x="474" y="-117" on="1"/>
        <pt x="465" y="-168" on="1"/>
      </contour>
      <contour>
        <pt x="270" y="61" on="0"/>
        <pt x="353" y="161" on="0"/>
        <pt x="392" y="294" on="0"/>
        <pt x="392" y="341" on="1"/>
        <pt x="392" y="403" on="0"/>
        <pt x="341" y="465" on="0"/>
        <pt x="285" y="465" on="1"/>
        <pt x="230" y="465" on="0"/>
        <pt x="152" y="389" on="0"/>
        <pt x="113" y="261" on="0"/>
        <pt x="113" y="184" on="1"/>
        <pt x="113" y="61" on="0"/>
        <pt x="208" y="61" on="1"/>
      </contour>
    </TTGlyph>
    <TTGlyph name="approxequal" xMin="3" yMin="57" xMax="545" yMax="447">
      <contour>
        <pt x="529" y="353" on="0"/>
        <pt x="487" y="315" on="0"/>
        <pt x="420" y="283" on="0"/>
        <pt x="379" y="283" on="1"/>
        <pt x="356" y="283" on="0"/>
        <pt x="315" y="298" on="0"/>
        <pt x="286" y="313" on="1"/>
        <pt x="257" y="328" on="0"/>
        <pt x="216" y="343" on="0"/>
        <pt x="191" y="343" on="1"/>
        <pt x="155" y="343" on="0"/>
        <pt x="89" y="311" on="0"/>
        <pt x="41" y="273" on="0"/>
        <pt x="41" y="271" on="1"/>
        <pt x="57" y="363" on="1"/>
        <pt x="57" y="365" on="0"/>
        <pt x="99" y="403" on="0"/>
        <pt x="166" y="435" on="0"/>
        <pt x="207" y="435" on="1"/>
        <pt x="230" y="435" on="0"/>
        <pt x="271" y="420" on="0"/>
        <pt x="300" y="405" on="1"/>
        <pt x="329" y="390" on="0"/>
        <pt x="370" y="375" on="0"/>
        <pt x="395" y="375" on="1"/>
        <pt x="431" y="375" on="0"/>
        <pt x="497" y="407" on="0"/>
        <pt x="545" y="445" on="0"/>
        <pt x="545" y="447" on="1"/>
        <pt x="529" y="355" on="1"/>
      </contour>
      <contour>
        <pt x="491" y="139" on="0"/>
        <pt x="449" y="101" on="0"/>
        <pt x="382" y="69" on="0"/>
        <pt x="341" y="69" on="1"/>
        <pt x="318" y="69" on="0"/>
        <pt x="277" y="84" on="0"/>
        <pt x="248" y="99" on="1"/>
        <pt x="219" y="114" on="0"/>
        <pt x="178" y="129" on="0"/>
        <pt x="153" y="129" on="1"/>
        <pt x="117" y="129" on="0"/>
        <pt x="51" y="97" on="0"/>
        <pt x="3" y="59" on="0"/>
        <pt x="3" y="57" on="1"/>
        <pt x="19" y="149" on="1"/>
        <pt x="19" y="151" on="0"/>
        <pt x="61" y="189" on="0"/>
        <pt x="128" y="221" on="0"/>
        <pt x="169" y="221" on="1"/>
        <pt x="192" y="221" on="0"/>
        <pt x="233" y="206" on="0"/>
        <pt x="262" y="191" on="1"/>
        <pt x="291" y="176" on="0"/>
        <pt x="332" y="161" on="0"/>
        <pt x="357" y="161" on="1"/>
        <pt x="393" y="161" on="0"/>
        <pt x="459" y="193" on="0"/>
        <pt x="507" y="231" on="0"/>
        <pt x="507" y="233" on="1"/>
        <pt x="491" y="141" on="1"/>
      </contour>
    </TTGlyph>
    <TTGlyph name="aring" xMin="21" yMin="-12" xMax="519" yMax="758">
      <component glyphName="a" x="0" y="0" flags="0x0"/>
      <component glyphName="ring" x="158" y="0" flags="0x0"/>
    </TTGlyph>
    <TTGlyph name="aringacute" xMin="21" yMin="-12" xMax="519" yMax="913">
      <component glyphName="a" x="0" y="0" flags="0x0"/>
      <component glyphName="ring" x="158" y="0" flags="0x0"/>
      <component glyphName="acute" x="239" y="190" flags="0x0"/>
    </TTGlyph>
    <TTGlyph name="arrowboth" xMin="40" yMin="79" xMax="960" yMax="426">
      <contour>
        <pt x="689" y="79" on="1"/>
        <pt x="771" y="216" on="1"/>
        <pt x="221" y="216" on="1"/>
        <pt x="250" y="79" on="1"/>
        <pt x="208" y="79" on="1"/>
        <pt x="40" y="242" on="1"/>
        <pt x="43" y="263" on="1"/>
        <pt x="259" y="426" on="1"/>
        <pt x="311" y="426" on="1"/>
        <pt x="234" y="289" on="1"/>
        <pt x="784" y="289" on="1"/>
        <pt x="750" y="426" on="1"/>
        <pt x="792" y="426" on="1"/>
        <pt x="960" y="263" on="1"/>
        <pt x="957" y="242" on="1"/>
        <pt x="739" y="79" on="1"/>
      </contour>
    </TTGlyph>
    <TTGlyph name="arrowdown" xMin="25" yMin="-208" xMax="380" yMax="710">
      <contour>
        <pt x="232" y="-27" on="1"/>
        <pt x="380" y="31" on="1"/>
        <pt x="371" y="-19" on="1"/>
        <pt x="175" y="-208" on="1"/>
        <pt x="154" y="-208" on="1"/>
        <pt x="25" y="-11" on="1"/>
        <pt x="33" y="31" on="1"/>
        <pt x="159" y="-27" on="1"/>
        <pt x="289" y="710" on="1"/>
        <pt x="362" y="710" on="1"/>
      </contour>
    </TTGlyph>
    <TTGlyph name="arrowleft" xMin="33" yMin="79" xMax="959" yMax="426">
      <contour>
        <pt x="243" y="79" on="1"/>
        <pt x="201" y="79" on="1"/>
        <pt x="33" y="242" on="1"/>
        <pt x="36" y="263" on="1"/>
        <pt x="254" y="426" on="1"/>
        <pt x="304" y="426" on="1"/>
        <pt x="222" y="289" on="1"/>
        <pt x="959" y="289" on="1"/>
        <pt x="946" y="216" on="1"/>
        <pt x="209" y="216" on="1"/>
      </contour>
    </TTGlyph>
    <TTGlyph name="arrowright" xMin="34" yMin="79" xMax="960" yMax="426">
      <contour>
        <pt x="689" y="79" on="1"/>
        <pt x="771" y="216" on="1"/>
        <pt x="34" y="216" on="1"/>
        <pt x="47" y="289" on="1"/>
        <pt x="784" y="289" on="1"/>
        <pt x="750" y="426" on="1"/>
        <pt x="792" y="426" on="1"/>
        <pt x="960" y="263" on="1"/>
        <pt x="957" y="242" on="1"/>
        <pt x="739" y="79" on="1"/>
      </contour>
    </TTGlyph>
    <TTGlyph name="arrowup" xMin="105" yMin="-208" xMax="460" yMax="710">
      <contour>
        <pt x="253" y="529" on="1"/>
        <pt x="105" y="471" on="1"/>
        <pt x="114" y="521" on="1"/>
        <pt x="310" y="710" on="1"/>
        <pt x="331" y="710" on="1"/>
        <pt x="460" y="513" on="1"/>
        <pt x="452" y="471" on="1"/>
        <pt x="326" y="529" on="1"/>
        <pt x="196" y="-208" on="1"/>
        <pt x="123" y="-208" on="1"/>
      </contour>
    </TTGlyph>
    <TTGlyph name="arrowupdn" xMin="29" yMin="-206" xMax="469" yMax="711">
      <contour>
        <pt x="29" y="-9" on="1"/>
        <pt x="37" y="33" on="1"/>
        <pt x="164" y="-25" on="1"/>
        <pt x="261" y="525" on="1"/>
        <pt x="114" y="472" on="1"/>
        <pt x="124" y="522" on="1"/>
        <pt x="319" y="711" on="1"/>
        <pt x="340" y="711" on="1"/>
        <pt x="469" y="514" on="1"/>
        <pt x="461" y="472" on="1"/>
        <pt x="334" y="525" on="1"/>
        <pt x="237" y="-25" on="1"/>
        <pt x="384" y="33" on="1"/>
        <pt x="376" y="-17" on="1"/>
        <pt x="179" y="-206" on="1"/>
        <pt x="158" y="-206" on="1"/>
      </contour>
    </TTGlyph>
    <TTGlyph name="arrowupdnbse" xMin="-14" yMin="-233" xMax="466" yMax="711">
      <contour>
        <pt x="38" y="61" on="1"/>
        <pt x="46" y="103" on="1"/>
        <pt x="173" y="45" on="1"/>
        <pt x="258" y="525" on="1"/>
        <pt x="111" y="472" on="1"/>
        <pt x="121" y="522" on="1"/>
        <pt x="316" y="711" on="1"/>
        <pt x="337" y="711" on="1"/>
        <pt x="466" y="514" on="1"/>
        <pt x="458" y="472" on="1"/>
        <pt x="331" y="525" on="1"/>
        <pt x="246" y="45" on="1"/>
        <pt x="393" y="103" on="1"/>
        <pt x="385" y="53" on="1"/>
        <pt x="188" y="-136" on="1"/>
        <pt x="167" y="-136" on="1"/>
      </contour>
      <contour>
        <pt x="-5" y="-185" on="1"/>
        <pt x="344" y="-185" on="1"/>
        <pt x="335" y="-233" on="1"/>
        <pt x="-14" y="-233" on="1"/>
      </contour>
    </TTGlyph>
    <TTGlyph name="asciicircum" xMin="23" yMin="294" xMax="442" yMax="686">
      <contour>
        <pt x="288" y="609" on="1"/>
        <pt x="114" y="294" on="1"/>
        <pt x="23" y="294" on="1"/>
        <pt x="247" y="686" on="1"/>
        <pt x="354" y="686" on="1"/>
        <pt x="442" y="294" on="1"/>
        <pt x="354" y="294" on="1"/>
      </contour>
    </TTGlyph>
    <TTGlyph name="asciitilde" xMin="25" yMin="211" xMax="558" yMax="389">
      <contour>
        <pt x="542" y="294" on="0"/>
        <pt x="497" y="255" on="0"/>
        <pt x="427" y="223" on="0"/>
        <pt x="384" y="223" on="1"/>
        <pt x="359" y="223" on="0"/>
        <pt x="317" y="238" on="0"/>
        <pt x="285" y="253" on="1"/>
        <pt x="256" y="268" on="0"/>
        <pt x="209" y="284" on="0"/>
        <pt x="183" y="284" on="1"/>
        <pt x="145" y="284" on="0"/>
        <pt x="75" y="252" on="0"/>
        <pt x="25" y="213" on="0"/>
        <pt x="25" y="211" on="1"/>
        <pt x="41" y="304" on="1"/>
        <pt x="41" y="306" on="0"/>
        <pt x="86" y="345" on="0"/>
        <pt x="156" y="377" on="0"/>
        <pt x="199" y="377" on="1"/>
        <pt x="224" y="377" on="0"/>
        <pt x="266" y="362" on="0"/>
        <pt x="298" y="347" on="1"/>
        <pt x="327" y="332" on="0"/>
        <pt x="374" y="316" on="0"/>
        <pt x="400" y="316" on="1"/>
        <pt x="438" y="316" on="0"/>
        <pt x="508" y="348" on="0"/>
        <pt x="558" y="387" on="0"/>
        <pt x="558" y="389" on="1"/>
        <pt x="542" y="296" on="1"/>
      </contour>
    </TTGlyph>
    <TTGlyph name="asterisk" xMin="64" yMin="362" xMax="404" yMax="686">
      <contour>
        <pt x="247" y="362" on="1"/>
        <pt x="164" y="362" on="1"/>
        <pt x="202" y="481" on="1"/>
        <pt x="93" y="407" on="1"/>
        <pt x="64" y="478" on="1"/>
        <pt x="185" y="524" on="1"/>
        <pt x="81" y="571" on="1"/>
        <pt x="134" y="641" on="1"/>
        <pt x="217" y="567" on="1"/>
        <pt x="221" y="686" on="1"/>
        <pt x="304" y="686" on="1"/>
        <pt x="266" y="568" on="1"/>
        <pt x="375" y="641" on="1"/>
        <pt x="404" y="571" on="1"/>
        <pt x="284" y="524" on="1"/>
        <pt x="387" y="478" on="1"/>
        <pt x="334" y="407" on="1"/>
        <pt x="251" y="481" on="1"/>
      </contour>
    </TTGlyph>
    <TTGlyph name="at" xMin="53" yMin="-153" xMax="963" yMax="698">
      <contour>
        <pt x="647" y="22" on="0"/>
        <pt x="593" y="54" on="0"/>
        <pt x="593" y="90" on="1"/>
        <pt x="593" y="94" on="0"/>
        <pt x="595" y="108" on="1"/>
        <pt x="589" y="108" on="1"/>
        <pt x="566" y="67" on="0"/>
        <pt x="485" y="22" on="0"/>
        <pt x="439" y="22" on="1"/>
        <pt x="367" y="22" on="0"/>
        <pt x="285" y="109" on="0"/>
        <pt x="285" y="195" on="1"/>
        <pt x="285" y="292" on="0"/>
        <pt x="346" y="440" on="0"/>
        <pt x="452" y="521" on="0"/>
        <pt x="518" y="521" on="1"/>
        <pt x="567" y="521" on="0"/>
        <pt x="630" y="490" on="0"/>
        <pt x="646" y="456" on="1"/>
        <pt x="652" y="456" on="1"/>
        <pt x="680" y="510" on="1"/>
        <pt x="745" y="510" on="1"/>
        <pt x="733" y="451" on="0"/>
        <pt x="669" y="125" on="0"/>
        <pt x="669" y="113" on="1"/>
        <pt x="669" y="100" on="0"/>
        <pt x="687" y="88" on="0"/>
        <pt x="706" y="88" on="1"/>
        <pt x="763" y="88" on="0"/>
        <pt x="850" y="170" on="0"/>
        <pt x="896" y="304" on="0"/>
        <pt x="896" y="379" on="1"/>
        <pt x="896" y="501" on="0"/>
        <pt x="726" y="640" on="0"/>
        <pt x="568" y="640" on="1"/>
        <pt x="433" y="640" on="0"/>
        <pt x="233" y="543" on="0"/>
        <pt x="121" y="346" on="0"/>
        <pt x="121" y="199" on="1"/>
        <pt x="121" y="60" on="0"/>
        <pt x="273" y="-95" on="0"/>
        <pt x="455" y="-95" on="1"/>
        <pt x="502" y="-95" on="0"/>
        <pt x="583" y="-87" on="0"/>
        <pt x="631" y="-78" on="0"/>
        <pt x="637" y="-77" on="1"/>
        <pt x="626" y="-139" on="1"/>
        <pt x="534" y="-153" on="0"/>
        <pt x="455" y="-153" on="1"/>
        <pt x="240" y="-153" on="0"/>
        <pt x="53" y="30" on="0"/>
        <pt x="53" y="192" on="1"/>
        <pt x="53" y="446" on="0"/>
        <pt x="327" y="698" on="0"/>
        <pt x="568" y="698" on="1"/>
        <pt x="695" y="698" on="0"/>
        <pt x="872" y="621" on="0"/>
        <pt x="963" y="478" on="0"/>
        <pt x="963" y="379" on="1"/>
        <pt x="963" y="292" on="0"/>
        <pt x="905" y="129" on="0"/>
        <pt x="780" y="22" on="0"/>
        <pt x="685" y="22" on="1"/>
      </contour>
      <contour>
        <pt x="515" y="90" on="0"/>
        <pt x="590" y="180" on="0"/>
        <pt x="626" y="299" on="0"/>
        <pt x="626" y="342" on="1"/>
        <pt x="626" y="398" on="0"/>
        <pt x="579" y="453" on="0"/>
        <pt x="529" y="453" on="1"/>
        <pt x="454" y="453" on="0"/>
        <pt x="372" y="308" on="0"/>
        <pt x="372" y="200" on="1"/>
        <pt x="372" y="145" on="0"/>
        <pt x="414" y="90" on="0"/>
        <pt x="459" y="90" on="1"/>
      </contour>
    </TTGlyph>
    <TTGlyph name="atilde" xMin="21" yMin="-12" xMax="519" yMax="723">
      <component glyphName="a" x="0" y="0" flags="0x0"/>
      <component glyphName="tilde" x="164" y="0" flags="0x0"/>
    </TTGlyph>
    <TTGlyph name="b" xMin="13" yMin="-12" xMax="518" yMax="723">
      <contour>
        <pt x="140" y="723" on="1"/>
        <pt x="228" y="723" on="1"/>
        <pt x="183" y="466" on="1"/>
        <pt x="189" y="466" on="1"/>
        <pt x="255" y="538" on="0"/>
        <pt x="352" y="538" on="1"/>
        <pt x="431" y="538" on="0"/>
        <pt x="518" y="443" on="0"/>
        <pt x="518" y="347" on="1"/>
        <pt x="518" y="241" on="0"/>
        <pt x="455" y="78" on="0"/>
        <pt x="341" y="-12" on="0"/>
        <pt x="267" y="-12" on="1"/>
        <pt x="211" y="-12" on="0"/>
        <pt x="129" y="30" on="0"/>
        <pt x="108" y="71" on="1"/>
        <pt x="102" y="71" on="1"/>
        <pt x="79" y="0" on="1"/>
        <pt x="13" y="0" on="1"/>
      </contour>
      <contour>
        <pt x="335" y="61" on="0"/>
        <pt x="427" y="221" on="0"/>
        <pt x="427" y="344" on="1"/>
        <pt x="427" y="409" on="0"/>
        <pt x="375" y="465" on="0"/>
        <pt x="319" y="465" on="1"/>
        <pt x="262" y="465" on="0"/>
        <pt x="181" y="388" on="0"/>
        <pt x="140" y="264" on="0"/>
        <pt x="140" y="194" on="1"/>
        <pt x="140" y="128" on="0"/>
        <pt x="192" y="61" on="0"/>
        <pt x="248" y="61" on="1"/>
      </contour>
    </TTGlyph>
    <TTGlyph name="backslash" xMin="70" yMin="-49" xMax="207" yMax="735">
      <contour>
        <pt x="70" y="735" on="1"/>
        <pt x="140" y="735" on="1"/>
        <pt x="207" y="-49" on="1"/>
        <pt x="136" y="-49" on="1"/>
      </contour>
    </TTGlyph>
    <TTGlyph name="bar" xMin="91" yMin="-173" xMax="169" yMax="723">
      <contour>
        <pt x="91" y="723" on="1"/>
        <pt x="169" y="723" on="1"/>
        <pt x="169" y="-173" on="1"/>
        <pt x="91" y="-173" on="1"/>
      </contour>
    </TTGlyph>
    <TTGlyph name="braceleft" xMin="33" yMin="-159" xMax="370" yMax="735">
      <contour>
        <pt x="144" y="-159" on="0"/>
        <pt x="66" y="-114" on="0"/>
        <pt x="66" y="-52" on="1"/>
        <pt x="66" y="-29" on="0"/>
        <pt x="86" y="76" on="0"/>
        <pt x="88" y="88" on="1"/>
        <pt x="90" y="99" on="0"/>
        <pt x="106" y="181" on="0"/>
        <pt x="106" y="196" on="1"/>
        <pt x="106" y="223" on="0"/>
        <pt x="64" y="246" on="0"/>
        <pt x="33" y="246" on="1"/>
        <pt x="48" y="330" on="1"/>
        <pt x="82" y="330" on="0"/>
        <pt x="134" y="359" on="0"/>
        <pt x="140" y="390" on="1"/>
        <pt x="175" y="587" on="1"/>
        <pt x="186" y="647" on="0"/>
        <pt x="238" y="712" on="0"/>
        <pt x="315" y="735" on="0"/>
        <pt x="370" y="735" on="1"/>
        <pt x="360" y="678" on="1"/>
        <pt x="323" y="678" on="0"/>
        <pt x="265" y="647" on="0"/>
        <pt x="258" y="607" on="1"/>
        <pt x="214" y="401" on="1"/>
        <pt x="200" y="342" on="0"/>
        <pt x="154" y="293" on="0"/>
        <pt x="107" y="293" on="1"/>
        <pt x="105" y="283" on="1"/>
        <pt x="143" y="283" on="0"/>
        <pt x="177" y="245" on="0"/>
        <pt x="177" y="207" on="1"/>
        <pt x="177" y="180" on="0"/>
        <pt x="159" y="72" on="1"/>
        <pt x="156" y="51" on="0"/>
        <pt x="144" y="-32" on="0"/>
        <pt x="144" y="-45" on="1"/>
        <pt x="144" y="-102" on="0"/>
        <pt x="223" y="-102" on="1"/>
        <pt x="213" y="-159" on="1"/>
      </contour>
    </TTGlyph>
    <TTGlyph name="braceright" xMin="-57" yMin="-159" xMax="280" yMax="735">
      <contour>
        <pt x="169" y="735" on="0"/>
        <pt x="247" y="690" on="0"/>
        <pt x="247" y="628" on="1"/>
        <pt x="247" y="605" on="0"/>
        <pt x="227" y="500" on="0"/>
        <pt x="225" y="488" on="1"/>
        <pt x="223" y="477" on="0"/>
        <pt x="207" y="395" on="0"/>
        <pt x="207" y="380" on="1"/>
        <pt x="207" y="353" on="0"/>
        <pt x="249" y="330" on="0"/>
        <pt x="280" y="330" on="1"/>
        <pt x="265" y="246" on="1"/>
        <pt x="231" y="246" on="0"/>
        <pt x="179" y="217" on="0"/>
        <pt x="173" y="186" on="1"/>
        <pt x="138" y="-11" on="1"/>
        <pt x="127" y="-71" on="0"/>
        <pt x="75" y="-136" on="0"/>
        <pt x="-2" y="-159" on="0"/>
        <pt x="-57" y="-159" on="1"/>
        <pt x="-47" y="-102" on="1"/>
        <pt x="-10" y="-102" on="0"/>
        <pt x="48" y="-71" on="0"/>
        <pt x="55" y="-31" on="1"/>
        <pt x="99" y="175" on="1"/>
        <pt x="113" y="234" on="0"/>
        <pt x="159" y="283" on="0"/>
        <pt x="206" y="283" on="1"/>
        <pt x="208" y="293" on="1"/>
        <pt x="170" y="293" on="0"/>
        <pt x="136" y="331" on="0"/>
        <pt x="136" y="369" on="1"/>
        <pt x="136" y="396" on="0"/>
        <pt x="154" y="504" on="1"/>
        <pt x="157" y="525" on="0"/>
        <pt x="169" y="608" on="0"/>
        <pt x="169" y="621" on="1"/>
        <pt x="169" y="678" on="0"/>
        <pt x="90" y="678" on="1"/>
        <pt x="100" y="735" on="1"/>
      </contour>
    </TTGlyph>
    <TTGlyph name="bracketleft" xMin="-15" yMin="-161" xMax="329" yMax="735">
      <contour>
        <pt x="141" y="735" on="1"/>
        <pt x="329" y="735" on="1"/>
        <pt x="318" y="670" on="1"/>
        <pt x="209" y="670" on="1"/>
        <pt x="74" y="-96" on="1"/>
        <pt x="183" y="-96" on="1"/>
        <pt x="172" y="-161" on="1"/>
        <pt x="-15" y="-161" on="1"/>
      </contour>
    </TTGlyph>
    <TTGlyph name="bracketright" xMin="-75" yMin="-161" xMax="269" yMax="735">
      <contour>
        <pt x="-64" y="-96" on="1"/>
        <pt x="44" y="-96" on="1"/>
        <pt x="179" y="670" on="1"/>
        <pt x="70" y="670" on="1"/>
        <pt x="81" y="735" on="1"/>
        <pt x="269" y="735" on="1"/>
        <pt x="112" y="-161" on="1"/>
        <pt x="-75" y="-161" on="1"/>
      </contour>
    </TTGlyph>
    <TTGlyph name="breve" xMin="29" yMin="606" xMax="322" yMax="723">
      <contour>
        <pt x="313" y="676" on="0"/>
        <pt x="232" y="606" on="0"/>
        <pt x="163" y="606" on="1"/>
        <pt x="92" y="606" on="0"/>
        <pt x="29" y="659" on="0"/>
        <pt x="29" y="700" on="1"/>
        <pt x="29" y="715" on="0"/>
        <pt x="31" y="723" on="1"/>
        <pt x="92" y="723" on="1"/>
        <pt x="93" y="701" on="0"/>
        <pt x="121" y="670" on="0"/>
        <pt x="162" y="670" on="1"/>
        <pt x="205" y="670" on="0"/>
        <pt x="255" y="703" on="0"/>
        <pt x="261" y="723" on="1"/>
        <pt x="322" y="723" on="1"/>
      </contour>
    </TTGlyph>
    <TTGlyph name="brokenbar" xMin="91" yMin="-173" xMax="169" yMax="723">
      <contour>
        <pt x="91" y="723" on="1"/>
        <pt x="169" y="723" on="1"/>
        <pt x="169" y="357" on="1"/>
        <pt x="91" y="357" on="1"/>
      </contour>
      <contour>
        <pt x="91" y="193" on="1"/>
        <pt x="169" y="193" on="1"/>
        <pt x="169" y="-173" on="1"/>
        <pt x="91" y="-173" on="1"/>
      </contour>
    </TTGlyph>
    <TTGlyph name="bullet" xMin="49" yMin="220" xMax="300" yMax="467">
      <contour>
        <pt x="300" y="304" on="0"/>
        <pt x="223" y="220" on="0"/>
        <pt x="157" y="220" on="1"/>
        <pt x="110" y="220" on="0"/>
        <pt x="49" y="278" on="0"/>
        <pt x="49" y="322" on="1"/>
        <pt x="49" y="383" on="0"/>
        <pt x="126" y="467" on="0"/>
        <pt x="192" y="467" on="1"/>
        <pt x="239" y="467" on="0"/>
        <pt x="300" y="408" on="0"/>
        <pt x="300" y="364" on="1"/>
      </contour>
    </TTGlyph>
    <TTGlyph name="c" xMin="21" yMin="-12" xMax="476" yMax="538">
      <contour>
        <pt x="436" y="104" on="0"/>
        <pt x="322" y="-12" on="0"/>
        <pt x="224" y="-12" on="1"/>
        <pt x="118" y="-12" on="0"/>
        <pt x="21" y="88" on="0"/>
        <pt x="21" y="193" on="1"/>
        <pt x="21" y="283" on="0"/>
        <pt x="74" y="439" on="0"/>
        <pt x="192" y="538" on="0"/>
        <pt x="283" y="538" on="1"/>
        <pt x="385" y="538" on="0"/>
        <pt x="476" y="447" on="0"/>
        <pt x="476" y="368" on="1"/>
        <pt x="476" y="355" on="0"/>
        <pt x="474" y="331" on="1"/>
        <pt x="384" y="331" on="1"/>
        <pt x="385" y="341" on="0"/>
        <pt x="385" y="360" on="1"/>
        <pt x="385" y="409" on="0"/>
        <pt x="342" y="465" on="0"/>
        <pt x="286" y="465" on="1"/>
        <pt x="192" y="465" on="0"/>
        <pt x="113" y="302" on="0"/>
        <pt x="113" y="198" on="1"/>
        <pt x="113" y="125" on="0"/>
        <pt x="167" y="61" on="0"/>
        <pt x="221" y="61" on="1"/>
        <pt x="283" y="61" on="0"/>
        <pt x="355" y="138" on="0"/>
        <pt x="366" y="195" on="1"/>
        <pt x="451" y="195" on="1"/>
      </contour>
    </TTGlyph>
    <TTGlyph name="cacute" xMin="21" yMin="-12" xMax="476" yMax="723">
      <component glyphName="c" x="0" y="0" flags="0x0"/>
      <component glyphName="acute" x="201" y="0" flags="0x0"/>
    </TTGlyph>
    <TTGlyph name="cacute.loclPLK" xMin="21" yMin="-12" xMax="476" yMax="723">
      <component glyphName="c" x="0" y="0" flags="0x0"/>
      <component glyphName="acute.loclPLK" x="94" y="0" flags="0x0"/>
    </TTGlyph>
    <TTGlyph name="caron" xMin="30" yMin="588" xMax="325" yMax="723">
      <contour>
        <pt x="161" y="644" on="1"/>
        <pt x="231" y="723" on="1"/>
        <pt x="325" y="723" on="1"/>
        <pt x="196" y="588" on="1"/>
        <pt x="112" y="588" on="1"/>
        <pt x="30" y="723" on="1"/>
        <pt x="116" y="723" on="1"/>
      </contour>
    </TTGlyph>
    <TTGlyph name="ccaron" xMin="21" yMin="-12" xMax="478" yMax="723">
      <component glyphName="c" x="0" y="0" flags="0x0"/>
      <component glyphName="caron" x="153" y="0" flags="0x0"/>
    </TTGlyph>
    <TTGlyph name="ccedilla" xMin="21" yMin="-182" xMax="476" yMax="538">
      <contour>
        <pt x="168" y="-8" on="1"/>
        <pt x="92" y="4" on="0"/>
        <pt x="21" y="103" on="0"/>
        <pt x="21" y="193" on="1"/>
        <pt x="21" y="283" on="0"/>
        <pt x="74" y="439" on="0"/>
        <pt x="192" y="538" on="0"/>
        <pt x="283" y="538" on="1"/>
        <pt x="385" y="538" on="0"/>
        <pt x="476" y="447" on="0"/>
        <pt x="476" y="368" on="1"/>
        <pt x="476" y="355" on="0"/>
        <pt x="474" y="331" on="1"/>
        <pt x="384" y="331" on="1"/>
        <pt x="385" y="341" on="0"/>
        <pt x="385" y="360" on="1"/>
        <pt x="385" y="409" on="0"/>
        <pt x="342" y="465" on="0"/>
        <pt x="286" y="465" on="1"/>
        <pt x="192" y="465" on="0"/>
        <pt x="113" y="302" on="0"/>
        <pt x="113" y="198" on="1"/>
        <pt x="113" y="125" on="0"/>
        <pt x="167" y="61" on="0"/>
        <pt x="221" y="61" on="1"/>
        <pt x="283" y="61" on="0"/>
        <pt x="355" y="138" on="0"/>
        <pt x="366" y="195" on="1"/>
        <pt x="451" y="195" on="1"/>
        <pt x="436" y="105" on="0"/>
        <pt x="324" y="-11" on="0"/>
        <pt x="228" y="-12" on="1"/>
        <pt x="220" y="-36" on="1"/>
        <pt x="256" y="-36" on="0"/>
        <pt x="302" y="-65" on="0"/>
        <pt x="302" y="-94" on="1"/>
        <pt x="302" y="-182" on="0"/>
        <pt x="178" y="-182" on="1"/>
        <pt x="120" y="-182" on="0"/>
        <pt x="75" y="-174" on="1"/>
        <pt x="84" y="-125" on="1"/>
        <pt x="184" y="-125" on="1"/>
        <pt x="206" y="-125" on="0"/>
        <pt x="229" y="-112" on="0"/>
        <pt x="229" y="-95" on="1"/>
        <pt x="229" y="-86" on="0"/>
        <pt x="213" y="-77" on="0"/>
        <pt x="194" y="-77" on="1"/>
        <pt x="143" y="-77" on="1"/>
      </contour>
    </TTGlyph>
    <TTGlyph name="ccircumflex" xMin="21" yMin="-12" xMax="476" yMax="723">
      <component glyphName="c" x="0" y="0" flags="0x0"/>
      <component glyphName="circumflex" x="148" y="0" flags="0x0"/>
    </TTGlyph>
    <TTGlyph name="cdotaccent" xMin="21" yMin="-12" xMax="476" yMax="723">
      <component glyphName="c" x="0" y="0" flags="0x0"/>
      <component glyphName="dotaccent" x="156" y="0" flags="0x0"/>
    </TTGlyph>
    <TTGlyph name="cedilla" xMin="36" yMin="-182" xMax="263" yMax="11">
      <contour>
        <pt x="136" y="11" on="1"/>
        <pt x="198" y="11" on="1"/>
        <pt x="181" y="-36" on="1"/>
        <pt x="217" y="-36" on="0"/>
        <pt x="263" y="-65" on="0"/>
        <pt x="263" y="-94" on="1"/>
        <pt x="263" y="-182" on="0"/>
        <pt x="139" y="-182" on="1"/>
        <pt x="81" y="-182" on="0"/>
        <pt x="36" y="-174" on="1"/>
        <pt x="45" y="-125" on="1"/>
        <pt x="145" y="-125" on="1"/>
        <pt x="167" y="-125" on="0"/>
        <pt x="190" y="-112" on="0"/>
        <pt x="190" y="-95" on="1"/>
        <pt x="190" y="-86" on="0"/>
        <pt x="174" y="-77" on="0"/>
        <pt x="155" y="-77" on="1"/>
        <pt x="104" y="-77" on="1"/>
      </contour>
    </TTGlyph>
    <TTGlyph name="cent" xMin="58" yMin="-49" xMax="513" yMax="723">
      <contour>
        <pt x="362" y="613" on="1"/>
        <pt x="441" y="604" on="0"/>
        <pt x="513" y="516" on="0"/>
        <pt x="513" y="446" on="1"/>
        <pt x="513" y="433" on="0"/>
        <pt x="511" y="409" on="1"/>
        <pt x="421" y="409" on="1"/>
        <pt x="422" y="419" on="0"/>
        <pt x="422" y="438" on="1"/>
        <pt x="422" y="480" on="0"/>
        <pt x="390" y="534" on="0"/>
        <pt x="349" y="541" on="1"/>
        <pt x="278" y="140" on="1"/>
        <pt x="331" y="146" on="0"/>
        <pt x="393" y="221" on="0"/>
        <pt x="403" y="273" on="1"/>
        <pt x="488" y="273" on="1"/>
        <pt x="473" y="183" on="0"/>
        <pt x="361" y="67" on="0"/>
        <pt x="265" y="66" on="1"/>
        <pt x="245" y="-49" on="1"/>
        <pt x="194" y="-49" on="1"/>
        <pt x="215" y="68" on="1"/>
        <pt x="134" y="78" on="0"/>
        <pt x="58" y="178" on="0"/>
        <pt x="58" y="271" on="1"/>
        <pt x="58" y="359" on="0"/>
        <pt x="110" y="513" on="0"/>
        <pt x="224" y="613" on="0"/>
        <pt x="312" y="615" on="1"/>
        <pt x="331" y="723" on="1"/>
        <pt x="382" y="723" on="1"/>
      </contour>
      <contour>
        <pt x="150" y="214" on="0"/>
        <pt x="189" y="149" on="0"/>
        <pt x="228" y="141" on="1"/>
        <pt x="299" y="541" on="1"/>
        <pt x="219" y="530" on="0"/>
        <pt x="150" y="372" on="0"/>
        <pt x="150" y="276" on="1"/>
      </contour>
    </TTGlyph>
    <TTGlyph name="circumflex" xMin="7" yMin="588" xMax="302" yMax="723">
      <contour>
        <pt x="173" y="667" on="1"/>
        <pt x="101" y="588" on="1"/>
        <pt x="7" y="588" on="1"/>
        <pt x="136" y="723" on="1"/>
        <pt x="220" y="723" on="1"/>
        <pt x="302" y="588" on="1"/>
        <pt x="216" y="588" on="1"/>
      </contour>
    </TTGlyph>
    <TTGlyph name="colon" xMin="36" yMin="0" xMax="229" yMax="526">
      <contour>
        <pt x="129" y="526" on="1"/>
        <pt x="229" y="526" on="1"/>
        <pt x="210" y="418" on="1"/>
        <pt x="110" y="418" on="1"/>
      </contour>
      <contour>
        <pt x="55" y="108" on="1"/>
        <pt x="155" y="108" on="1"/>
        <pt x="136" y="0" on="1"/>
        <pt x="36" y="0" on="1"/>
      </contour>
    </TTGlyph>
    <TTGlyph name="comma" xMin="12" yMin="-134" xMax="155" yMax="108">
      <contour>
        <pt x="76" y="0" on="1"/>
        <pt x="36" y="0" on="1"/>
        <pt x="55" y="108" on="1"/>
        <pt x="155" y="108" on="1"/>
        <pt x="138" y="9" on="1"/>
        <pt x="64" y="-134" on="1"/>
        <pt x="12" y="-134" on="1"/>
      </contour>
    </TTGlyph>
    <TTGlyph name="copyright" xMin="13" yMin="-12" xMax="723" yMax="698">
      <contour>
        <pt x="272" y="-12" on="0"/>
        <pt x="109" y="84" on="0"/>
        <pt x="13" y="247" on="0"/>
        <pt x="13" y="343" on="1"/>
        <pt x="13" y="439" on="0"/>
        <pt x="109" y="602" on="0"/>
        <pt x="272" y="698" on="0"/>
        <pt x="368" y="698" on="1"/>
        <pt x="464" y="698" on="0"/>
        <pt x="627" y="602" on="0"/>
        <pt x="723" y="439" on="0"/>
        <pt x="723" y="343" on="1"/>
        <pt x="723" y="247" on="0"/>
        <pt x="627" y="84" on="0"/>
        <pt x="464" y="-12" on="0"/>
        <pt x="368" y="-12" on="1"/>
      </contour>
      <contour>
        <pt x="451" y="35" on="0"/>
        <pt x="592" y="118" on="0"/>
        <pt x="674" y="259" on="0"/>
        <pt x="674" y="343" on="1"/>
        <pt x="674" y="427" on="0"/>
        <pt x="592" y="568" on="0"/>
        <pt x="451" y="651" on="0"/>
        <pt x="368" y="651" on="1"/>
        <pt x="285" y="651" on="0"/>
        <pt x="144" y="568" on="0"/>
        <pt x="62" y="427" on="0"/>
        <pt x="62" y="343" on="1"/>
        <pt x="62" y="259" on="0"/>
        <pt x="144" y="118" on="0"/>
        <pt x="285" y="35" on="0"/>
        <pt x="368" y="35" on="1"/>
      </contour>
      <contour>
        <pt x="526" y="223" on="0"/>
        <pt x="448" y="134" on="0"/>
        <pt x="368" y="134" on="1"/>
        <pt x="277" y="134" on="0"/>
        <pt x="191" y="235" on="0"/>
        <pt x="191" y="343" on="1"/>
        <pt x="191" y="451" on="0"/>
        <pt x="277" y="553" on="0"/>
        <pt x="368" y="553" on="1"/>
        <pt x="450" y="553" on="0"/>
        <pt x="526" y="473" on="0"/>
        <pt x="526" y="395" on="1"/>
        <pt x="458" y="395" on="1"/>
        <pt x="458" y="449" on="0"/>
        <pt x="419" y="497" on="0"/>
        <pt x="368" y="497" on="1"/>
        <pt x="312" y="497" on="0"/>
        <pt x="260" y="425" on="0"/>
        <pt x="260" y="343" on="1"/>
        <pt x="260" y="261" on="0"/>
        <pt x="311" y="189" on="0"/>
        <pt x="368" y="189" on="1"/>
        <pt x="418" y="189" on="0"/>
        <pt x="462" y="240" on="0"/>
        <pt x="462" y="292" on="1"/>
        <pt x="526" y="292" on="1"/>
      </contour>
    </TTGlyph>
    <TTGlyph name="currency" xMin="28" yMin="99" xMax="528" yMax="603">
      <contour>
        <pt x="398" y="130" on="0"/>
        <pt x="320" y="102" on="0"/>
        <pt x="278" y="102" on="1"/>
        <pt x="236" y="102" on="0"/>
        <pt x="158" y="130" on="0"/>
        <pt x="129" y="157" on="1"/>
        <pt x="74" y="99" on="1"/>
        <pt x="29" y="144" on="1"/>
        <pt x="83" y="200" on="1"/>
        <pt x="58" y="231" on="0"/>
        <pt x="33" y="309" on="0"/>
        <pt x="33" y="351" on="1"/>
        <pt x="33" y="394" on="0"/>
        <pt x="58" y="473" on="0"/>
        <pt x="83" y="501" on="1"/>
        <pt x="28" y="555" on="1"/>
        <pt x="76" y="603" on="1"/>
        <pt x="133" y="547" on="1"/>
        <pt x="161" y="571" on="0"/>
        <pt x="238" y="598" on="0"/>
        <pt x="278" y="598" on="1"/>
        <pt x="318" y="598" on="0"/>
        <pt x="395" y="571" on="0"/>
        <pt x="423" y="547" on="1"/>
        <pt x="480" y="603" on="1"/>
        <pt x="528" y="555" on="1"/>
        <pt x="473" y="501" on="1"/>
        <pt x="498" y="473" on="0"/>
        <pt x="523" y="394" on="0"/>
        <pt x="523" y="351" on="1"/>
        <pt x="523" y="309" on="0"/>
        <pt x="498" y="231" on="0"/>
        <pt x="473" y="200" on="1"/>
        <pt x="527" y="144" on="1"/>
        <pt x="482" y="99" on="1"/>
        <pt x="427" y="157" on="1"/>
      </contour>
      <contour>
        <pt x="322" y="181" on="0"/>
        <pt x="397" y="228" on="0"/>
        <pt x="441" y="306" on="0"/>
        <pt x="441" y="351" on="1"/>
        <pt x="441" y="395" on="0"/>
        <pt x="397" y="472" on="0"/>
        <pt x="322" y="519" on="0"/>
        <pt x="278" y="519" on="1"/>
        <pt x="234" y="519" on="0"/>
        <pt x="159" y="472" on="0"/>
        <pt x="115" y="395" on="0"/>
        <pt x="115" y="351" on="1"/>
        <pt x="115" y="306" on="0"/>
        <pt x="159" y="228" on="0"/>
        <pt x="234" y="181" on="0"/>
        <pt x="278" y="181" on="1"/>
      </contour>
    </TTGlyph>
    <TTGlyph name="d" xMin="21" yMin="-12" xMax="562" yMax="723">
      <contour>
        <pt x="370" y="71" on="1"/>
        <pt x="364" y="71" on="1"/>
        <pt x="333" y="30" on="0"/>
        <pt x="248" y="-12" on="0"/>
        <pt x="199" y="-12" on="1"/>
        <pt x="114" y="-12" on="0"/>
        <pt x="21" y="90" on="0"/>
        <pt x="21" y="196" on="1"/>
        <pt x="21" y="298" on="0"/>
        <pt x="87" y="454" on="0"/>
        <pt x="202" y="538" on="0"/>
        <pt x="273" y="538" on="1"/>
        <pt x="381" y="538" on="0"/>
        <pt x="423" y="466" on="1"/>
        <pt x="429" y="466" on="1"/>
        <pt x="474" y="723" on="1"/>
        <pt x="562" y="723" on="1"/>
        <pt x="435" y="0" on="1"/>
        <pt x="370" y="0" on="1"/>
      </contour>
      <contour>
        <pt x="281" y="61" on="0"/>
        <pt x="360" y="140" on="0"/>
        <pt x="400" y="268" on="0"/>
        <pt x="400" y="341" on="1"/>
        <pt x="400" y="403" on="0"/>
        <pt x="345" y="465" on="0"/>
        <pt x="285" y="465" on="1"/>
        <pt x="203" y="465" on="0"/>
        <pt x="113" y="311" on="0"/>
        <pt x="113" y="192" on="1"/>
        <pt x="113" y="121" on="0"/>
        <pt x="166" y="61" on="0"/>
        <pt x="224" y="61" on="1"/>
      </contour>
    </TTGlyph>
    <TTGlyph name="dagger" xMin="66" yMin="-170" xMax="548" yMax="686">
      <contour>
        <pt x="271" y="431" on="1"/>
        <pt x="66" y="413" on="1"/>
        <pt x="83" y="506" on="1"/>
        <pt x="282" y="489" on="1"/>
        <pt x="303" y="686" on="1"/>
        <pt x="391" y="686" on="1"/>
        <pt x="342" y="489" on="1"/>
        <pt x="548" y="506" on="1"/>
        <pt x="531" y="413" on="1"/>
        <pt x="331" y="431" on="1"/>
        <pt x="242" y="-170" on="1"/>
        <pt x="148" y="-170" on="1"/>
      </contour>
    </TTGlyph>
    <TTGlyph name="daggerdbl" xMin="-4" yMin="-170" xMax="547" yMax="686">
      <contour>
        <pt x="238" y="-170" on="1"/>
        <pt x="150" y="-170" on="1"/>
        <pt x="199" y="27" on="1"/>
        <pt x="-4" y="10" on="1"/>
        <pt x="11" y="103" on="1"/>
        <pt x="210" y="85" on="1"/>
        <pt x="223" y="260" on="1"/>
        <pt x="270" y="431" on="1"/>
        <pt x="65" y="413" on="1"/>
        <pt x="82" y="506" on="1"/>
        <pt x="281" y="489" on="1"/>
        <pt x="302" y="686" on="1"/>
        <pt x="390" y="686" on="1"/>
        <pt x="341" y="489" on="1"/>
        <pt x="547" y="506" on="1"/>
        <pt x="530" y="413" on="1"/>
        <pt x="330" y="431" on="1"/>
        <pt x="317" y="260" on="1"/>
        <pt x="270" y="85" on="1"/>
        <pt x="476" y="103" on="1"/>
        <pt x="459" y="10" on="1"/>
        <pt x="259" y="27" on="1"/>
      </contour>
    </TTGlyph>
    <TTGlyph name="dcaron" xMin="21" yMin="-12" xMax="704" yMax="723">
      <contour>
        <pt x="370" y="71" on="1"/>
        <pt x="364" y="71" on="1"/>
        <pt x="333" y="30" on="0"/>
        <pt x="248" y="-12" on="0"/>
        <pt x="199" y="-12" on="1"/>
        <pt x="114" y="-12" on="0"/>
        <pt x="21" y="90" on="0"/>
        <pt x="21" y="196" on="1"/>
        <pt x="21" y="298" on="0"/>
        <pt x="87" y="454" on="0"/>
        <pt x="202" y="538" on="0"/>
        <pt x="273" y="538" on="1"/>
        <pt x="381" y="538" on="0"/>
        <pt x="423" y="466" on="1"/>
        <pt x="429" y="466" on="1"/>
        <pt x="474" y="723" on="1"/>
        <pt x="562" y="723" on="1"/>
        <pt x="435" y="0" on="1"/>
        <pt x="370" y="0" on="1"/>
      </contour>
      <contour>
        <pt x="635" y="595" on="1"/>
        <pt x="603" y="595" on="1"/>
        <pt x="619" y="686" on="1"/>
        <pt x="704" y="686" on="1"/>
        <pt x="689" y="602" on="1"/>
        <pt x="628" y="490" on="1"/>
        <pt x="582" y="490" on="1"/>
      </contour>
      <contour>
        <pt x="281" y="61" on="0"/>
        <pt x="360" y="140" on="0"/>
        <pt x="400" y="268" on="0"/>
        <pt x="400" y="341" on="1"/>
        <pt x="400" y="403" on="0"/>
        <pt x="345" y="465" on="0"/>
        <pt x="285" y="465" on="1"/>
        <pt x="203" y="465" on="0"/>
        <pt x="113" y="311" on="0"/>
        <pt x="113" y="192" on="1"/>
        <pt x="113" y="121" on="0"/>
        <pt x="166" y="61" on="0"/>
        <pt x="224" y="61" on="1"/>
      </contour>
    </TTGlyph>
    <TTGlyph name="dcroat" xMin="21" yMin="-12" xMax="620" yMax="723">
      <contour>
        <pt x="370" y="71" on="1"/>
        <pt x="364" y="71" on="1"/>
        <pt x="333" y="30" on="0"/>
        <pt x="248" y="-12" on="0"/>
        <pt x="199" y="-12" on="1"/>
        <pt x="114" y="-12" on="0"/>
        <pt x="21" y="90" on="0"/>
        <pt x="21" y="196" on="1"/>
        <pt x="21" y="298" on="0"/>
        <pt x="87" y="454" on="0"/>
        <pt x="202" y="538" on="0"/>
        <pt x="273" y="538" on="1"/>
        <pt x="381" y="538" on="0"/>
        <pt x="423" y="466" on="1"/>
        <pt x="429" y="466" on="1"/>
        <pt x="452" y="596" on="1"/>
        <pt x="315" y="596" on="1"/>
        <pt x="326" y="658" on="1"/>
        <pt x="462" y="658" on="1"/>
        <pt x="474" y="723" on="1"/>
        <pt x="562" y="723" on="1"/>
        <pt x="550" y="658" on="1"/>
        <pt x="620" y="658" on="1"/>
        <pt x="609" y="596" on="1"/>
        <pt x="539" y="596" on="1"/>
        <pt x="435" y="0" on="1"/>
        <pt x="370" y="0" on="1"/>
      </contour>
      <contour>
        <pt x="281" y="61" on="0"/>
        <pt x="360" y="140" on="0"/>
        <pt x="400" y="268" on="0"/>
        <pt x="400" y="341" on="1"/>
        <pt x="400" y="403" on="0"/>
        <pt x="345" y="465" on="0"/>
        <pt x="285" y="465" on="1"/>
        <pt x="203" y="465" on="0"/>
        <pt x="113" y="311" on="0"/>
        <pt x="113" y="192" on="1"/>
        <pt x="113" y="121" on="0"/>
        <pt x="166" y="61" on="0"/>
        <pt x="224" y="61" on="1"/>
      </contour>
    </TTGlyph>
    <TTGlyph name="degree" xMin="90" yMin="428" xMax="360" yMax="698">
      <contour>
        <pt x="188" y="428" on="0"/>
        <pt x="126" y="464" on="0"/>
        <pt x="90" y="526" on="0"/>
        <pt x="90" y="563" on="1"/>
        <pt x="90" y="600" on="0"/>
        <pt x="126" y="662" on="0"/>
        <pt x="188" y="698" on="0"/>
        <pt x="225" y="698" on="1"/>
        <pt x="262" y="698" on="0"/>
        <pt x="324" y="662" on="0"/>
        <pt x="360" y="600" on="0"/>
        <pt x="360" y="563" on="1"/>
        <pt x="360" y="526" on="0"/>
        <pt x="324" y="464" on="0"/>
        <pt x="262" y="428" on="0"/>
        <pt x="225" y="428" on="1"/>
      </contour>
      <contour>
        <pt x="259" y="481" on="0"/>
        <pt x="306" y="529" on="0"/>
        <pt x="306" y="563" on="1"/>
        <pt x="306" y="597" on="0"/>
        <pt x="259" y="644" on="0"/>
        <pt x="225" y="644" on="1"/>
        <pt x="191" y="644" on="0"/>
        <pt x="143" y="597" on="0"/>
        <pt x="143" y="563" on="1"/>
        <pt x="143" y="529" on="0"/>
        <pt x="191" y="481" on="0"/>
        <pt x="225" y="481" on="1"/>
      </contour>
    </TTGlyph>
    <TTGlyph name="dieresis" xMin="21" yMin="628" xMax="312" yMax="723">
      <contour>
        <pt x="38" y="723" on="1"/>
        <pt x="125" y="723" on="1"/>
        <pt x="108" y="628" on="1"/>
        <pt x="21" y="628" on="1"/>
      </contour>
      <contour>
        <pt x="225" y="723" on="1"/>
        <pt x="312" y="723" on="1"/>
        <pt x="295" y="628" on="1"/>
        <pt x="208" y="628" on="1"/>
      </contour>
    </TTGlyph>
    <TTGlyph name="divide" xMin="30" yMin="0" xMax="518" yMax="511">
      <contour>
        <pt x="269" y="511" on="1"/>
        <pt x="369" y="511" on="1"/>
        <pt x="351" y="411" on="1"/>
        <pt x="251" y="411" on="1"/>
      </contour>
      <contour>
        <pt x="45" y="297" on="1"/>
        <pt x="518" y="297" on="1"/>
        <pt x="503" y="214" on="1"/>
        <pt x="30" y="214" on="1"/>
      </contour>
      <contour>
        <pt x="196" y="100" on="1"/>
        <pt x="296" y="100" on="1"/>
        <pt x="278" y="0" on="1"/>
        <pt x="178" y="0" on="1"/>
      </contour>
    </TTGlyph>
    <TTGlyph name="dollar" xMin="38" yMin="-49" xMax="504" yMax="723">
      <contour>
        <pt x="355" y="615" on="1"/>
        <pt x="427" y="607" on="0"/>
        <pt x="504" y="542" on="0"/>
        <pt x="504" y="495" on="1"/>
        <pt x="504" y="485" on="0"/>
        <pt x="499" y="459" on="0"/>
        <pt x="497" y="454" on="1"/>
        <pt x="411" y="454" on="1"/>
        <pt x="413" y="463" on="1"/>
        <pt x="414" y="468" on="0"/>
        <pt x="414" y="477" on="1"/>
        <pt x="414" y="503" on="0"/>
        <pt x="380" y="538" on="0"/>
        <pt x="342" y="542" on="1"/>
        <pt x="314" y="388" on="1"/>
        <pt x="363" y="375" on="0"/>
        <pt x="429" y="345" on="0"/>
        <pt x="474" y="292" on="0"/>
        <pt x="474" y="250" on="1"/>
        <pt x="474" y="161" on="0"/>
        <pt x="350" y="69" on="0"/>
        <pt x="257" y="67" on="1"/>
        <pt x="237" y="-49" on="1"/>
        <pt x="186" y="-49" on="1"/>
        <pt x="207" y="69" on="1"/>
        <pt x="121" y="76" on="0"/>
        <pt x="38" y="146" on="0"/>
        <pt x="38" y="197" on="1"/>
        <pt x="38" y="211" on="0"/>
        <pt x="44" y="239" on="0"/>
        <pt x="45" y="243" on="1"/>
        <pt x="132" y="243" on="1"/>
        <pt x="130" y="233" on="1"/>
        <pt x="128" y="221" on="0"/>
        <pt x="128" y="216" on="1"/>
        <pt x="128" y="182" on="0"/>
        <pt x="177" y="144" on="0"/>
        <pt x="219" y="140" on="1"/>
        <pt x="251" y="316" on="1"/>
        <pt x="202" y="330" on="0"/>
        <pt x="139" y="358" on="0"/>
        <pt x="96" y="408" on="0"/>
        <pt x="96" y="447" on="1"/>
        <pt x="96" y="521" on="0"/>
        <pt x="213" y="614" on="0"/>
        <pt x="304" y="617" on="1"/>
        <pt x="323" y="723" on="1"/>
        <pt x="374" y="723" on="1"/>
      </contour>
      <contour>
        <pt x="190" y="443" on="0"/>
        <pt x="229" y="413" on="0"/>
        <pt x="266" y="402" on="1"/>
        <pt x="291" y="543" on="1"/>
        <pt x="235" y="538" on="0"/>
        <pt x="190" y="492" on="0"/>
        <pt x="190" y="467" on="1"/>
      </contour>
      <contour>
        <pt x="379" y="254" on="0"/>
        <pt x="338" y="288" on="0"/>
        <pt x="299" y="302" on="1"/>
        <pt x="270" y="140" on="1"/>
        <pt x="318" y="146" on="0"/>
        <pt x="379" y="191" on="0"/>
        <pt x="379" y="226" on="1"/>
      </contour>
    </TTGlyph>
    <TTGlyph name="dotaccent" xMin="114" yMin="628" xMax="218" yMax="723">
      <contour>
        <pt x="131" y="723" on="1"/>
        <pt x="218" y="723" on="1"/>
        <pt x="201" y="628" on="1"/>
        <pt x="114" y="628" on="1"/>
      </contour>
    </TTGlyph>
    <TTGlyph name="dotbelowcomb" xMin="-295" yMin="-173" xMax="-191" yMax="-78">
      <contour>
        <pt x="-278" y="-78" on="1"/>
        <pt x="-191" y="-78" on="1"/>
        <pt x="-208" y="-173" on="1"/>
        <pt x="-295" y="-173" on="1"/>
      </contour>
    </TTGlyph>
    <TTGlyph name="dotlessi" xMin="35" yMin="0" xMax="216" yMax="526">
      <contour>
        <pt x="128" y="526" on="1"/>
        <pt x="216" y="526" on="1"/>
        <pt x="123" y="0" on="1"/>
        <pt x="35" y="0" on="1"/>
      </contour>
    </TTGlyph>
    <TTGlyph name="e" xMin="21" yMin="-12" xMax="511" yMax="538">
      <contour>
        <pt x="111" y="225" on="0"/>
        <pt x="111" y="201" on="1"/>
        <pt x="111" y="130" on="0"/>
        <pt x="180" y="61" on="0"/>
        <pt x="251" y="61" on="1"/>
        <pt x="308" y="61" on="0"/>
        <pt x="389" y="119" on="0"/>
        <pt x="399" y="179" on="1"/>
        <pt x="485" y="179" on="1"/>
        <pt x="470" y="87" on="0"/>
        <pt x="342" y="-12" on="0"/>
        <pt x="253" y="-12" on="1"/>
        <pt x="136" y="-12" on="0"/>
        <pt x="21" y="90" on="0"/>
        <pt x="21" y="196" on="1"/>
        <pt x="21" y="293" on="0"/>
        <pt x="81" y="448" on="0"/>
        <pt x="209" y="538" on="0"/>
        <pt x="305" y="538" on="1"/>
        <pt x="405" y="538" on="0"/>
        <pt x="511" y="446" on="0"/>
        <pt x="511" y="357" on="1"/>
        <pt x="511" y="326" on="0"/>
        <pt x="503" y="283" on="1"/>
        <pt x="495" y="239" on="1"/>
        <pt x="114" y="239" on="1"/>
      </contour>
      <contour>
        <pt x="422" y="326" on="0"/>
        <pt x="422" y="351" on="1"/>
        <pt x="422" y="465" on="0"/>
        <pt x="302" y="465" on="1"/>
        <pt x="234" y="465" on="0"/>
        <pt x="145" y="386" on="0"/>
        <pt x="127" y="312" on="1"/>
        <pt x="418" y="312" on="1"/>
      </contour>
    </TTGlyph>
    <TTGlyph name="eacute" xMin="21" yMin="-12" xMax="511" yMax="723">
      <component glyphName="e" x="0" y="0" flags="0x0"/>
      <component glyphName="acute" x="229" y="0" flags="0x0"/>
    </TTGlyph>
    <TTGlyph name="ebreve" xMin="21" yMin="-12" xMax="511" yMax="723">
      <component glyphName="e" x="0" y="0" flags="0x0"/>
      <component glyphName="breve" x="173" y="0" flags="0x0"/>
    </TTGlyph>
    <TTGlyph name="ecaron" xMin="21" yMin="-12" xMax="511" yMax="723">
      <component glyphName="e" x="0" y="0" flags="0x0"/>
      <component glyphName="caron" x="181" y="0" flags="0x0"/>
    </TTGlyph>
    <TTGlyph name="ecircumflex" xMin="21" yMin="-12" xMax="511" yMax="723">
      <component glyphName="e" x="0" y="0" flags="0x0"/>
      <component glyphName="circumflex" x="176" y="0" flags="0x0"/>
    </TTGlyph>
    <TTGlyph name="edieresis" xMin="21" yMin="-12" xMax="511" yMax="723">
      <component glyphName="e" x="0" y="0" flags="0x0"/>
      <component glyphName="dieresis" x="184" y="0" flags="0x0"/>
    </TTGlyph>
    <TTGlyph name="edotaccent" xMin="21" yMin="-12" xMax="511" yMax="723">
      <component glyphName="e" x="0" y="0" flags="0x0"/>
      <component glyphName="dotaccent" x="184" y="0" flags="0x0"/>
    </TTGlyph>
    <TTGlyph name="egrave" xMin="21" yMin="-12" xMax="511" yMax="723">
      <component glyphName="e" x="0" y="0" flags="0x0"/>
      <component glyphName="grave" x="127" y="0" flags="0x0"/>
    </TTGlyph>
    <TTGlyph name="eight" xMin="12" yMin="-12" xMax="534" yMax="698">
      <contour>
        <pt x="497" y="312" on="0"/>
        <pt x="497" y="218" on="1"/>
        <pt x="497" y="155" on="0"/>
        <pt x="436" y="50" on="0"/>
        <pt x="315" y="-12" on="0"/>
        <pt x="229" y="-12" on="1"/>
        <pt x="118" y="-12" on="0"/>
        <pt x="12" y="78" on="0"/>
        <pt x="12" y="153" on="1"/>
        <pt x="12" y="222" on="0"/>
        <pt x="85" y="326" on="0"/>
        <pt x="157" y="352" on="1"/>
        <pt x="122" y="373" on="0"/>
        <pt x="86" y="438" on="0"/>
        <pt x="86" y="479" on="1"/>
        <pt x="86" y="538" on="0"/>
        <pt x="148" y="638" on="0"/>
        <pt x="261" y="698" on="0"/>
        <pt x="334" y="698" on="1"/>
        <pt x="432" y="698" on="0"/>
        <pt x="534" y="608" on="0"/>
        <pt x="534" y="536" on="1"/>
        <pt x="534" y="477" on="0"/>
        <pt x="469" y="379" on="0"/>
        <pt x="409" y="352" on="1"/>
      </contour>
      <contour>
        <pt x="354" y="387" on="0"/>
        <pt x="445" y="464" on="0"/>
        <pt x="445" y="531" on="1"/>
        <pt x="445" y="575" on="0"/>
        <pt x="385" y="625" on="0"/>
        <pt x="331" y="625" on="1"/>
        <pt x="263" y="625" on="0"/>
        <pt x="175" y="547" on="0"/>
        <pt x="175" y="481" on="1"/>
        <pt x="175" y="437" on="0"/>
        <pt x="235" y="387" on="0"/>
        <pt x="289" y="387" on="1"/>
      </contour>
      <contour>
        <pt x="304" y="61" on="0"/>
        <pt x="405" y="139" on="0"/>
        <pt x="405" y="215" on="1"/>
        <pt x="405" y="262" on="0"/>
        <pt x="340" y="314" on="0"/>
        <pt x="276" y="314" on="1"/>
        <pt x="197" y="314" on="0"/>
        <pt x="103" y="230" on="0"/>
        <pt x="103" y="160" on="1"/>
        <pt x="103" y="113" on="0"/>
        <pt x="169" y="61" on="0"/>
        <pt x="232" y="61" on="1"/>
      </contour>
    </TTGlyph>
    <TTGlyph name="ellipsis" xMin="85" yMin="0" xMax="870" yMax="108">
      <contour>
        <pt x="105" y="108" on="1"/>
        <pt x="205" y="108" on="1"/>
        <pt x="185" y="0" on="1"/>
        <pt x="85" y="0" on="1"/>
      </contour>
      <contour>
        <pt x="438" y="108" on="1"/>
        <pt x="538" y="108" on="1"/>
        <pt x="518" y="0" on="1"/>
        <pt x="418" y="0" on="1"/>
      </contour>
      <contour>
        <pt x="770" y="108" on="1"/>
        <pt x="870" y="108" on="1"/>
        <pt x="850" y="0" on="1"/>
        <pt x="750" y="0" on="1"/>
      </contour>
    </TTGlyph>
    <TTGlyph name="emacron" xMin="21" yMin="-12" xMax="511" yMax="711">
      <contour>
        <pt x="196" y="711" on="1"/>
        <pt x="501" y="711" on="1"/>
        <pt x="488" y="639" on="1"/>
        <pt x="183" y="639" on="1"/>
      </contour>
      <contour>
        <pt x="111" y="225" on="0"/>
        <pt x="111" y="201" on="1"/>
        <pt x="111" y="130" on="0"/>
        <pt x="180" y="61" on="0"/>
        <pt x="251" y="61" on="1"/>
        <pt x="308" y="61" on="0"/>
        <pt x="389" y="119" on="0"/>
        <pt x="399" y="179" on="1"/>
        <pt x="485" y="179" on="1"/>
        <pt x="470" y="87" on="0"/>
        <pt x="342" y="-12" on="0"/>
        <pt x="253" y="-12" on="1"/>
        <pt x="136" y="-12" on="0"/>
        <pt x="21" y="90" on="0"/>
        <pt x="21" y="196" on="1"/>
        <pt x="21" y="293" on="0"/>
        <pt x="81" y="448" on="0"/>
        <pt x="209" y="538" on="0"/>
        <pt x="305" y="538" on="1"/>
        <pt x="405" y="538" on="0"/>
        <pt x="511" y="446" on="0"/>
        <pt x="511" y="357" on="1"/>
        <pt x="511" y="326" on="0"/>
        <pt x="503" y="283" on="1"/>
        <pt x="495" y="239" on="1"/>
        <pt x="114" y="239" on="1"/>
      </contour>
      <contour>
        <pt x="422" y="326" on="0"/>
        <pt x="422" y="351" on="1"/>
        <pt x="422" y="465" on="0"/>
        <pt x="302" y="465" on="1"/>
        <pt x="234" y="465" on="0"/>
        <pt x="145" y="386" on="0"/>
        <pt x="127" y="312" on="1"/>
        <pt x="418" y="312" on="1"/>
      </contour>
    </TTGlyph>
    <TTGlyph name="emdash" xMin="-6" yMin="233" xMax="1006" yMax="308">
      <contour>
        <pt x="6" y="308" on="1"/>
        <pt x="1006" y="308" on="1"/>
        <pt x="993" y="233" on="1"/>
        <pt x="-6" y="233" on="1"/>
      </contour>
    </TTGlyph>
    <TTGlyph name="endash" xMin="-6" yMin="233" xMax="562" yMax="308">
      <contour>
        <pt x="6" y="308" on="1"/>
        <pt x="562" y="308" on="1"/>
        <pt x="549" y="233" on="1"/>
        <pt x="-6" y="233" on="1"/>
      </contour>
    </TTGlyph>
    <TTGlyph name="eng" xMin="13" yMin="-182" xMax="506" yMax="538">
      <contour>
        <pt x="415" y="376" on="0"/>
        <pt x="415" y="396" on="1"/>
        <pt x="415" y="434" on="0"/>
        <pt x="374" y="465" on="0"/>
        <pt x="337" y="465" on="1"/>
        <pt x="296" y="465" on="0"/>
        <pt x="219" y="425" on="0"/>
        <pt x="163" y="351" on="0"/>
        <pt x="154" y="301" on="1"/>
        <pt x="101" y="0" on="1"/>
        <pt x="13" y="0" on="1"/>
        <pt x="106" y="526" on="1"/>
        <pt x="170" y="526" on="1"/>
        <pt x="170" y="455" on="1"/>
        <pt x="177" y="455" on="1"/>
        <pt x="207" y="492" on="0"/>
        <pt x="301" y="538" on="0"/>
        <pt x="349" y="538" on="1"/>
        <pt x="425" y="538" on="0"/>
        <pt x="506" y="479" on="0"/>
        <pt x="506" y="414" on="1"/>
        <pt x="506" y="389" on="0"/>
        <pt x="499" y="349" on="1"/>
        <pt x="427" y="-61" on="1"/>
        <pt x="417" y="-116" on="0"/>
        <pt x="361" y="-182" on="0"/>
        <pt x="297" y="-182" on="1"/>
        <pt x="262" y="-182" on="0"/>
        <pt x="230" y="-170" on="1"/>
        <pt x="240" y="-113" on="1"/>
        <pt x="284" y="-113" on="1"/>
        <pt x="331" y="-113" on="0"/>
        <pt x="339" y="-65" on="1"/>
        <pt x="410" y="343" on="1"/>
      </contour>
    </TTGlyph>
    <TTGlyph name="eogonek" xMin="21" yMin="-182" xMax="511" yMax="538">
      <contour>
        <pt x="388" y="-182" on="0"/>
        <pt x="360" y="-182" on="1"/>
        <pt x="323" y="-182" on="0"/>
        <pt x="272" y="-142" on="0"/>
        <pt x="272" y="-98" on="1"/>
        <pt x="272" y="-50" on="0"/>
        <pt x="300" y="-8" on="1"/>
        <pt x="270" y="-12" on="0"/>
        <pt x="253" y="-12" on="1"/>
        <pt x="136" y="-12" on="0"/>
        <pt x="21" y="90" on="0"/>
        <pt x="21" y="196" on="1"/>
        <pt x="21" y="293" on="0"/>
        <pt x="81" y="448" on="0"/>
        <pt x="209" y="538" on="0"/>
        <pt x="305" y="538" on="1"/>
        <pt x="405" y="538" on="0"/>
        <pt x="511" y="446" on="0"/>
        <pt x="511" y="357" on="1"/>
        <pt x="511" y="326" on="0"/>
        <pt x="503" y="283" on="1"/>
        <pt x="495" y="239" on="1"/>
        <pt x="114" y="239" on="1"/>
        <pt x="111" y="225" on="0"/>
        <pt x="111" y="201" on="1"/>
        <pt x="111" y="130" on="0"/>
        <pt x="180" y="61" on="0"/>
        <pt x="251" y="61" on="1"/>
        <pt x="308" y="61" on="0"/>
        <pt x="389" y="119" on="0"/>
        <pt x="399" y="179" on="1"/>
        <pt x="485" y="179" on="1"/>
        <pt x="478" y="133" on="0"/>
        <pt x="441" y="67" on="0"/>
        <pt x="408" y="39" on="1"/>
        <pt x="389" y="23" on="0"/>
        <pt x="357" y="-37" on="0"/>
        <pt x="357" y="-66" on="1"/>
        <pt x="357" y="-89" on="0"/>
        <pt x="378" y="-117" on="0"/>
        <pt x="401" y="-117" on="1"/>
        <pt x="433" y="-117" on="1"/>
        <pt x="424" y="-168" on="1"/>
      </contour>
      <contour>
        <pt x="422" y="326" on="0"/>
        <pt x="422" y="351" on="1"/>
        <pt x="422" y="465" on="0"/>
        <pt x="302" y="465" on="1"/>
        <pt x="234" y="465" on="0"/>
        <pt x="145" y="386" on="0"/>
        <pt x="127" y="312" on="1"/>
        <pt x="418" y="312" on="1"/>
      </contour>
    </TTGlyph>
    <TTGlyph name="equal" xMin="29" yMin="106" xMax="555" yMax="402">
      <contour>
        <pt x="82" y="402" on="1"/>
        <pt x="555" y="402" on="1"/>
        <pt x="540" y="318" on="1"/>
        <pt x="67" y="318" on="1"/>
      </contour>
      <contour>
        <pt x="44" y="189" on="1"/>
        <pt x="517" y="189" on="1"/>
        <pt x="502" y="106" on="1"/>
        <pt x="29" y="106" on="1"/>
      </contour>
    </TTGlyph>
    <TTGlyph name="equivalence" xMin="0" yMin="7" xMax="561" yMax="516">
      <contour>
        <pt x="89" y="516" on="1"/>
        <pt x="561" y="516" on="1"/>
        <pt x="547" y="432" on="1"/>
        <pt x="75" y="432" on="1"/>
      </contour>
      <contour>
        <pt x="52" y="303" on="1"/>
        <pt x="524" y="303" on="1"/>
        <pt x="509" y="219" on="1"/>
        <pt x="37" y="219" on="1"/>
      </contour>
      <contour>
        <pt x="14" y="90" on="1"/>
        <pt x="486" y="90" on="1"/>
        <pt x="472" y="7" on="1"/>
        <pt x="0" y="7" on="1"/>
      </contour>
    </TTGlyph>
    <TTGlyph name="estimated" xMin="45" yMin="-12" xMax="559" yMax="538">
      <contour>
        <pt x="494" y="57" on="0"/>
        <pt x="379" y="-12" on="0"/>
        <pt x="302" y="-12" on="1"/>
        <pt x="224" y="-12" on="0"/>
        <pt x="107" y="59" on="0"/>
        <pt x="45" y="183" on="0"/>
        <pt x="45" y="263" on="1"/>
        <pt x="45" y="343" on="0"/>
        <pt x="107" y="467" on="0"/>
        <pt x="224" y="538" on="0"/>
        <pt x="302" y="538" on="1"/>
        <pt x="380" y="538" on="0"/>
        <pt x="496" y="465" on="0"/>
        <pt x="559" y="335" on="0"/>
        <pt x="559" y="253" on="1"/>
        <pt x="559" y="248" on="1"/>
        <pt x="153" y="248" on="1"/>
        <pt x="153" y="83" on="1"/>
        <pt x="211" y="30" on="0"/>
        <pt x="302" y="30" on="1"/>
        <pt x="367" y="30" on="0"/>
        <pt x="466" y="88" on="0"/>
        <pt x="492" y="139" on="1"/>
        <pt x="526" y="118" on="1"/>
      </contour>
      <contour>
        <pt x="391" y="496" on="0"/>
        <pt x="302" y="496" on="1"/>
        <pt x="212" y="496" on="0"/>
        <pt x="153" y="442" on="1"/>
        <pt x="153" y="290" on="1"/>
        <pt x="451" y="290" on="1"/>
        <pt x="451" y="441" on="1"/>
      </contour>
    </TTGlyph>
    <TTGlyph name="eth" xMin="21" yMin="-12" xMax="522" yMax="723">
      <contour>
        <pt x="341" y="538" on="0"/>
        <pt x="378" y="524" on="1"/>
        <pt x="359" y="562" on="0"/>
        <pt x="321" y="612" on="1"/>
        <pt x="167" y="600" on="1"/>
        <pt x="177" y="660" on="1"/>
        <pt x="278" y="668" on="1"/>
        <pt x="246" y="696" on="1"/>
        <pt x="237" y="703" on="0"/>
        <pt x="219" y="719" on="1"/>
        <pt x="221" y="723" on="1"/>
        <pt x="319" y="723" on="1"/>
        <pt x="350" y="696" on="0"/>
        <pt x="368" y="675" on="1"/>
        <pt x="522" y="685" on="1"/>
        <pt x="511" y="625" on="1"/>
        <pt x="417" y="619" on="1"/>
        <pt x="464" y="558" on="0"/>
        <pt x="516" y="416" on="0"/>
        <pt x="516" y="339" on="1"/>
        <pt x="516" y="246" on="0"/>
        <pt x="461" y="87" on="0"/>
        <pt x="337" y="-12" on="0"/>
        <pt x="240" y="-12" on="1"/>
        <pt x="21" y="-12" on="0"/>
        <pt x="21" y="185" on="1"/>
        <pt x="21" y="279" on="0"/>
        <pt x="76" y="438" on="0"/>
        <pt x="200" y="538" on="0"/>
        <pt x="297" y="538" on="1"/>
      </contour>
      <contour>
        <pt x="337" y="61" on="0"/>
        <pt x="424" y="220" on="0"/>
        <pt x="424" y="331" on="1"/>
        <pt x="424" y="401" on="0"/>
        <pt x="361" y="465" on="0"/>
        <pt x="294" y="465" on="1"/>
        <pt x="199" y="465" on="0"/>
        <pt x="113" y="304" on="0"/>
        <pt x="113" y="193" on="1"/>
        <pt x="113" y="124" on="0"/>
        <pt x="176" y="61" on="0"/>
        <pt x="243" y="61" on="1"/>
      </contour>
    </TTGlyph>
    <TTGlyph name="exclam" xMin="29" yMin="0" xMax="257" yMax="686">
      <contour>
        <pt x="143" y="686" on="1"/>
        <pt x="257" y="686" on="1"/>
        <pt x="140" y="171" on="1"/>
        <pt x="78" y="171" on="1"/>
      </contour>
      <contour>
        <pt x="48" y="108" on="1"/>
        <pt x="148" y="108" on="1"/>
        <pt x="129" y="0" on="1"/>
        <pt x="29" y="0" on="1"/>
      </contour>
    </TTGlyph>
    <TTGlyph name="exclamdbl" xMin="37" yMin="0" xMax="485" yMax="686">
      <contour>
        <pt x="151" y="686" on="1"/>
        <pt x="265" y="686" on="1"/>
        <pt x="148" y="171" on="1"/>
        <pt x="86" y="171" on="1"/>
      </contour>
      <contour>
        <pt x="371" y="686" on="1"/>
        <pt x="485" y="686" on="1"/>
        <pt x="368" y="171" on="1"/>
        <pt x="306" y="171" on="1"/>
      </contour>
      <contour>
        <pt x="56" y="108" on="1"/>
        <pt x="156" y="108" on="1"/>
        <pt x="137" y="0" on="1"/>
        <pt x="37" y="0" on="1"/>
      </contour>
      <contour>
        <pt x="276" y="108" on="1"/>
        <pt x="376" y="108" on="1"/>
        <pt x="357" y="0" on="1"/>
        <pt x="257" y="0" on="1"/>
      </contour>
    </TTGlyph>
    <TTGlyph name="exclamdown" xMin="62" yMin="-160" xMax="290" yMax="526">
      <contour>
        <pt x="190" y="526" on="1"/>
        <pt x="290" y="526" on="1"/>
        <pt x="271" y="418" on="1"/>
        <pt x="171" y="418" on="1"/>
      </contour>
      <contour>
        <pt x="179" y="355" on="1"/>
        <pt x="241" y="355" on="1"/>
        <pt x="176" y="-160" on="1"/>
        <pt x="62" y="-160" on="1"/>
      </contour>
    </TTGlyph>
    <TTGlyph name="f" xMin="-101" yMin="-182" xMax="345" yMax="731">
      <contour>
        <pt x="45" y="526" on="1"/>
        <pt x="122" y="526" on="1"/>
        <pt x="137" y="610" on="1"/>
        <pt x="146" y="664" on="0"/>
        <pt x="205" y="731" on="0"/>
        <pt x="272" y="731" on="1"/>
        <pt x="292" y="731" on="0"/>
        <pt x="332" y="724" on="0"/>
        <pt x="345" y="719" on="1"/>
        <pt x="334" y="658" on="1"/>
        <pt x="282" y="658" on="1"/>
        <pt x="233" y="658" on="0"/>
        <pt x="225" y="610" on="1"/>
        <pt x="210" y="526" on="1"/>
        <pt x="311" y="526" on="1"/>
        <pt x="298" y="453" on="1"/>
        <pt x="197" y="453" on="1"/>
        <pt x="106" y="-61" on="1"/>
        <pt x="97" y="-116" on="0"/>
        <pt x="39" y="-182" on="0"/>
        <pt x="-28" y="-182" on="1"/>
        <pt x="-48" y="-182" on="0"/>
        <pt x="-88" y="-175" on="0"/>
        <pt x="-101" y="-170" on="1"/>
        <pt x="-90" y="-109" on="1"/>
        <pt x="-38" y="-109" on="1"/>
        <pt x="10" y="-109" on="0"/>
        <pt x="18" y="-61" on="1"/>
        <pt x="109" y="453" on="1"/>
        <pt x="32" y="453" on="1"/>
      </contour>
    </TTGlyph>
    <TTGlyph name="f_f" xMin="-101" yMin="-182" xMax="623" yMax="731">
      <contour>
        <pt x="511" y="658" on="0"/>
        <pt x="503" y="610" on="1"/>
        <pt x="488" y="526" on="1"/>
        <pt x="589" y="526" on="1"/>
        <pt x="576" y="453" on="1"/>
        <pt x="475" y="453" on="1"/>
        <pt x="395" y="0" on="1"/>
        <pt x="307" y="0" on="1"/>
        <pt x="387" y="453" on="1"/>
        <pt x="197" y="453" on="1"/>
        <pt x="106" y="-61" on="1"/>
        <pt x="97" y="-116" on="0"/>
        <pt x="39" y="-182" on="0"/>
        <pt x="-28" y="-182" on="1"/>
        <pt x="-48" y="-182" on="0"/>
        <pt x="-88" y="-175" on="0"/>
        <pt x="-101" y="-170" on="1"/>
        <pt x="-90" y="-109" on="1"/>
        <pt x="-38" y="-109" on="1"/>
        <pt x="10" y="-109" on="0"/>
        <pt x="18" y="-61" on="1"/>
        <pt x="109" y="453" on="1"/>
        <pt x="32" y="453" on="1"/>
        <pt x="45" y="526" on="1"/>
        <pt x="122" y="526" on="1"/>
        <pt x="137" y="610" on="1"/>
        <pt x="146" y="664" on="0"/>
        <pt x="205" y="731" on="0"/>
        <pt x="272" y="731" on="1"/>
        <pt x="292" y="731" on="0"/>
        <pt x="332" y="724" on="0"/>
        <pt x="345" y="719" on="1"/>
        <pt x="334" y="658" on="1"/>
        <pt x="282" y="658" on="1"/>
        <pt x="233" y="658" on="0"/>
        <pt x="225" y="610" on="1"/>
        <pt x="210" y="526" on="1"/>
        <pt x="400" y="526" on="1"/>
        <pt x="415" y="610" on="1"/>
        <pt x="424" y="664" on="0"/>
        <pt x="483" y="731" on="0"/>
        <pt x="550" y="731" on="1"/>
        <pt x="570" y="731" on="0"/>
        <pt x="610" y="724" on="0"/>
        <pt x="623" y="719" on="1"/>
        <pt x="612" y="658" on="1"/>
        <pt x="560" y="658" on="1"/>
      </contour>
    </TTGlyph>
    <TTGlyph name="fi" xMin="-101" yMin="-182" xMax="506" yMax="731">
      <component glyphName="f" x="0" y="0" flags="0x0"/>
      <component glyphName="i" x="278" y="0" flags="0x0"/>
    </TTGlyph>
    <TTGlyph name="five" xMin="14" yMin="-12" xMax="543" yMax="686">
      <contour>
        <pt x="159" y="394" on="1"/>
        <pt x="226" y="446" on="0"/>
        <pt x="325" y="446" on="1"/>
        <pt x="406" y="446" on="0"/>
        <pt x="503" y="355" on="0"/>
        <pt x="503" y="267" on="1"/>
        <pt x="503" y="181" on="0"/>
        <pt x="430" y="54" on="0"/>
        <pt x="304" y="-12" on="0"/>
        <pt x="228" y="-12" on="1"/>
        <pt x="127" y="-12" on="0"/>
        <pt x="14" y="82" on="0"/>
        <pt x="14" y="165" on="1"/>
        <pt x="14" y="190" on="0"/>
        <pt x="18" y="213" on="1"/>
        <pt x="108" y="213" on="1"/>
        <pt x="105" y="195" on="0"/>
        <pt x="105" y="180" on="1"/>
        <pt x="105" y="124" on="0"/>
        <pt x="170" y="60" on="0"/>
        <pt x="223" y="60" on="1"/>
        <pt x="301" y="60" on="0"/>
        <pt x="410" y="157" on="0"/>
        <pt x="410" y="259" on="1"/>
        <pt x="410" y="313" on="0"/>
        <pt x="354" y="372" on="0"/>
        <pt x="304" y="372" on="1"/>
        <pt x="255" y="372" on="0"/>
        <pt x="166" y="329" on="0"/>
        <pt x="137" y="293" on="1"/>
        <pt x="58" y="306" on="1"/>
        <pt x="153" y="686" on="1"/>
        <pt x="543" y="686" on="1"/>
        <pt x="528" y="602" on="1"/>
        <pt x="213" y="602" on="1"/>
      </contour>
    </TTGlyph>
    <TTGlyph name="fiveeighths" xMin="55" yMin="-12" xMax="806" yMax="698">
      <contour>
        <pt x="726" y="698" on="1"/>
        <pt x="806" y="698" on="1"/>
        <pt x="135" y="-12" on="1"/>
        <pt x="55" y="-12" on="1"/>
      </contour>
      <contour>
        <pt x="156" y="551" on="1"/>
        <pt x="186" y="567" on="0"/>
        <pt x="223" y="567" on="1"/>
        <pt x="268" y="567" on="0"/>
        <pt x="322" y="516" on="0"/>
        <pt x="322" y="468" on="1"/>
        <pt x="322" y="401" on="0"/>
        <pt x="241" y="322" on="0"/>
        <pt x="179" y="322" on="1"/>
        <pt x="123" y="322" on="0"/>
        <pt x="61" y="372" on="0"/>
        <pt x="61" y="417" on="1"/>
        <pt x="61" y="433" on="0"/>
        <pt x="63" y="442" on="1"/>
        <pt x="126" y="442" on="1"/>
        <pt x="125" y="437" on="0"/>
        <pt x="125" y="428" on="1"/>
        <pt x="125" y="404" on="0"/>
        <pt x="153" y="377" on="0"/>
        <pt x="176" y="377" on="1"/>
        <pt x="209" y="377" on="0"/>
        <pt x="257" y="422" on="0"/>
        <pt x="257" y="463" on="1"/>
        <pt x="257" y="487" on="0"/>
        <pt x="230" y="511" on="0"/>
        <pt x="206" y="511" on="1"/>
        <pt x="169" y="511" on="0"/>
        <pt x="138" y="491" on="1"/>
        <pt x="85" y="500" on="1"/>
        <pt x="133" y="686" on="1"/>
        <pt x="344" y="686" on="1"/>
        <pt x="334" y="630" on="1"/>
        <pt x="176" y="630" on="1"/>
      </contour>
      <contour>
        <pt x="735" y="167" on="0"/>
        <pt x="755" y="130" on="0"/>
        <pt x="755" y="108" on="1"/>
        <pt x="755" y="57" on="0"/>
        <pt x="679" y="-12" on="0"/>
        <pt x="615" y="-12" on="1"/>
        <pt x="555" y="-12" on="0"/>
        <pt x="497" y="36" on="0"/>
        <pt x="497" y="77" on="1"/>
        <pt x="497" y="110" on="0"/>
        <pt x="531" y="164" on="0"/>
        <pt x="567" y="179" on="1"/>
        <pt x="551" y="191" on="0"/>
        <pt x="534" y="226" on="0"/>
        <pt x="534" y="245" on="1"/>
        <pt x="534" y="293" on="0"/>
        <pt x="607" y="358" on="0"/>
        <pt x="664" y="358" on="1"/>
        <pt x="719" y="358" on="0"/>
        <pt x="775" y="309" on="0"/>
        <pt x="775" y="270" on="1"/>
        <pt x="775" y="244" on="0"/>
        <pt x="744" y="195" on="0"/>
        <pt x="716" y="179" on="1"/>
      </contour>
      <contour>
        <pt x="671" y="205" on="0"/>
        <pt x="711" y="238" on="0"/>
        <pt x="711" y="264" on="1"/>
        <pt x="711" y="283" on="0"/>
        <pt x="685" y="303" on="0"/>
        <pt x="662" y="303" on="1"/>
        <pt x="633" y="303" on="0"/>
        <pt x="597" y="273" on="0"/>
        <pt x="597" y="247" on="1"/>
        <pt x="597" y="227" on="0"/>
        <pt x="622" y="205" on="0"/>
        <pt x="645" y="205" on="1"/>
      </contour>
      <contour>
        <pt x="647" y="43" on="0"/>
        <pt x="691" y="77" on="0"/>
        <pt x="691" y="108" on="1"/>
        <pt x="691" y="128" on="0"/>
        <pt x="662" y="149" on="0"/>
        <pt x="635" y="149" on="1"/>
        <pt x="601" y="149" on="0"/>
        <pt x="561" y="117" on="0"/>
        <pt x="561" y="89" on="1"/>
        <pt x="561" y="43" on="0"/>
        <pt x="617" y="43" on="1"/>
      </contour>
    </TTGlyph>
    <TTGlyph name="fl" xMin="-101" yMin="-182" xMax="506" yMax="731">
      <component glyphName="f" x="0" y="0" flags="0x0"/>
      <component glyphName="l" x="278" y="0" flags="0x0"/>
    </TTGlyph>
    <TTGlyph name="florin" xMin="-24" yMin="-183" xMax="532" yMax="731">
      <contour>
        <pt x="172" y="402" on="1"/>
        <pt x="193" y="475" on="1"/>
        <pt x="270" y="475" on="1"/>
        <pt x="311" y="610" on="1"/>
        <pt x="328" y="666" on="0"/>
        <pt x="393" y="731" on="0"/>
        <pt x="461" y="731" on="1"/>
        <pt x="481" y="731" on="0"/>
        <pt x="521" y="724" on="0"/>
        <pt x="532" y="719" on="1"/>
        <pt x="514" y="658" on="1"/>
        <pt x="462" y="658" on="1"/>
        <pt x="414" y="658" on="0"/>
        <pt x="399" y="610" on="1"/>
        <pt x="358" y="475" on="1"/>
        <pt x="459" y="475" on="1"/>
        <pt x="438" y="402" on="1"/>
        <pt x="337" y="402" on="1"/>
        <pt x="197" y="-62" on="1"/>
        <pt x="180" y="-118" on="0"/>
        <pt x="115" y="-183" on="0"/>
        <pt x="47" y="-183" on="1"/>
        <pt x="27" y="-183" on="0"/>
        <pt x="-13" y="-176" on="0"/>
        <pt x="-24" y="-171" on="1"/>
        <pt x="-6" y="-110" on="1"/>
        <pt x="46" y="-110" on="1"/>
        <pt x="94" y="-110" on="0"/>
        <pt x="109" y="-62" on="1"/>
        <pt x="249" y="402" on="1"/>
      </contour>
    </TTGlyph>
    <TTGlyph name="four" xMin="2" yMin="0" xMax="512" yMax="698">
      <contour>
        <pt x="320" y="169" on="1"/>
        <pt x="2" y="169" on="1"/>
        <pt x="14" y="243" on="1"/>
        <pt x="98" y="354" on="0"/>
        <pt x="229" y="576" on="0"/>
        <pt x="278" y="698" on="1"/>
        <pt x="376" y="698" on="1"/>
        <pt x="342" y="613" on="0"/>
        <pt x="234" y="425" on="0"/>
        <pt x="128" y="273" on="0"/>
        <pt x="100" y="242" on="1"/>
        <pt x="333" y="242" on="1"/>
        <pt x="372" y="467" on="1"/>
        <pt x="403" y="522" on="0"/>
        <pt x="436" y="596" on="1"/>
        <pt x="483" y="596" on="1"/>
        <pt x="421" y="242" on="1"/>
        <pt x="512" y="242" on="1"/>
        <pt x="499" y="169" on="1"/>
        <pt x="408" y="169" on="1"/>
        <pt x="378" y="0" on="1"/>
        <pt x="290" y="0" on="1"/>
      </contour>
    </TTGlyph>
    <TTGlyph name="fraction" xMin="-295" yMin="-12" xMax="456" yMax="698">
      <contour>
        <pt x="376" y="698" on="1"/>
        <pt x="456" y="698" on="1"/>
        <pt x="-215" y="-12" on="1"/>
        <pt x="-295" y="-12" on="1"/>
      </contour>
    </TTGlyph>
    <TTGlyph name="franc" xMin="18" yMin="0" xMax="566" yMax="686">
      <contour>
        <pt x="294" y="312" on="1"/>
        <pt x="163" y="312" on="1"/>
        <pt x="108" y="0" on="1"/>
        <pt x="18" y="0" on="1"/>
        <pt x="139" y="686" on="1"/>
        <pt x="487" y="686" on="1"/>
        <pt x="474" y="611" on="1"/>
        <pt x="216" y="611" on="1"/>
        <pt x="176" y="385" on="1"/>
        <pt x="307" y="385" on="1"/>
        <pt x="321" y="464" on="1"/>
        <pt x="388" y="464" on="1"/>
        <pt x="384" y="385" on="1"/>
        <pt x="390" y="385" on="1"/>
        <pt x="440" y="476" on="0"/>
        <pt x="520" y="476" on="1"/>
        <pt x="538" y="476" on="0"/>
        <pt x="563" y="469" on="0"/>
        <pt x="566" y="468" on="1"/>
        <pt x="551" y="383" on="1"/>
        <pt x="514" y="383" on="1"/>
        <pt x="462" y="383" on="0"/>
        <pt x="383" y="318" on="0"/>
        <pt x="371" y="249" on="1"/>
        <pt x="327" y="0" on="1"/>
        <pt x="239" y="0" on="1"/>
      </contour>
    </TTGlyph>
    <TTGlyph name="g" xMin="-4" yMin="-182" xMax="526" yMax="538">
      <contour>
        <pt x="354" y="80" on="1"/>
        <pt x="288" y="8" on="0"/>
        <pt x="191" y="8" on="1"/>
        <pt x="110" y="8" on="0"/>
        <pt x="21" y="98" on="0"/>
        <pt x="21" y="189" on="1"/>
        <pt x="21" y="292" on="0"/>
        <pt x="84" y="451" on="0"/>
        <pt x="198" y="538" on="0"/>
        <pt x="272" y="538" on="1"/>
        <pt x="328" y="538" on="0"/>
        <pt x="410" y="496" on="0"/>
        <pt x="431" y="455" on="1"/>
        <pt x="437" y="455" on="1"/>
        <pt x="460" y="526" on="1"/>
        <pt x="526" y="526" on="1"/>
        <pt x="444" y="63" on="1"/>
        <pt x="422" y="-60" on="0"/>
        <pt x="297" y="-182" on="0"/>
        <pt x="190" y="-182" on="1"/>
        <pt x="100" y="-182" on="0"/>
        <pt x="-4" y="-107" on="0"/>
        <pt x="-4" y="-35" on="1"/>
        <pt x="-4" y="-25" on="1"/>
        <pt x="82" y="-25" on="1"/>
        <pt x="85" y="-110" on="0"/>
        <pt x="188" y="-110" on="1"/>
        <pt x="323" y="-110" on="0"/>
        <pt x="356" y="59" on="1"/>
        <pt x="360" y="80" on="1"/>
      </contour>
      <contour>
        <pt x="204" y="465" on="0"/>
        <pt x="112" y="311" on="0"/>
        <pt x="112" y="192" on="1"/>
        <pt x="112" y="132" on="0"/>
        <pt x="165" y="81" on="0"/>
        <pt x="224" y="81" on="1"/>
        <pt x="279" y="81" on="0"/>
        <pt x="359" y="155" on="0"/>
        <pt x="399" y="275" on="0"/>
        <pt x="399" y="342" on="1"/>
        <pt x="399" y="403" on="0"/>
        <pt x="347" y="465" on="0"/>
        <pt x="291" y="465" on="1"/>
      </contour>
    </TTGlyph>
    <TTGlyph name="g_tilde.loclGUA" xMin="-4" yMin="-182" xMax="526" yMax="723">
      <component glyphName="g" x="0" y="0" flags="0x0"/>
      <component glyphName="tilde" x="183" y="0" flags="0x0"/>
    </TTGlyph>
    <TTGlyph name="gbreve" xMin="-4" yMin="-182" xMax="526" yMax="723">
      <component glyphName="g" x="0" y="0" flags="0x0"/>
      <component glyphName="breve" x="173" y="0" flags="0x0"/>
    </TTGlyph>
    <TTGlyph name="gcaron" xMin="-4" yMin="-182" xMax="526" yMax="723">
      <component glyphName="g" x="0" y="0" flags="0x0"/>
      <component glyphName="caron" x="181" y="0" flags="0x0"/>
    </TTGlyph>
    <TTGlyph name="gcircumflex" xMin="-4" yMin="-182" xMax="526" yMax="723">
      <component glyphName="g" x="0" y="0" flags="0x0"/>
      <component glyphName="circumflex" x="176" y="0" flags="0x0"/>
    </TTGlyph>
    <TTGlyph name="gcommaaccent" xMin="-4" yMin="-182" xMax="526" yMax="780">
      <contour>
        <pt x="281" y="692" on="1"/>
        <pt x="340" y="780" on="1"/>
        <pt x="387" y="780" on="1"/>
        <pt x="335" y="699" on="1"/>
        <pt x="370" y="699" on="1"/>
        <pt x="354" y="608" on="1"/>
        <pt x="266" y="608" on="1"/>
      </contour>
      <contour>
        <pt x="354" y="80" on="1"/>
        <pt x="288" y="8" on="0"/>
        <pt x="191" y="8" on="1"/>
        <pt x="110" y="8" on="0"/>
        <pt x="21" y="98" on="0"/>
        <pt x="21" y="189" on="1"/>
        <pt x="21" y="292" on="0"/>
        <pt x="84" y="451" on="0"/>
        <pt x="198" y="538" on="0"/>
        <pt x="272" y="538" on="1"/>
        <pt x="328" y="538" on="0"/>
        <pt x="410" y="496" on="0"/>
        <pt x="431" y="455" on="1"/>
        <pt x="437" y="455" on="1"/>
        <pt x="460" y="526" on="1"/>
        <pt x="526" y="526" on="1"/>
        <pt x="444" y="63" on="1"/>
        <pt x="422" y="-60" on="0"/>
        <pt x="297" y="-182" on="0"/>
        <pt x="190" y="-182" on="1"/>
        <pt x="100" y="-182" on="0"/>
        <pt x="-4" y="-107" on="0"/>
        <pt x="-4" y="-35" on="1"/>
        <pt x="-4" y="-25" on="1"/>
        <pt x="82" y="-25" on="1"/>
        <pt x="85" y="-110" on="0"/>
        <pt x="188" y="-110" on="1"/>
        <pt x="323" y="-110" on="0"/>
        <pt x="356" y="59" on="1"/>
        <pt x="360" y="80" on="1"/>
      </contour>
      <contour>
        <pt x="204" y="465" on="0"/>
        <pt x="112" y="311" on="0"/>
        <pt x="112" y="192" on="1"/>
        <pt x="112" y="132" on="0"/>
        <pt x="165" y="81" on="0"/>
        <pt x="224" y="81" on="1"/>
        <pt x="279" y="81" on="0"/>
        <pt x="359" y="155" on="0"/>
        <pt x="399" y="275" on="0"/>
        <pt x="399" y="342" on="1"/>
        <pt x="399" y="403" on="0"/>
        <pt x="347" y="465" on="0"/>
        <pt x="291" y="465" on="1"/>
      </contour>
    </TTGlyph>
    <TTGlyph name="gdotaccent" xMin="-4" yMin="-182" xMax="526" yMax="723">
      <component glyphName="g" x="0" y="0" flags="0x0"/>
      <component glyphName="dotaccent" x="184" y="0" flags="0x0"/>
    </TTGlyph>
    <TTGlyph name="germandbls" xMin="6" yMin="0" xMax="595" yMax="735">
      <contour>
        <pt x="191" y="74" on="1"/>
        <pt x="305" y="74" on="1"/>
        <pt x="346" y="74" on="0"/>
        <pt x="424" y="117" on="0"/>
        <pt x="472" y="188" on="0"/>
        <pt x="472" y="228" on="1"/>
        <pt x="472" y="283" on="0"/>
        <pt x="400" y="350" on="0"/>
        <pt x="343" y="350" on="1"/>
        <pt x="239" y="350" on="1"/>
        <pt x="252" y="423" on="1"/>
        <pt x="346" y="423" on="1"/>
        <pt x="386" y="423" on="0"/>
        <pt x="459" y="461" on="0"/>
        <pt x="504" y="523" on="0"/>
        <pt x="504" y="558" on="1"/>
        <pt x="504" y="606" on="0"/>
        <pt x="438" y="662" on="0"/>
        <pt x="375" y="662" on="1"/>
        <pt x="297" y="662" on="0"/>
        <pt x="198" y="588" on="0"/>
        <pt x="185" y="518" on="1"/>
        <pt x="94" y="0" on="1"/>
        <pt x="6" y="0" on="1"/>
        <pt x="96" y="516" on="1"/>
        <pt x="115" y="627" on="0"/>
        <pt x="269" y="735" on="0"/>
        <pt x="379" y="735" on="1"/>
        <pt x="476" y="735" on="0"/>
        <pt x="595" y="648" on="0"/>
        <pt x="595" y="573" on="1"/>
        <pt x="595" y="516" on="0"/>
        <pt x="512" y="414" on="0"/>
        <pt x="446" y="395" on="1"/>
        <pt x="446" y="391" on="1"/>
        <pt x="500" y="373" on="0"/>
        <pt x="561" y="291" on="0"/>
        <pt x="561" y="233" on="1"/>
        <pt x="561" y="166" on="0"/>
        <pt x="488" y="60" on="0"/>
        <pt x="372" y="0" on="0"/>
        <pt x="312" y="0" on="1"/>
        <pt x="178" y="0" on="1"/>
      </contour>
    </TTGlyph>
    <TTGlyph name="grave" xMin="86" yMin="591" xMax="246" yMax="723">
      <contour>
        <pt x="86" y="720" on="1"/>
        <pt x="87" y="723" on="1"/>
        <pt x="183" y="723" on="1"/>
        <pt x="246" y="591" on="1"/>
        <pt x="171" y="591" on="1"/>
      </contour>
    </TTGlyph>
    <TTGlyph name="greater" xMin="10" yMin="4" xMax="538" yMax="504">
      <contour>
        <pt x="27" y="97" on="1"/>
        <pt x="449" y="257" on="1"/>
        <pt x="84" y="417" on="1"/>
        <pt x="99" y="504" on="1"/>
        <pt x="538" y="307" on="1"/>
        <pt x="519" y="200" on="1"/>
        <pt x="10" y="4" on="1"/>
      </contour>
    </TTGlyph>
    <TTGlyph name="greaterequal" xMin="-17" yMin="0" xMax="532" yMax="624">
      <contour>
        <pt x="21" y="217" on="1"/>
        <pt x="443" y="377" on="1"/>
        <pt x="78" y="537" on="1"/>
        <pt x="93" y="624" on="1"/>
        <pt x="532" y="427" on="1"/>
        <pt x="513" y="320" on="1"/>
        <pt x="4" y="124" on="1"/>
      </contour>
      <contour>
        <pt x="-2" y="83" on="1"/>
        <pt x="470" y="83" on="1"/>
        <pt x="455" y="0" on="1"/>
        <pt x="-17" y="0" on="1"/>
      </contour>
    </TTGlyph>
    <TTGlyph name="guillemotleft" xMin="83" yMin="126" xMax="541" yMax="526">
      <contour>
        <pt x="83" y="326" on="1"/>
        <pt x="267" y="526" on="1"/>
        <pt x="346" y="526" on="1"/>
        <pt x="182" y="326" on="1"/>
        <pt x="275" y="126" on="1"/>
        <pt x="204" y="126" on="1"/>
      </contour>
      <contour>
        <pt x="278" y="326" on="1"/>
        <pt x="462" y="526" on="1"/>
        <pt x="541" y="526" on="1"/>
        <pt x="377" y="326" on="1"/>
        <pt x="470" y="126" on="1"/>
        <pt x="399" y="126" on="1"/>
      </contour>
    </TTGlyph>
    <TTGlyph name="guillemotright" xMin="19" yMin="126" xMax="478" yMax="526">
      <contour>
        <pt x="184" y="326" on="1"/>
        <pt x="90" y="526" on="1"/>
        <pt x="161" y="526" on="1"/>
        <pt x="283" y="326" on="1"/>
        <pt x="98" y="126" on="1"/>
        <pt x="19" y="126" on="1"/>
      </contour>
      <contour>
        <pt x="379" y="326" on="1"/>
        <pt x="285" y="526" on="1"/>
        <pt x="356" y="526" on="1"/>
        <pt x="478" y="326" on="1"/>
        <pt x="293" y="126" on="1"/>
        <pt x="214" y="126" on="1"/>
      </contour>
    </TTGlyph>
    <TTGlyph name="guilsinglleft" xMin="55" yMin="126" xMax="318" yMax="526">
      <contour>
        <pt x="55" y="326" on="1"/>
        <pt x="239" y="526" on="1"/>
        <pt x="318" y="526" on="1"/>
        <pt x="154" y="326" on="1"/>
        <pt x="247" y="126" on="1"/>
        <pt x="176" y="126" on="1"/>
      </contour>
    </TTGlyph>
    <TTGlyph name="guilsinglright" xMin="19" yMin="126" xMax="283" yMax="526">
      <contour>
        <pt x="184" y="326" on="1"/>
        <pt x="90" y="526" on="1"/>
        <pt x="161" y="526" on="1"/>
        <pt x="283" y="326" on="1"/>
        <pt x="98" y="126" on="1"/>
        <pt x="19" y="126" on="1"/>
      </contour>
    </TTGlyph>
    <TTGlyph name="h" xMin="13" yMin="0" xMax="506" yMax="723">
      <contour>
        <pt x="187" y="467" on="1"/>
        <pt x="218" y="499" on="0"/>
        <pt x="305" y="538" on="0"/>
        <pt x="349" y="538" on="1"/>
        <pt x="425" y="538" on="0"/>
        <pt x="506" y="479" on="0"/>
        <pt x="506" y="414" on="1"/>
        <pt x="506" y="389" on="0"/>
        <pt x="499" y="349" on="1"/>
        <pt x="438" y="0" on="1"/>
        <pt x="350" y="0" on="1"/>
        <pt x="410" y="343" on="1"/>
        <pt x="415" y="376" on="0"/>
        <pt x="415" y="396" on="1"/>
        <pt x="415" y="434" on="0"/>
        <pt x="374" y="465" on="0"/>
        <pt x="337" y="465" on="1"/>
        <pt x="296" y="465" on="0"/>
        <pt x="219" y="425" on="0"/>
        <pt x="163" y="351" on="0"/>
        <pt x="154" y="301" on="1"/>
        <pt x="101" y="0" on="1"/>
        <pt x="13" y="0" on="1"/>
        <pt x="140" y="723" on="1"/>
        <pt x="228" y="723" on="1"/>
        <pt x="183" y="467" on="1"/>
      </contour>
    </TTGlyph>
    <TTGlyph name="hbar" xMin="13" yMin="0" xMax="506" yMax="723">
      <contour>
        <pt x="356" y="658" on="1"/>
        <pt x="345" y="596" on="1"/>
        <pt x="205" y="596" on="1"/>
        <pt x="183" y="467" on="1"/>
        <pt x="187" y="467" on="1"/>
        <pt x="218" y="499" on="0"/>
        <pt x="305" y="538" on="0"/>
        <pt x="349" y="538" on="1"/>
        <pt x="425" y="538" on="0"/>
        <pt x="506" y="479" on="0"/>
        <pt x="506" y="414" on="1"/>
        <pt x="506" y="389" on="0"/>
        <pt x="499" y="349" on="1"/>
        <pt x="438" y="0" on="1"/>
        <pt x="350" y="0" on="1"/>
        <pt x="410" y="343" on="1"/>
        <pt x="415" y="376" on="0"/>
        <pt x="415" y="396" on="1"/>
        <pt x="415" y="434" on="0"/>
        <pt x="374" y="465" on="0"/>
        <pt x="337" y="465" on="1"/>
        <pt x="296" y="465" on="0"/>
        <pt x="219" y="425" on="0"/>
        <pt x="163" y="351" on="0"/>
        <pt x="154" y="301" on="1"/>
        <pt x="101" y="0" on="1"/>
        <pt x="13" y="0" on="1"/>
        <pt x="117" y="596" on="1"/>
        <pt x="51" y="596" on="1"/>
        <pt x="62" y="658" on="1"/>
        <pt x="128" y="658" on="1"/>
        <pt x="140" y="723" on="1"/>
        <pt x="228" y="723" on="1"/>
        <pt x="216" y="658" on="1"/>
      </contour>
    </TTGlyph>
    <TTGlyph name="hcircumflex" xMin="13" yMin="0" xMax="506" yMax="883">
      <component glyphName="h" x="0" y="0" flags="0x0"/>
      <component glyphName="circumflex" x="29" y="160" flags="0x0"/>
    </TTGlyph>
    <TTGlyph name="hookabovecomb" xMin="-174" yMin="591" xMax="-12" yMax="735">
      <contour>
        <pt x="-118" y="652" on="1"/>
        <pt x="-101" y="652" on="0"/>
        <pt x="-86" y="663" on="0"/>
        <pt x="-86" y="674" on="1"/>
        <pt x="-86" y="682" on="0"/>
        <pt x="-100" y="688" on="0"/>
        <pt x="-114" y="688" on="1"/>
        <pt x="-174" y="688" on="1"/>
        <pt x="-167" y="727" on="1"/>
        <pt x="-132" y="735" on="0"/>
        <pt x="-93" y="735" on="1"/>
        <pt x="-60" y="735" on="0"/>
        <pt x="-12" y="713" on="0"/>
        <pt x="-12" y="686" on="1"/>
        <pt x="-12" y="655" on="0"/>
        <pt x="-52" y="622" on="0"/>
        <pt x="-81" y="619" on="1"/>
        <pt x="-86" y="591" on="1"/>
        <pt x="-142" y="591" on="1"/>
        <pt x="-131" y="652" on="1"/>
      </contour>
    </TTGlyph>
    <TTGlyph name="house" xMin="77" yMin="0" xMax="527" yMax="563">
      <contour>
        <pt x="77" y="310" on="1"/>
        <pt x="302" y="563" on="1"/>
        <pt x="527" y="310" on="1"/>
        <pt x="527" y="0" on="1"/>
        <pt x="77" y="0" on="1"/>
      </contour>
      <contour>
        <pt x="302" y="501" on="1"/>
        <pt x="116" y="293" on="1"/>
        <pt x="116" y="40" on="1"/>
        <pt x="488" y="40" on="1"/>
        <pt x="488" y="293" on="1"/>
      </contour>
    </TTGlyph>
    <TTGlyph name="hungarumlaut" xMin="15" yMin="591" xMax="345" yMax="723">
      <contour>
        <pt x="100" y="723" on="1"/>
        <pt x="201" y="723" on="1"/>
        <pt x="202" y="720" on="1"/>
        <pt x="95" y="591" on="1"/>
        <pt x="15" y="591" on="1"/>
      </contour>
      <contour>
        <pt x="243" y="723" on="1"/>
        <pt x="344" y="723" on="1"/>
        <pt x="345" y="720" on="1"/>
        <pt x="238" y="591" on="1"/>
        <pt x="158" y="591" on="1"/>
      </contour>
    </TTGlyph>
    <TTGlyph name="hyphen" xMin="20" yMin="221" xMax="307" yMax="319">
      <contour>
        <pt x="37" y="319" on="1"/>
        <pt x="307" y="319" on="1"/>
        <pt x="290" y="221" on="1"/>
        <pt x="20" y="221" on="1"/>
      </contour>
    </TTGlyph>
    <TTGlyph name="i" xMin="13" yMin="0" xMax="228" yMax="723">
      <contour>
        <pt x="140" y="723" on="1"/>
        <pt x="228" y="723" on="1"/>
        <pt x="211" y="625" on="1"/>
        <pt x="123" y="625" on="1"/>
      </contour>
      <contour>
        <pt x="106" y="526" on="1"/>
        <pt x="194" y="526" on="1"/>
        <pt x="101" y="0" on="1"/>
        <pt x="13" y="0" on="1"/>
      </contour>
    </TTGlyph>
    <TTGlyph name="i.loclTRK" xMin="35" yMin="0" xMax="250" yMax="723">
      <component glyphName="dotlessi" x="0" y="0" flags="0x0"/>
      <component glyphName="dotaccent" x="32" y="0" flags="0x0"/>
    </TTGlyph>
    <TTGlyph name="iacute" xMin="35" yMin="0" xMax="341" yMax="723">
      <contour>
        <pt x="240" y="723" on="1"/>
        <pt x="340" y="723" on="1"/>
        <pt x="341" y="720" on="1"/>
        <pt x="210" y="591" on="1"/>
        <pt x="131" y="591" on="1"/>
      </contour>
      <contour>
        <pt x="128" y="526" on="1"/>
        <pt x="216" y="526" on="1"/>
        <pt x="123" y="0" on="1"/>
        <pt x="35" y="0" on="1"/>
      </contour>
    </TTGlyph>
    <TTGlyph name="iacute_j.loclNLD" xMin="35" yMin="-182" xMax="472" yMax="723">
      <component glyphName="dotlessi" x="0" y="0" flags="0x0"/>
      <component glyphName="acute" x="77" y="0" flags="0x0"/>
      <component glyphName="uni0237" x="278" y="0" flags="0x0"/>
      <component glyphName="acute" x="333" y="0" flags="0x0"/>
    </TTGlyph>
    <TTGlyph name="ibreve" xMin="35" yMin="0" xMax="337" yMax="723">
      <contour>
        <pt x="328" y="676" on="0"/>
        <pt x="247" y="606" on="0"/>
        <pt x="178" y="606" on="1"/>
        <pt x="107" y="606" on="0"/>
        <pt x="44" y="659" on="0"/>
        <pt x="44" y="700" on="1"/>
        <pt x="44" y="715" on="0"/>
        <pt x="46" y="723" on="1"/>
        <pt x="107" y="723" on="1"/>
        <pt x="108" y="701" on="0"/>
        <pt x="136" y="670" on="0"/>
        <pt x="177" y="670" on="1"/>
        <pt x="220" y="670" on="0"/>
        <pt x="270" y="703" on="0"/>
        <pt x="276" y="723" on="1"/>
        <pt x="337" y="723" on="1"/>
      </contour>
      <contour>
        <pt x="128" y="526" on="1"/>
        <pt x="216" y="526" on="1"/>
        <pt x="123" y="0" on="1"/>
        <pt x="35" y="0" on="1"/>
      </contour>
    </TTGlyph>
    <TTGlyph name="icircumflex" xMin="27" yMin="0" xMax="322" yMax="723">
      <contour>
        <pt x="193" y="667" on="1"/>
        <pt x="121" y="588" on="1"/>
        <pt x="27" y="588" on="1"/>
        <pt x="156" y="723" on="1"/>
        <pt x="240" y="723" on="1"/>
        <pt x="322" y="588" on="1"/>
        <pt x="236" y="588" on="1"/>
      </contour>
      <contour>
        <pt x="128" y="526" on="1"/>
        <pt x="216" y="526" on="1"/>
        <pt x="123" y="0" on="1"/>
        <pt x="35" y="0" on="1"/>
      </contour>
    </TTGlyph>
    <TTGlyph name="idieresis" xMin="35" yMin="0" xMax="337" yMax="723">
      <contour>
        <pt x="63" y="723" on="1"/>
        <pt x="150" y="723" on="1"/>
        <pt x="133" y="628" on="1"/>
        <pt x="46" y="628" on="1"/>
      </contour>
      <contour>
        <pt x="250" y="723" on="1"/>
        <pt x="337" y="723" on="1"/>
        <pt x="320" y="628" on="1"/>
        <pt x="233" y="628" on="1"/>
      </contour>
      <contour>
        <pt x="128" y="526" on="1"/>
        <pt x="216" y="526" on="1"/>
        <pt x="123" y="0" on="1"/>
        <pt x="35" y="0" on="1"/>
      </contour>
    </TTGlyph>
    <TTGlyph name="igrave" xMin="35" yMin="0" xMax="221" yMax="723">
      <contour>
        <pt x="61" y="720" on="1"/>
        <pt x="62" y="723" on="1"/>
        <pt x="158" y="723" on="1"/>
        <pt x="221" y="591" on="1"/>
        <pt x="146" y="591" on="1"/>
      </contour>
      <contour>
        <pt x="128" y="526" on="1"/>
        <pt x="216" y="526" on="1"/>
        <pt x="123" y="0" on="1"/>
        <pt x="35" y="0" on="1"/>
      </contour>
    </TTGlyph>
    <TTGlyph name="ij" xMin="13" yMin="-182" xMax="450" yMax="723">
      <component glyphName="i" x="0" y="0" flags="0x0"/>
      <component glyphName="j" x="222" y="0" flags="0x0"/>
    </TTGlyph>
    <TTGlyph name="imacron" xMin="31" yMin="0" xMax="349" yMax="711">
      <contour>
        <pt x="44" y="711" on="1"/>
        <pt x="349" y="711" on="1"/>
        <pt x="336" y="639" on="1"/>
        <pt x="31" y="639" on="1"/>
      </contour>
      <contour>
        <pt x="128" y="526" on="1"/>
        <pt x="216" y="526" on="1"/>
        <pt x="123" y="0" on="1"/>
        <pt x="35" y="0" on="1"/>
      </contour>
    </TTGlyph>
    <TTGlyph name="infinity" xMin="43" yMin="142" xMax="667" yMax="453">
      <contour>
        <pt x="299" y="193" on="0"/>
        <pt x="214" y="142" on="0"/>
        <pt x="166" y="142" on="1"/>
        <pt x="108" y="142" on="0"/>
        <pt x="43" y="212" on="0"/>
        <pt x="43" y="268" on="1"/>
        <pt x="43" y="317" on="0"/>
        <pt x="88" y="402" on="0"/>
        <pt x="165" y="453" on="0"/>
        <pt x="212" y="453" on="1"/>
        <pt x="263" y="453" on="0"/>
        <pt x="334" y="402" on="0"/>
        <pt x="366" y="356" on="1"/>
        <pt x="411" y="401" on="0"/>
        <pt x="496" y="453" on="0"/>
        <pt x="544" y="453" on="1"/>
        <pt x="602" y="453" on="0"/>
        <pt x="667" y="382" on="0"/>
        <pt x="667" y="327" on="1"/>
        <pt x="667" y="278" on="0"/>
        <pt x="624" y="193" on="0"/>
        <pt x="547" y="142" on="0"/>
        <pt x="500" y="142" on="1"/>
        <pt x="448" y="142" on="0"/>
        <pt x="376" y="193" on="0"/>
        <pt x="345" y="238" on="1"/>
      </contour>
      <contour>
        <pt x="284" y="336" on="0"/>
        <pt x="239" y="377" on="0"/>
        <pt x="209" y="377" on="1"/>
        <pt x="187" y="377" on="0"/>
        <pt x="145" y="350" on="0"/>
        <pt x="118" y="304" on="0"/>
        <pt x="118" y="279" on="1"/>
        <pt x="118" y="251" on="0"/>
        <pt x="153" y="214" on="0"/>
        <pt x="179" y="214" on="1"/>
        <pt x="210" y="214" on="0"/>
        <pt x="269" y="256" on="0"/>
        <pt x="308" y="297" on="1"/>
      </contour>
      <contour>
        <pt x="426" y="257" on="0"/>
        <pt x="472" y="214" on="0"/>
        <pt x="503" y="214" on="1"/>
        <pt x="537" y="214" on="0"/>
        <pt x="591" y="273" on="0"/>
        <pt x="591" y="311" on="1"/>
        <pt x="591" y="339" on="0"/>
        <pt x="557" y="377" on="0"/>
        <pt x="531" y="377" on="1"/>
        <pt x="500" y="377" on="0"/>
        <pt x="440" y="336" on="0"/>
        <pt x="401" y="297" on="1"/>
      </contour>
    </TTGlyph>
    <TTGlyph name="integral" xMin="-55" yMin="-141" xMax="337" yMax="859">
      <contour>
        <pt x="39" y="-91" on="0"/>
        <pt x="48" y="-33" on="1"/>
        <pt x="61" y="67" on="0"/>
        <pt x="142" y="651" on="0"/>
        <pt x="159" y="747" on="1"/>
        <pt x="167" y="793" on="0"/>
        <pt x="208" y="841" on="0"/>
        <pt x="279" y="859" on="0"/>
        <pt x="337" y="859" on="1"/>
        <pt x="328" y="810" on="1"/>
        <pt x="242" y="810" on="0"/>
        <pt x="231" y="753" on="1"/>
        <pt x="218" y="652" on="0"/>
        <pt x="138" y="67" on="0"/>
        <pt x="121" y="-29" on="1"/>
        <pt x="113" y="-76" on="0"/>
        <pt x="72" y="-124" on="0"/>
        <pt x="4" y="-141" on="0"/>
        <pt x="-55" y="-141" on="1"/>
        <pt x="-46" y="-91" on="1"/>
      </contour>
    </TTGlyph>
    <TTGlyph name="integralbt" xMin="89" yMin="-250" xMax="428" yMax="859">
      <contour>
        <pt x="185" y="-201" on="0"/>
        <pt x="194" y="-144" on="1"/>
        <pt x="354" y="859" on="1"/>
        <pt x="428" y="859" on="1"/>
        <pt x="375" y="529" on="0"/>
        <pt x="288" y="-10" on="0"/>
        <pt x="266" y="-138" on="1"/>
        <pt x="258" y="-184" on="0"/>
        <pt x="214" y="-232" on="0"/>
        <pt x="145" y="-250" on="0"/>
        <pt x="89" y="-250" on="1"/>
        <pt x="97" y="-201" on="1"/>
      </contour>
    </TTGlyph>
    <TTGlyph name="integraltp" xMin="175" yMin="-250" xMax="514" yMax="859">
      <contour>
        <pt x="228" y="80" on="0"/>
        <pt x="315" y="619" on="0"/>
        <pt x="337" y="747" on="1"/>
        <pt x="345" y="793" on="0"/>
        <pt x="389" y="841" on="0"/>
        <pt x="458" y="859" on="0"/>
        <pt x="514" y="859" on="1"/>
        <pt x="506" y="810" on="1"/>
        <pt x="418" y="810" on="0"/>
        <pt x="409" y="753" on="1"/>
        <pt x="249" y="-250" on="1"/>
        <pt x="175" y="-250" on="1"/>
      </contour>
    </TTGlyph>
    <TTGlyph name="intersection" xMin="47" yMin="0" xMax="654" yMax="676">
      <contour>
        <pt x="577" y="411" on="1"/>
        <pt x="580" y="428" on="0"/>
        <pt x="580" y="444" on="1"/>
        <pt x="580" y="489" on="0"/>
        <pt x="540" y="562" on="0"/>
        <pt x="468" y="604" on="0"/>
        <pt x="424" y="604" on="1"/>
        <pt x="370" y="604" on="0"/>
        <pt x="270" y="552" on="0"/>
        <pt x="201" y="463" on="0"/>
        <pt x="192" y="411" on="1"/>
        <pt x="120" y="0" on="1"/>
        <pt x="47" y="0" on="1"/>
        <pt x="119" y="410" on="1"/>
        <pt x="132" y="482" on="0"/>
        <pt x="222" y="605" on="0"/>
        <pt x="351" y="676" on="0"/>
        <pt x="421" y="676" on="1"/>
        <pt x="488" y="676" on="0"/>
        <pt x="595" y="619" on="0"/>
        <pt x="654" y="519" on="0"/>
        <pt x="654" y="457" on="1"/>
        <pt x="654" y="431" on="0"/>
        <pt x="650" y="410" on="1"/>
        <pt x="578" y="0" on="1"/>
        <pt x="505" y="0" on="1"/>
      </contour>
    </TTGlyph>
    <TTGlyph name="iogonek" xMin="-47" yMin="-182" xMax="228" yMax="723">
      <contour>
        <pt x="140" y="723" on="1"/>
        <pt x="228" y="723" on="1"/>
        <pt x="211" y="625" on="1"/>
        <pt x="123" y="625" on="1"/>
      </contour>
      <contour>
        <pt x="69" y="-182" on="0"/>
        <pt x="40" y="-182" on="1"/>
        <pt x="3" y="-182" on="0"/>
        <pt x="-47" y="-146" on="0"/>
        <pt x="-47" y="-106" on="1"/>
        <pt x="-47" y="-72" on="0"/>
        <pt x="-14" y="-18" on="0"/>
        <pt x="13" y="0" on="1"/>
        <pt x="106" y="526" on="1"/>
        <pt x="194" y="526" on="1"/>
        <pt x="101" y="0" on="1"/>
        <pt x="70" y="-6" on="0"/>
        <pt x="36" y="-53" on="0"/>
        <pt x="36" y="-74" on="1"/>
        <pt x="36" y="-117" on="0"/>
        <pt x="80" y="-117" on="1"/>
        <pt x="112" y="-117" on="1"/>
        <pt x="103" y="-168" on="1"/>
      </contour>
    </TTGlyph>
    <TTGlyph name="itilde" xMin="17" yMin="0" xMax="362" yMax="723">
      <contour>
        <pt x="354" y="678" on="0"/>
        <pt x="301" y="619" on="0"/>
        <pt x="258" y="619" on="1"/>
        <pt x="239" y="619" on="0"/>
        <pt x="204" y="627" on="0"/>
        <pt x="182" y="635" on="1"/>
        <pt x="143" y="650" on="0"/>
        <pt x="115" y="650" on="1"/>
        <pt x="89" y="650" on="0"/>
        <pt x="81" y="619" on="1"/>
        <pt x="17" y="619" on="1"/>
        <pt x="24" y="664" on="0"/>
        <pt x="77" y="723" on="0"/>
        <pt x="120" y="723" on="1"/>
        <pt x="139" y="723" on="0"/>
        <pt x="174" y="715" on="0"/>
        <pt x="196" y="707" on="1"/>
        <pt x="235" y="692" on="0"/>
        <pt x="263" y="692" on="1"/>
        <pt x="289" y="692" on="0"/>
        <pt x="297" y="723" on="1"/>
        <pt x="362" y="723" on="1"/>
      </contour>
      <contour>
        <pt x="128" y="526" on="1"/>
        <pt x="216" y="526" on="1"/>
        <pt x="123" y="0" on="1"/>
        <pt x="35" y="0" on="1"/>
      </contour>
    </TTGlyph>
    <TTGlyph name="j" xMin="-107" yMin="-182" xMax="228" yMax="723">
      <contour>
        <pt x="140" y="723" on="1"/>
        <pt x="228" y="723" on="1"/>
        <pt x="211" y="625" on="1"/>
        <pt x="123" y="625" on="1"/>
      </contour>
      <contour>
        <pt x="-53" y="-113" on="1"/>
        <pt x="-7" y="-113" on="0"/>
        <pt x="1" y="-65" on="1"/>
        <pt x="106" y="526" on="1"/>
        <pt x="194" y="526" on="1"/>
        <pt x="90" y="-61" on="1"/>
        <pt x="80" y="-116" on="0"/>
        <pt x="24" y="-182" on="0"/>
        <pt x="-40" y="-182" on="1"/>
        <pt x="-75" y="-182" on="0"/>
        <pt x="-107" y="-170" on="1"/>
        <pt x="-97" y="-113" on="1"/>
      </contour>
    </TTGlyph>
    <TTGlyph name="jcircumflex" xMin="-107" yMin="-182" xMax="300" yMax="723">
      <contour>
        <pt x="171" y="667" on="1"/>
        <pt x="99" y="588" on="1"/>
        <pt x="5" y="588" on="1"/>
        <pt x="134" y="723" on="1"/>
        <pt x="218" y="723" on="1"/>
        <pt x="300" y="588" on="1"/>
        <pt x="214" y="588" on="1"/>
      </contour>
      <contour>
        <pt x="-53" y="-113" on="1"/>
        <pt x="-7" y="-113" on="0"/>
        <pt x="1" y="-65" on="1"/>
        <pt x="106" y="526" on="1"/>
        <pt x="194" y="526" on="1"/>
        <pt x="90" y="-61" on="1"/>
        <pt x="80" y="-116" on="0"/>
        <pt x="24" y="-182" on="0"/>
        <pt x="-40" y="-182" on="1"/>
        <pt x="-75" y="-182" on="0"/>
        <pt x="-107" y="-170" on="1"/>
        <pt x="-97" y="-113" on="1"/>
      </contour>
    </TTGlyph>
    <TTGlyph name="k" xMin="13" yMin="0" xMax="526" yMax="723">
      <contour>
        <pt x="246" y="259" on="1"/>
        <pt x="130" y="165" on="1"/>
        <pt x="101" y="0" on="1"/>
        <pt x="13" y="0" on="1"/>
        <pt x="140" y="723" on="1"/>
        <pt x="228" y="723" on="1"/>
        <pt x="149" y="273" on="1"/>
        <pt x="417" y="526" on="1"/>
        <pt x="526" y="526" on="1"/>
        <pt x="308" y="319" on="1"/>
        <pt x="443" y="0" on="1"/>
        <pt x="346" y="0" on="1"/>
      </contour>
    </TTGlyph>
    <TTGlyph name="kcommaaccent" xMin="13" yMin="-230" xMax="526" yMax="723">
      <component glyphName="k" x="0" y="0" flags="0x0"/>
      <component glyphName="uni0326" x="311" y="0" flags="0x0"/>
    </TTGlyph>
    <TTGlyph name="kgreenlandic" xMin="13" yMin="0" xMax="526" yMax="526">
      <contour>
        <pt x="246" y="259" on="1"/>
        <pt x="130" y="165" on="1"/>
        <pt x="101" y="0" on="1"/>
        <pt x="13" y="0" on="1"/>
        <pt x="105" y="526" on="1"/>
        <pt x="193" y="526" on="1"/>
        <pt x="149" y="273" on="1"/>
        <pt x="417" y="526" on="1"/>
        <pt x="526" y="526" on="1"/>
        <pt x="308" y="319" on="1"/>
        <pt x="443" y="0" on="1"/>
        <pt x="346" y="0" on="1"/>
      </contour>
    </TTGlyph>
    <TTGlyph name="l" xMin="13" yMin="0" xMax="228" yMax="723">
      <contour>
        <pt x="140" y="723" on="1"/>
        <pt x="228" y="723" on="1"/>
        <pt x="101" y="0" on="1"/>
        <pt x="13" y="0" on="1"/>
      </contour>
    </TTGlyph>
    <TTGlyph name="lacute" xMin="13" yMin="0" xMax="359" yMax="883">
      <component glyphName="l" x="0" y="0" flags="0x0"/>
      <component glyphName="acute" x="86" y="160" flags="0x0"/>
    </TTGlyph>
    <TTGlyph name="lcaron" xMin="13" yMin="0" xMax="367" yMax="723">
      <contour>
        <pt x="140" y="723" on="1"/>
        <pt x="228" y="723" on="1"/>
        <pt x="101" y="0" on="1"/>
        <pt x="13" y="0" on="1"/>
      </contour>
      <contour>
        <pt x="298" y="595" on="1"/>
        <pt x="266" y="595" on="1"/>
        <pt x="282" y="686" on="1"/>
        <pt x="367" y="686" on="1"/>
        <pt x="352" y="602" on="1"/>
        <pt x="291" y="490" on="1"/>
        <pt x="245" y="490" on="1"/>
      </contour>
    </TTGlyph>
    <TTGlyph name="lcommaaccent" xMin="-29" yMin="-230" xMax="228" yMax="723">
      <component glyphName="l" x="0" y="0" flags="0x0"/>
      <component glyphName="uni0326" x="144" y="0" flags="0x0"/>
    </TTGlyph>
    <TTGlyph name="ldot" xMin="13" yMin="0" xMax="325" yMax="723">
      <component glyphName="l" x="0" y="0" flags="0x0"/>
      <component glyphName="periodcentered" x="90" y="0" flags="0x0"/>
    </TTGlyph>
    <TTGlyph name="less" xMin="45" yMin="4" xMax="573" yMax="504">
      <contour>
        <pt x="64" y="307" on="1"/>
        <pt x="573" y="504" on="1"/>
        <pt x="556" y="411" on="1"/>
        <pt x="135" y="251" on="1"/>
        <pt x="499" y="91" on="1"/>
        <pt x="484" y="4" on="1"/>
        <pt x="45" y="200" on="1"/>
      </contour>
    </TTGlyph>
    <TTGlyph name="lessequal" xMin="-17" yMin="0" xMax="566" yMax="624">
      <contour>
        <pt x="57" y="427" on="1"/>
        <pt x="566" y="624" on="1"/>
        <pt x="549" y="531" on="1"/>
        <pt x="128" y="371" on="1"/>
        <pt x="492" y="211" on="1"/>
        <pt x="477" y="124" on="1"/>
        <pt x="38" y="320" on="1"/>
      </contour>
      <contour>
        <pt x="-2" y="83" on="1"/>
        <pt x="470" y="83" on="1"/>
        <pt x="455" y="0" on="1"/>
        <pt x="-17" y="0" on="1"/>
      </contour>
    </TTGlyph>
    <TTGlyph name="lira" xMin="-8" yMin="0" xMax="560" yMax="698">
      <contour>
        <pt x="141" y="423" on="1"/>
        <pt x="155" y="499" on="1"/>
        <pt x="174" y="605" on="0"/>
        <pt x="285" y="698" on="0"/>
        <pt x="380" y="698" on="1"/>
        <pt x="467" y="698" on="0"/>
        <pt x="560" y="632" on="0"/>
        <pt x="560" y="558" on="1"/>
        <pt x="560" y="531" on="0"/>
        <pt x="556" y="504" on="1"/>
        <pt x="554" y="491" on="1"/>
        <pt x="466" y="491" on="1"/>
        <pt x="471" y="523" on="0"/>
        <pt x="471" y="537" on="1"/>
        <pt x="471" y="625" on="0"/>
        <pt x="382" y="625" on="1"/>
        <pt x="323" y="625" on="0"/>
        <pt x="256" y="572" on="0"/>
        <pt x="246" y="515" on="1"/>
        <pt x="229" y="423" on="1"/>
        <pt x="395" y="423" on="1"/>
        <pt x="382" y="351" on="1"/>
        <pt x="216" y="351" on="1"/>
        <pt x="202" y="275" on="1"/>
        <pt x="368" y="275" on="1"/>
        <pt x="356" y="203" on="1"/>
        <pt x="189" y="203" on="1"/>
        <pt x="156" y="79" on="1"/>
        <pt x="481" y="79" on="1"/>
        <pt x="467" y="0" on="1"/>
        <pt x="-8" y="0" on="1"/>
        <pt x="6" y="79" on="1"/>
        <pt x="81" y="79" on="1"/>
        <pt x="103" y="203" on="1"/>
        <pt x="19" y="203" on="1"/>
        <pt x="30" y="275" on="1"/>
        <pt x="115" y="275" on="1"/>
        <pt x="129" y="351" on="1"/>
        <pt x="44" y="351" on="1"/>
        <pt x="57" y="423" on="1"/>
      </contour>
    </TTGlyph>
    <TTGlyph name="logicalnot" xMin="62" yMin="197" xMax="551" yMax="453">
      <contour>
        <pt x="451" y="360" on="1"/>
        <pt x="62" y="360" on="1"/>
        <pt x="78" y="453" on="1"/>
        <pt x="551" y="453" on="1"/>
        <pt x="506" y="197" on="1"/>
        <pt x="422" y="197" on="1"/>
      </contour>
    </TTGlyph>
    <TTGlyph name="longs" xMin="-101" yMin="-182" xMax="345" yMax="731">
      <contour>
        <pt x="45" y="526" on="1"/>
        <pt x="122" y="526" on="1"/>
        <pt x="137" y="610" on="1"/>
        <pt x="146" y="664" on="0"/>
        <pt x="205" y="731" on="0"/>
        <pt x="272" y="731" on="1"/>
        <pt x="292" y="731" on="0"/>
        <pt x="332" y="724" on="0"/>
        <pt x="345" y="719" on="1"/>
        <pt x="334" y="658" on="1"/>
        <pt x="282" y="658" on="1"/>
        <pt x="233" y="658" on="0"/>
        <pt x="225" y="610" on="1"/>
        <pt x="106" y="-61" on="1"/>
        <pt x="96" y="-116" on="0"/>
        <pt x="38" y="-182" on="0"/>
        <pt x="-28" y="-182" on="1"/>
        <pt x="-48" y="-182" on="0"/>
        <pt x="-88" y="-175" on="0"/>
        <pt x="-101" y="-170" on="1"/>
        <pt x="-90" y="-109" on="1"/>
        <pt x="-38" y="-109" on="1"/>
        <pt x="10" y="-109" on="0"/>
        <pt x="18" y="-61" on="1"/>
        <pt x="109" y="453" on="1"/>
        <pt x="32" y="453" on="1"/>
      </contour>
    </TTGlyph>
    <TTGlyph name="lozenge" xMin="60" yMin="-132" xMax="524" yMax="727">
      <contour>
        <pt x="524" y="298" on="1"/>
        <pt x="270" y="-132" on="1"/>
        <pt x="163" y="-132" on="1"/>
        <pt x="60" y="298" on="1"/>
        <pt x="315" y="727" on="1"/>
        <pt x="422" y="727" on="1"/>
      </contour>
      <contour>
        <pt x="436" y="305" on="1"/>
        <pt x="358" y="655" on="1"/>
        <pt x="148" y="291" on="1"/>
        <pt x="226" y="-60" on="1"/>
      </contour>
    </TTGlyph>
    <TTGlyph name="lslash" xMin="-9" yMin="0" xMax="257" yMax="723">
      <contour>
        <pt x="67" y="283" on="1"/>
        <pt x="-9" y="227" on="1"/>
        <pt x="4" y="304" on="1"/>
        <pt x="80" y="360" on="1"/>
        <pt x="144" y="723" on="1"/>
        <pt x="232" y="723" on="1"/>
        <pt x="181" y="433" on="1"/>
        <pt x="257" y="488" on="1"/>
        <pt x="243" y="411" on="1"/>
        <pt x="168" y="356" on="1"/>
        <pt x="105" y="0" on="1"/>
        <pt x="17" y="0" on="1"/>
      </contour>
    </TTGlyph>
</ttFont>
